<?xml version="1.0" encoding="utf-8"?>
<!-- Generator: Adobe Illustrator 16.0.0, SVG Export Plug-In . SVG Version: 6.00 Build 0)  -->
<!DOCTYPE svg PUBLIC "-//W3C//DTD SVG 1.1//EN" "http://www.w3.org/Graphics/SVG/1.1/DTD/svg11.dtd" [
	<!ENTITY ns_extend "http://ns.adobe.com/Extensibility/1.0/">
	<!ENTITY ns_ai "http://ns.adobe.com/AdobeIllustrator/10.0/">
	<!ENTITY ns_graphs "http://ns.adobe.com/Graphs/1.0/">
	<!ENTITY ns_vars "http://ns.adobe.com/Variables/1.0/">
	<!ENTITY ns_imrep "http://ns.adobe.com/ImageReplacement/1.0/">
	<!ENTITY ns_sfw "http://ns.adobe.com/SaveForWeb/1.0/">
	<!ENTITY ns_custom "http://ns.adobe.com/GenericCustomNamespace/1.0/">
	<!ENTITY ns_adobe_xpath "http://ns.adobe.com/XPath/1.0/">
]>
<svg version="1.1" id="Layer_1" xmlns:x="&ns_extend;" xmlns:i="&ns_ai;" xmlns:graph="&ns_graphs;"
	 xmlns="http://www.w3.org/2000/svg" xmlns:xlink="http://www.w3.org/1999/xlink" x="0px" y="0px" width="512px" height="512px"
	 viewBox="0 0 512 512" enable-background="new 0 0 512 512" xml:space="preserve">
<metadata>
	<sfw  xmlns="&ns_sfw;">
		<slices></slices>
		<sliceSourceBounds  bottomLeftOrigin="true" height="16383" width="16383" x="-7596" y="-7771"></sliceSourceBounds>
	</sfw>
</metadata>
<g>
	<g opacity="0.5">
		
			<image overflow="visible" width="777" height="327" xlink:href="9B4D61C451528B5A.png"  transform="matrix(0.4728 0 0 0.4728 69.9568 369.8906)">
		</image>
	</g>
	<radialGradient id="SVGID_1_" cx="291.5774" cy="201.7041" r="217.3331" gradientUnits="userSpaceOnUse">
		<stop  offset="0" style="stop-color:#F5F5F5"/>
		<stop  offset="0.245" style="stop-color:#EFEFEF"/>
		<stop  offset="0.5671" style="stop-color:#DFDFDF"/>
		<stop  offset="0.8282" style="stop-color:#CDCDCC"/>
		<stop  offset="1" style="stop-color:#BCBCBB"/>
	</radialGradient>
	<path fill="url(#SVGID_1_)" d="M424.839,274.156c0,96.486-78.159,174.712-174.581,174.712
		c-96.416,0-174.576-78.226-174.576-174.712c0-96.489,78.16-174.715,174.576-174.715C346.68,99.441,424.839,177.667,424.839,274.156
		z"/>
	
		<radialGradient id="SVGID_2_" cx="628.5989" cy="78.3018" r="213.3053" gradientTransform="matrix(0.9241 0 0 0.9248 -298.978 122.5759)" gradientUnits="userSpaceOnUse">
		<stop  offset="0" style="stop-color:#93C01F"/>
		<stop  offset="0.2485" style="stop-color:#90BD20"/>
		<stop  offset="0.4664" style="stop-color:#85B422"/>
		<stop  offset="0.6728" style="stop-color:#73A426"/>
		<stop  offset="0.871" style="stop-color:#5A8F2B"/>
		<stop  offset="1" style="stop-color:#457D2F"/>
	</radialGradient>
	<path fill="url(#SVGID_2_)" d="M170.351,127.875c0.025,0.3,0.597,0.2,1.172,0.058c1.106-0.23,2.335-1.145,2.614-1.552
		C173.331,126.431,170.599,127.39,170.351,127.875z M187.808,121.826c1.793-0.393,4.427-0.965,4.518-1.588
		c-0.445,0.107-0.86,0.17-1.256,0.23c0.921-0.174,1.854-0.44,2.559-0.77c-0.285-0.04-0.435-0.166-1.391-0.048
		c-1.691,0.291-6.458,1.229-6.77,1.858C185.517,121.895,186.573,122.009,187.808,121.826z M189.053,120.058
		c1.177-0.234,2.254-0.364,3.468-0.588c0.941-0.246,1.572-0.455,2.265-0.633c-0.391-0.516-1.468-0.403-3.221-0.145
		c-1.052,0.181-5.856,1.505-6.093,2.016c0.614-0.148,0.985-0.402,1.645-0.521C187.908,120.112,188.093,120.194,189.053,120.058z
		 M182.271,123.677c0.573-0.05,1.099-0.208,1.743-0.334c0.187,0,0.102-0.188,0.105-0.378c-0.966,0.19-1.816,0.34-2.761,0.533
		C181.246,123.869,181.888,123.764,182.271,123.677z M182.452,124.246c0.554-0.174,1.25-0.192,1.839-0.344
		c2.495-0.344,3.696,0.348,7.439-0.146c1.066-0.183,1.499-0.399,1.913-0.675c-0.933,0.114-1.32,0.245-1.636,0.156
		c0.11-0.039,0.637-0.156,0.851-0.246c0.069-0.176-0.079-0.318,0.092-0.395c-0.594-0.011-1.96,0.26-1.955-0.126
		c0.2-0.497,2.216-1.036,3.192-1.408c0.506-0.006,0.983,0.065,1.523-0.029c-0.129,0.327-0.123,0.301-0.086,0.39
		c-0.079,0.643,1.296,1.001,2.938,0.668c0.8-0.038,1.297-0.544,2.351-0.657c1.066-0.104,1.918,0.014,1.814,0.527
		c-0.131,0.587-2.289,1.638-3.089,1.807c-0.539,0.174-5.354,0.659-5.485,0.672c-0.085-0.014-5.447,1.364-5.683,1.376
		c-1.754,0.508-3.375,1.033-5.419,1.366c-0.983,0.204-2.197,0.191-2.132-0.062c0.26-0.598,1.249-0.652,2.345-0.78
		c-0.567-0.167-1.171,0.003-1.179-0.456c-0.452,0.139-0.914,0.31-0.985,0.559c-1.406,0.345-2.377,0.731-3.386,0.856
		c-1.023,0.176-2.122,0.31-2.672,0.349c-0.604,0.234-1.206,0.089-1.02-0.198c0.11-0.423,0.475-0.181,0.137-0.453
		c0.773-0.241,1.098-0.617,2.018-0.709c0.242-0.124,0.548-0.013,0.789-0.14c-0.275,0.033-0.489,0.016-0.764,0.05
		c0.121-0.178,0.075-0.234,0.137-0.441c0.61-0.229,1.322-0.282,1.322-0.282c0.084,0.007,0.169-0.041,0.254-0.06
		c-0.216-0.004-0.406-0.074-0.61,0.025c0.327-0.243,1.048-0.465,1.652-0.647c0.062,0.028,0.256-0.036,0.192-0.033
		c-0.356-0.017-0.55,0.027-0.491-0.178c1.439-0.362,1.88-0.418,2.582-0.521C181.546,124.01,182.377,123.731,182.452,124.246z
		 M179.605,125.872c-0.206,0.104-0.442,0.092-0.669,0.087C179.162,125.996,179.401,125.976,179.605,125.872z M182.452,122.426
		c0.541-0.124,0.91-0.269,1.203-0.557c-0.481,0.074-2.382-0.291-2.632,0.444C180.963,122.521,181.706,122.507,182.452,122.426z
		 M163.871,129.103c0.622-0.095,0.849-0.458,1.31-0.556c0.777-0.196,1.082-0.146,2.049-0.529c0.115,0.205,0.525,0.279,1.106,0.123
		c0.927-0.141,1.453-0.644,1.785-1.019c1.208-0.287,2.445-1.021,2.855-1.5c0.737-0.056,0.287,0.641,1.635,0.38
		c1.198-0.506,2.341-1.094,3.601-1.642c0.091-0.332-0.475-0.006-0.438-0.443c0.537-0.142,1.108-0.374,1.148-0.675
		c0.187-0.749-4.569,0.961-4.575,0.961c-0.667,0.22-0.667,0.083-1.33,0.261c-2.103,0.479-2.705,1.362-4.227,1.985
		c-1.387,0.663-2.457,0.989-3.711,1.472c-0.277,0.175-1.741,0.866-1.77,0.951C163.202,128.94,163.687,128.812,163.871,129.103z
		 M158.025,136.939c0.177,0.267,0.5,0.434,0.889,0.361c0.385-0.098,0.454,0.139,1.004,0.046c0.566-0.263,5.876-2.177,6.095-2.447
		c0.312-0.727,3.946-2.842,6.47-3.672c0.77-0.304,4.883-1.303,5.154-1.698c0.083-0.72-3.467-0.596-5.109-0.22
		c-1.004,0.164-2.062,0.789-2.632,0.668c-1.684,0.303-2.288,0.139-3.857,0.354c-1.258,0.227-2.143,0.683-3.007,0.96
		c-1.782,0.444-2.428,0.387-4.31,1.174c-0.075,0.476,0.798,0.422,0.692,0.753c-0.365,1.072-4.171,2.956-4.609,4.021
		C154.531,137.679,157.521,136.839,158.025,136.939z M270.292,125.319c1.646,0.108,2.366-0.138,3.356-0.142
		c1.055,0.173,1.507,0.344,2.755,0.415c0.706,0.02,1.277-0.101,1.586-0.434c-1.695-0.454-3.764-1.296-6.265-1.439
		c-1.958-0.174-2.528-0.427-4.578-0.509c-0.625,0.036-1.561,0-1.523,0.431c-0.045,0.476,0.985,0.537,1.87,0.795
		C266.859,124.849,268.471,125.228,270.292,125.319z M249.737,121.28c2.457,0.106,4.864,0.069,7.301,0.098
		c0.902-0.079,0.999-0.275,2.271-0.362c0.255,0.229,0.644,0.535,1.843,0.545c3.239,0.125,7.233,0.358,7.476-0.813
		c0,0-0.525,0.066-1.18-0.094c0.131-0.126,0.287-0.14,0.42-0.267c0.217,0.026,0.521,0.015,0.733-0.021
		c-1.407-0.875-3.635-1.086-7.274-1.2c-4.812-0.223-6.22,0.54-11.32,0.564c-2.282,0.009-4.032-0.224-6.249-0.369
		c-0.341,0.016-1.504,0.463-1.447-0.144c-0.004-0.124,0.462-0.156,0.639-0.162c-1.324-0.39-3.486,0.098-4.032-0.647
		c1.21,0.022,2.395,0,3.603-0.067c-0.819-0.406-4.877-0.033-4.194-0.848c-0.469,0.04-1.133,0.07-1.608,0.043
		c-0.379,0.146-0.852,0.281-1.808,0.299c-3.047,0.068-3.646-1-7.655-0.724c-1.021,0.037-2.624,0.108-2.695,0.607
		c0.1,0.371,5.331,0.771,6.297,0.729c0.629,0.024,1.226-0.15,1.811-0.383c1.489,0.545,1.822,0.912,3.494,1.475
		c-0.325,0.029-1.135,0.235-1.11,0.539c-0.006,0.865,4.383,1.263,6.468,1.307c0.706-0.052,2.216-0.432,2.566-0.587
		c0.308,0.078,0.779-0.054,1.097-0.008C244.931,121.5,247.777,121.517,249.737,121.28z M204.44,119.071
		c0.55-0.047,1.116-0.214,1.252-0.493c-1.774-0.089-1.805-0.574-3.965-0.302C201.612,118.826,203.47,119.194,204.44,119.071z
		 M224.89,125.632c-0.481-0.028-1.756-0.058-2.078-0.058c0.038-0.433,0.275-0.025,0.319-0.524c0.023-0.475-2.623,0.166-3.34,0.166
		c0.625-0.245,2.843-0.745,3.007-1.418c-0.042-0.209-0.631-0.318-0.868-0.272c-1.277,0.134-2.326,0.117-3.592,0.235
		c-1.981,0.203-3.894,0.188-5.391,0.811c-0.143,0.038-0.595,0.2-0.658,0.316c-0.069,0.561,1.595,0.26,2.797,0.204
		c-0.015,0.384-0.005,0.529-0.111,0.903c-0.379,0.097-0.943,0.074-1.341,0.106c-1.481,0.141-2.801-0.136-3.945-0.063
		c-0.104,0.224-0.079,0.33-0.079,0.574c2.468,0.755,5.137,0.345,7.67,1.192c0.491,0.214,0.618,0.507,1.938,0.461
		c0.704-0.062,1.042-0.451,1.872-0.633C224.15,127.116,224.292,127.606,224.89,125.632z M218.391,132.247
		c-0.313,0.068-1.979-0.028-2.043,0.311c0.119,0.052,6.716,0.735,7.955,0.663c1.021-0.078,1.402-0.444,2.366-0.703
		c-0.548-0.478-4.159-1.638-5.602-1.59C219.234,130.969,219.502,131.967,218.391,132.247z M358.381,321.331
		c-0.381,0.03-1.229,1.165-1.305-0.089c-0.617,0.048-1.242-0.446-1.694-0.758c-0.045,0.094-0.237,0.004-0.337,0.022
		c-1.135,0.004-1.68,1.146-1.843,2.602c-0.021,0.908,1.948,2.451,3.249,2.404c1.066-0.111,2.309-2.478,2.447-3.334
		C358.887,322.012,358.693,321.319,358.381,321.331z M309.021,116.542c-0.791-0.052-1.476-0.298-2.158-0.555
		c-1.547,0.165-5.067,0.026-7.877-0.046c-0.386-0.124-1.645-0.219-1.611,0.106c0.125,0.687,4.885,1.102,6.408,1.398
		c0.227,0.885-0.606,0.88-1.967,0.917c-1.779-0.004-4.818-0.747-7.21-0.811c-1.61-0.106-2.484,0.168-4.056,0.076
		c-1.918-0.036-4.984-0.609-4.891,0.167c0.229,0.537,8.645,2.069,8.965,2.123c1.055,0.069,1.973,0.278,3.04,0.371
		c0.377,0.125,0.625,0.025,0.801-0.175c1.161,0.135,2.204,0.377,3.43,0.471c-0.294,0.418-0.145,0.428-0.978,0.478
		c-1.685-0.208-3.243-0.451-4.927-0.639c-0.479,0.106-0.617,0.152-1.529,0.046c-0.66-0.09-1.499-0.138-2.186-0.253
		c-0.633-0.072-2.38-0.276-2.551,0.305c1.698,0.454,1.123,0.104,3.084,0.333c1.052,0.065,2.168,0.625,3.596,0.913
		c-0.366,0.324-0.858,0.19-1.672,0.269c1.231,0.492,3.945,1.192,5.813,1.432c0.637-0.023,0.567,0.15,1.104,0.054
		c-0.27-0.098-0.635-0.257-0.906-0.357c0.404,0.026,0.708,0.008,1.703,0.115c1.05,0.132,1.858,0.478,2.622,0.605
		c1.19,0.068,1.579-0.144,2.645,0.021c0.955,0.129,1.676,0.299,2.538,0.403c9.525,1.586,15.305,4.642,18.413,7.931
		c0.046,0.21,0.023,0.301,0.133,0.484c0.688,0.267,1.926,0.369,2.138,0.984c0.146,0.79-1.603,0.339-1.368,1.049
		c0.046,0.645,0.823,0.768,2.305,1.03c1.133,0.142,1.062-0.231,1.828-0.134c2.572,0.665,3.743,2.28,6.196,3.234
		c0.04,0.27,0.101,0.525-0.617,0.322c-1.866-0.432-3.136-1.242-4.827-1.586c-0.692-0.184-0.658-0.206-1.424-0.313
		c0.608,1.037,6.279,2.557,8.817,3.414c-0.446,0.831-1.4,0.831-1.658,1.817c-1.158-0.535-1.136-0.479-2.182-0.427
		c0.032,0,0.017,0.043,0.019,0.07c-1.52,0.234-1.733,0.812-2.701,1.298c0.043,0.331,0.091,0.525,0.196,0.841
		c0.523-0.032,1.018,0.115,1.608,0.335c-0.151,0.463-0.675,0.331-0.585,0.759c0.2,0.99,2.497,1.836,3.147,2.678
		c0.317,0.376,0.756,1.253,1.083,1.419c1.505,0.686,1.555-0.248,2.963,0.741c-0.619,0.124-1.145-0.042-1.02,0.467
		c0.238,1.195,3.459,4.22,5.258,5.181c0.188,0.173,0.266,0.612,0.722,0.918c1.439,0.633,1.999,0.623,2.809,1.672
		c0.898,0.191,2.015-0.02,3.076,0.225c1.901,0.522,2.159,2.126,3.99,2.647c0.481,0.037,0.523-0.118,1.395,0.092
		c0.123,0.278,0.464,0.435,0.968,0.619c1.916,0.437,0.549-1.685,2.074-1.722c-0.264-0.431-0.387-1.468-0.565-2.091
		c-0.312-1.188,2.916-0.437,2.684-1.623c-0.234-0.398-0.916-0.799-1.049-1.062c0.004-0.209,0.067-0.159,0.341-0.263
		c0.004-0.148-0.194-0.25-0.236-0.391c-0.42-1.125,3.272,0.293,4.388,0.125c0.791-0.13,0.108-0.468,0.968-0.376
		c0.077,0.268,0.154,0.396,0.231,0.663c0.354,0.181,0.588,0.139,0.925,0.35c1.116,0,3.211,0.936,4.131,0.801
		c1.331-0.188-1.632-2.709-0.75-2.715c0.711,0.006,0.7,0.12,1.187,0.074c-0.22-0.252,0.398-0.07,0.881-0.002
		c0.37,0.182,0.724,0.347,1.076,0.509c-12.903-13.662-27.988-25.23-44.701-34.164c-0.333-0.085-0.552-0.082-0.502,0.133
		c0.258,0.14,0.446,0.436,0.777,0.617c-0.387-0.102-0.72-0.124-1.072-0.316c-1.494-0.557-2.662-0.882-3.703-1.504
		c-0.29,0.002-0.35,0.005-0.643,0.005c0.075,0.247,0.393,0.31,0.545,0.52c-1.455-0.374-1.945-1.084-3.367-1.454
		c-2.012-0.467-3.366-0.541-5.492-0.903c-2.969-0.707-3.95-0.693-7.163-1.229C309.31,115.66,311.93,117.045,309.021,116.542z
		 M338.647,140.342c-2.132-0.766-2.961-1.759-5.043-2.263c-0.791-0.09-1.668-0.208-1.587,0.321c0.254,0.452,1.162,1.341,1.916,1.562
		c0.585-0.019,1.11,0.223,1.757,0.372C337.036,140.53,338.602,140.896,338.647,140.342z M209.203,131.828
		c1.664-0.129,1.937-0.024,3.655-0.577c-1.766-0.448-8.944-0.428-8.914-1.63c0.104-0.91-2.062-1.413-1.916-2.644
		c0.041-0.382,1.957-0.771,2.087-1.302c0.123-0.635-1.331-0.581-2.909-0.374c-1.395-0.013-2.572,0.442-2.68,0.863
		c0.143,0-0.025,0.176,0.025,0.316c-1.478,0.415-0.868,0.064-2.397,0.304c-0.627,0.033-1.552,0.285-1.612,0.627
		c-0.124,0.369,0.983,1.687,1.541,2.053c-0.402,0.161-0.481,0.304-1.17,0.409c-1.67,0.152-0.808-0.707-1.226-1.052
		c-0.437-0.437-1.454-0.605-2.609-0.545c-0.577,0.021-1.221,0.171-1.849,0.273c0.217,0.21,0.217,0.137,0.296,0.528
		c-0.885,0.259-1.657,0.451-2.561,0.611c-0.474-0.561-1.154-0.803-3.498-0.38c-1.27,0.23-1.949,0.743-2.668,1.019
		c-0.308-0.269,0.065-1.097-1.093-0.88c-2.977,0.494-10.202,3.082-10.758,4.744c-0.033,0.216,1.289,0.318,2.159,0.17
		c1.02-0.33,1.556-0.377,2.757-0.519c-0.895,0.505-3.113,0.559-3.342,1.331c-0.221,0.844,4.111-0.226,5.997-0.57
		c1.387-0.233,2.855-0.513,4.333-0.748c0.829-0.161,1.472,0.011,2.001,0.011c-1.006,0.248-1.483,0.29-2.753,0.512
		c-3.444,0.622-5.924,1.216-8.055,2.204c0.679,0.335,1.722,0.8,3.503,0.517c1.131-0.242,3.658-0.744,4.493-0.585
		c0.987,0.152-0.158,0.881,1.321,0.65c2.484-0.384,4.975-0.806,7.649-1.095c1.872-0.859,3.944-0.768,6.383-1.502
		c1.31-0.42,0.804-0.796,2.386-0.913c2.568-0.359,3.615,0.694,7.143,0.348c2.257-0.14,4.296-0.426,5.233-1.098
		c-0.317-0.133-0.752-0.096-0.852-0.44c-0.298,0.09-1.339,0.172-1.316-0.171C208.02,131.988,208.503,131.961,209.203,131.828z
		 M338.527,186.935c-0.026,0.128,0.364,0.058,0.525,0.062c1.068,0.103,1.688-0.776,2.34-1.566c0.76,0.669,0.403,1.906,1.093,1.973
		c0.215,0.092,0.496,0.114,0.708,0.23c0.073,0.238,0.196,0.858,0.879,0.932c0.871,0.104,1.277-0.663,1.184-1.492
		c0.002-0.622-0.656-0.687-0.777-1.527c-0.495,0.215-0.2,0.401-1.068,0.271c-0.028-0.434-0.657-0.877-0.74-1.175
		c0-0.25,0.72-0.348,0.74-0.916c-0.296-0.121-0.74,0-0.929,0.078c-0.16-1.028-0.109-1.586-0.188-2.233
		c-0.416,0.137-1.515,0.021-2.519-0.328c-0.308,0.111-0.69,0.13-1.02,0.138c-0.071-0.068-0.058-0.236-0.039-0.339
		c-0.475-0.038-1.109-0.119-1.583-0.192c-0.036-0.179-0.06-0.43-0.077-0.617c0.154-0.076,0.254-0.208,0.404-0.286
		c-0.347-0.203-0.976-0.497-1.456-0.512c-0.545-0.074-0.527,0.315-1.267,0.386c-0.038-0.185-0.056-0.427-0.072-0.616
		c0.346-1.124,2.127-1.684,1.968-3.138c-0.062-0.237-0.393-0.668-0.696-0.744c-1.43-0.18-1.787,0.861-2.407,1.673
		c-1.143,1.472-1.835,4.366-4.248,5.068c0.075,0.188,0.525,0.407,0.763,0.427c0.09,0.082,0.058,0.294,0.042,0.418
		c0.063,0.008-1.499,0.912-1.512,1.155c0.034,0.185,0.588,0.755,0.99,0.799c1.025,0.15,1.38-0.267,2.782-0.128
		c1.052,0.042,1.579,0.598,2.761,0.783c0.552,0.01,1.137,0.01,1.75-0.151c0.593,0.762,1.638,0.435,2.517,0.569
		C339.177,186.33,338.49,186.204,338.527,186.935z M238.434,110.316c0.406-0.031,0.917-0.164,1.325-0.192
		c0.847-0.054,1.782-0.089,2.636-0.054c-1.056,0.054-1.566,0.208-2.483,0.429c0.148,0.07,1.181,0.1,1.578,0.141
		c1.699-0.098,1.756-0.465,3.543-0.455c0.535-0.016,1.197-0.032,1.762,0.028c-2.312,0.174-4.463,0.165-5.498,0.768
		c0.637-0.038,2.405-0.004,4.159-0.061c-1.158,0.041-1.768,0.168-2.397,0.275c0.613,0.195,3.053,0.388,4.865,0.44
		c0.716-0.009,1.322-0.068,1.953-0.229c0.341,0,0.806,0.004,1.156,0.004c-0.544,0.381,1.751,0.455,3.56,0.503
		c0.635,0.017,0.999-0.216,1.768-0.196c0.84,0.041,1.431,0.166,3.124,0.269c2.937-0.068,4.808,0.024,6.604-0.265
		c0.396,0.042,0.922,0.026,1.32,0.068c-0.972,0.245-2.496,0.344-4.189,0.442c-1.576-0.009-2.903-0.148-4.448-0.152
		c-0.172,0.082-0.599,0.07-0.61,0.216c0.01,0.212,2.895,0.728,3.329,0.826c-2.509-0.066-3.243-0.698-5.558-0.954
		c-1.764-0.177-3.682-0.103-4.719-0.11c-0.398,0-0.937-0.078-1.339-0.004c0.254,0.144,0.339,0.25,1.012,0.276
		c-0.879-0.03-1.891-0.136-1.901,0.185c0.044,0.648,5.932,0.529,6.093,1.246c-0.05,1.011-2.663,0.444-4.933,0.596
		c-1.341,0.125-1.962,0.398-2.713,0.803c0,0.146-0.009,0.157-0.005,0.3c0.398-0.008,0.962-0.06,1.358,0
		c0.258-0.102,0.639-0.093,0.904-0.172c0.398-0.002,0.952,0.011,1.354,0.011c0.011,0.867,2.819,0.957,4.089,1.301
		c-0.478-0.016-1.155-0.016-1.634-0.026c-1.722-0.274-2.73-0.777-5.618-0.737c-1.016,0.012-2.187-0.243-2.27,0.259
		c0.031,0.648,1.901,0.532,2.984,0.745c-1.899,0.481-6.547,0.032-6.662,1.08c0.009,0.111,0.296,0.223,0.902,0.195
		c0.398-0.021,0.852-0.111,1.104-0.274c3.24,0.335,5.572,0.477,8.667,0.524c1.408,0.017,1.928-0.242,2.736-0.222
		c2.31,0.078,4.558,0.083,6.848,0.187c1.834,0.032,0.899,0.448,3.022,0.503c2.076,0.204,7.14,0.09,7.189-0.525
		c0.036-0.322-1.132-0.252-1.366-0.287c-0.66-0.09-1.51-0.112-2.261-0.125c0.014-0.842,3.663-0.083,3.683-0.979
		c0.025-0.212-0.494-0.163-0.662-0.415c1.52,0.217,2.953,0.206,4.471,0.305c1.479-0.113,2.064-0.75,3.852-0.81
		c-0.596-0.366-1.535-0.599-2.631-0.795c1.762,0.197,2.737,0.405,2.501-0.219c-0.841-0.042-1.624-0.137-2.461-0.206
		c1.285-0.125,3.522-0.046,5.454-0.033c1.379,0.061,3.312,0.501,4.496,0.395c2.543-0.234,4.195-0.815,7.606-0.737
		c2.925,0.246,7.521,0.594,9.264,0.396c-2.049-0.346-5.254-0.712-6.188-1.065c4.402,0.03,8.268,1.162,11.326,1.184
		c0.575-0.068,2.035,0.529,1.878,0.083c-0.271-0.589-4.271-1.084-5.331-1.525c-0.495-0.18-0.537-0.348-1.474-0.596
		c-0.464-0.161-0.987-0.331-1.501-0.421c-2.116-0.226-4.234-0.441-6.393-0.589c0.639-0.037,0.865,0.074,1.422,0
		c-1.816-0.653-8.841-1.592-10.886-1.838c-0.734-0.172-1.493-0.163-2.362-0.273c-0.716-0.045-1.245-0.304-2.561-0.412
		c-1.194-0.116-1.436,0.222-2.671,0.082c-1.315-0.011-1.679-0.426-3.285-0.535c-0.389,0.042-0.791,0.094-1.003,0.056
		c-3.348-0.166-6.559-0.398-9.931-0.643c-0.862,0.042-1.503-0.068-1.975,0.185c-1.205,0.142-0.206,0.002-1.742-0.028
		c-2.573-0.057-3.594,0.378-4.325,0.82c-0.825-0.036-4.192-0.544-5.883-0.566c-1.828-0.004-0.616,0.487-3.509,0.458
		c0,0.146-0.383,0.17-0.704,0.178c-0.583,0.012-1.22-0.008-1.934,0.012c-2.518-0.03-8.138,0.521-8.815,1.011
		C237.082,110.434,237.73,110.365,238.434,110.316z M221.135,115.053c-0.185,0.841,1.714,0.607,2.743,0.897
		c-0.236,0.048-0.852,0.14-0.908,0.349c-0.035,0.514,2.938,0.012,6.152-0.358c-0.277-0.459,0.016-0.437,0.063-0.735
		c0.016-0.905-3.007,0.247-3.001-0.49c-1.018,0.161-2.661,0.022-2.996-0.23C222.268,114.652,221.162,114.623,221.135,115.053z
		 M219.973,112.997c0.435-0.082,1.008-0.099,1.455-0.115c0.069-0.281,0.042-0.257,0.079-0.542c-0.544,0.101-1.866,0.093-2.993,0.241
		C218.467,113.101,219.446,112.868,219.973,112.997z M230.983,113.455c-0.489,0.259-1.152,0.287-2.061,0.411
		c0.031,0.217,0.052,0.206,0.687,0.202c0.631-0.083,0.979-0.169,1.879-0.28c0.241,0.212,0.313,0.348,1.218,0.25
		c1.051-0.004,1.285-0.233,2.686-0.296c1.356-0.012,2.311-0.056,3.644,0.078c-1.205,0.088-6.693,0.157-6.814,0.717
		c0.077,0.539,2.405,0.517,3.979,0.453c-0.234,0.119-0.485,0.143-1.177,0.214c0.319,0.423,2.064,0.369,3.569,0.333
		c1.339,0.014,2.214,0.034,2.184-0.619c0.823,0.187,2.413,0.42,3.224,0.389c-0.002-0.15,0.02-0.163,0.01-0.317
		c0.477-0.018,1.143,0,1.622-0.018c-0.331-0.172-0.66-0.256-1.153-0.478c0.41-0.137,0.671-0.223,1.08-0.375
		c0.248,0.398,0.248,0.505,1.429,0.481c1.233,0.078,2.363-0.763,4.234-0.767c0.639,0.005,1.72,0.078,2.064-0.102
		c0.239-0.131,0.079-0.101,0.081-0.357c-1.225-0.022-3.494-0.343-4.382-0.339c-0.164,0.006-1.508,0.326-1.526,0
		c-0.001-0.218,0.633-0.1,0.635-0.357c-0.014-0.253-1.054-0.091-1.072-0.344c-0.01-0.436,0.129-0.424-1.146-0.391
		c-0.264,0.013-0.624-0.004-0.889,0.009c0.14,0.078,0.281,0.164,0.442,0.156c0.006,0.161-0.014,0.146-0.008,0.304
		c-0.319,0.01-0.75,0-1.072,0.01c-0.848-0.208-0.219-0.524-1.577-0.627c-1.366-0.048-2.191,0.167-3.54,0.028
		c-1.379-0.028-1.035-0.706-2.771-0.889c-1.593-0.09-3.288-0.042-5.502-0.006c0.063,0.504,1.508,0.23,2.583,0.348
		c-0.448-0.054-1.037,0.08-1.491,0.066c-1.603-0.046-2.303,0.148-3.352,0.374c0.039-0.003,0.787,0.337,1.104,0.299
		c0.477,0.042,1.535-0.165,2.46-0.123c-0.229,0.118-0.512,0.218-0.987,0.276c-0.637-0.019-1.082-0.128-2.359-0.036
		c-0.723,0.1-1.995-0.048-2.033,0.352c0.077,0.386,2.618,0.209,3.809,0.287c0,0-0.489,0.249-0.81,0.226
		c-0.841-0.009-2.191-0.068-2.618-0.081c-0.395-0.052-0.916,0.018-1.312,0.081C226.31,114.012,227.905,113.686,230.983,113.455z
		 M206.396,119.718c-0.313-0.024-0.716,0.021-1.02,0.118c0.188,0.001,0.104,0.166,0.225,0.311c-0.025-0.006-0.084-0.018-0.112-0.034
		c-0.033,0.257-0.065,0.289-0.094,0.545c0.662,0.156,1.187,0.168,2.091,0.074c0.164,0.001,0.1,0.149,0.206,0.278
		c0.377-0.113,0.904-0.102,1.296-0.137c-0.109,0.238,0.368,0.353,0.983,0.263c1.752-0.12,4.796-0.735,6.422-0.874
		c0.313,0.042,0.723,0.002,1.042,0.005c-0.492,0.211-2.132,0.28-2.259,0.646c-0.069,0.128,0.025,0.188-0.044,0.314
		c-0.312,0.082-0.581,0.214-0.66,0.368c-0.005,0.387,2.282-0.025,2.805-0.069c0.229-0.05,2.178-0.217,3.571-0.413
		c-0.254-0.792,0.833-1.354,0.925-2.017c0.139-0.637-0.067-0.72-1.674-0.646c-0.616,0.132-1.11,0.23-1.783,0.383
		c-1.674-0.007-2.492-0.07-3.894,0.017c-0.546,0.026-0.954,0.023-1.562,0.171c0.477,0.491,1.458,0.273,2.982,0.158
		c-0.058,0.312-0.029,0.361-0.089,0.67c-2.243,0.279-2.753-0.491-4.694-0.235c0.044,0.167-0.098,0.197-0.056,0.366
		c0.316,0.213,1.008,0.282,1.659,0.356C209.925,120.78,208.924,119.409,206.396,119.718z M204.907,116.485
		c-0.221,0.066-0.419,0.283-0.641,0.351c0.674,0.082,1.074-0.146,2.936-0.357c-0.192,0.058-0.264,0.289-0.063,0.333
		c-1.114,0.323-1.733,0.31-2.595,0.649c0.708,0.155,1.014,0.066,2.235-0.041c1.243-0.241,2.276-0.441,2.78-0.201
		c1.577-0.176,2.451-0.154,4.003-0.288c2.018-0.12,1.666,0.517,3.782,0.389c0.618-0.137,1.516-0.086,1.616-0.509
		c0.086-0.467-1.649-0.418-2.316-0.584c0.244-0.057,0.508-0.229,0.731-0.351c-0.444-0.027-1.273-0.528-2.478-0.418
		c-0.473,0.002-0.848,0.307-1.32,0.343c-0.946,0.106-0.708-0.497-2.447-0.396c-0.604,0.165-1.027,0.302-1.731,0.415
		c-0.979,0.016-1.339-0.221-3.104-0.134c-1.048,0.189-1.65,0.386-2.716,0.557C203.509,116.755,203.743,116.583,204.907,116.485z
		 M233.032,116.583c0.106-0.156,0.052-0.202,0.031-0.391c-0.925,0.106-0.166,0.015-1.15,0.051c-1.726,0.095-4.802,0.344-5.779,0.643
		c0,0,5.15,0.041,5.548,0.052C232.389,116.951,233.052,116.797,233.032,116.583z M213.561,117.509
		c-0.76-0.059-1.021-0.115-1.947-0.043c-0.312,0-2.405,0.755-0.847,0.52C212.137,117.865,213.055,117.789,213.561,117.509z
		 M205.042,122.666c0.472-0.035,1.287-0.031,1.366-0.543c0.031-0.302-0.35-0.2-0.523-0.404c-1.341,0.163-2.145,0.568-2.555,1.118
		C203.949,122.755,204.207,122.763,205.042,122.666z M232.501,120.507c0.035-0.565-2.091-1.027-3.696-0.883
		c-2.055-0.052-1.791,0.771-2.749,0.857c-0.154,0.033-1.053,0.137-1.208,0.541c0,0,5.15,0.517,5.773,0.587
		C231.92,121.55,232.426,121.072,232.501,120.507z M320.941,186.825c-0.979-0.074-1.877-0.146-2.854-0.234
		c-0.946-0.311-1.654-0.503-2.195-1.316c-0.161,0.064-0.365,0.289-0.348,0.468c0.163,0.403,3.705,2.129,4.361,2.207
		c0.147-0.047,1.091-0.322,1.077-0.691C320.887,187.178,320.97,186.946,320.941,186.825z M326.083,186.917
		c0.033-0.244-0.54-0.53-0.716-0.771c-0.837,0.192-1.979,1.872-1.944,2.24c-0.004,0.377,0.607,0.886,1.569,0.92
		c1.043,0.164,2.013-0.31,1.979-0.748c-0.026-0.142-0.022-0.356-0.046-0.499C324.776,187.831,326.19,187.56,326.083,186.917z
		 M314.4,177.561c1.166,0.813,4.042,2.427,5.591,2.565c0.62,0.114,1.035,0.014,1.275-0.296
		C319.171,178.766,317.332,177.405,314.4,177.561z M108.51,173.044c0.372-0.377,0.699-0.715,0.908-0.953
		c-0.1-0.017-0.162-0.021-0.2-0.021C108.984,172.396,108.745,172.713,108.51,173.044z M327.44,290.347
		c-0.466,0.027-1.075,1.064-1.185,2.163c0.034,0.24,0.635,0.03,0.867-0.016c0.456,0,0.985-1.095,1.166-1.414
		c-0.054-0.181,0.028-0.558,0.008-0.748C328.073,290.388,327.669,290.326,327.44,290.347z M270.878,145.065
		c-1.023-0.516-3.167-0.651-3.185,0.156c0,0,1.322,0.665,1.477,0.693C270.182,145.946,270.321,145.375,270.878,145.065z
		 M289.019,266.479c0.082,0.442,0.633,1.489,1.273,1.628c-0.031-0.198,0.071-0.606,0.104-0.815c0.383,0.23,0.47,0.04,1.259,0.007
		c1.164,0.045,3.689-0.261,4.703,0.32c0.343,0.29,0.228,1.3,1.249,1.315c1.174-0.034,1.043-1.768,2.38-1.805
		c0.396-0.006,0.567,0.508,1.045,0.5c0.546,0.016,1.123-0.387,1.854-0.794c1.281,0.01,2.547-0.016,3.794,0.017
		c-0.77-0.946-1.595-1.373-2.578-2.087c0.113,0.094,0.23,0.208,0.315,0.268c-1.785-0.954-2.422-2.592-5.793-2.661
		c-1.185,0.012-1.751,0.402-3.114,0.387c-0.71,0-1.478-0.72-2.519-0.718c-0.232-0.017-0.831,0.479-0.831,0.701
		c-0.058,0.444,0.891,1.119,1.368,1.119c-0.041,0.595,0.078,1.503,0.734,2.128c-1.311,0.593-2.259,0.098-4.717,0.094
		C289.473,266.16,289.176,266.483,289.019,266.479z M272.546,131.801c-1.105-0.055-3.249,0.643-2.103,0.742
		C271.648,132.598,272.222,132.269,272.546,131.801z M276.265,241.024c-0.39,0.011-1.308,0.504-1.48,0.792
		c0.469-0.029,1.69,0.116,2.761,0.021C277.341,241.659,276.981,241.109,276.265,241.024z M257.173,137.452
		c-0.119,0.289,0.623,0.663,1.927,0.675C258.474,137.865,258.385,137.282,257.173,137.452z M276.415,246.765
		c0.014,0.587,0.006,1.887,1.073,1.924c0.162-0.037,0.491-0.358,0.535-0.504c-0.075-0.516-0.3-1.297-1.179-1.418
		C276.74,246.775,276.522,246.78,276.415,246.765z M279.561,242.259c-0.085,0.227,0.297,0.86,0.539,0.812
		C279.932,242.902,279.686,242.461,279.561,242.259z M292.447,258.397c0.01-0.223,0.016-0.683-0.004-0.906
		c-0.336,0.426-1.262,1.103-2.091,0.893c-0.027,0.148,0.012,0.456,0.008,0.606c0.102,0.014,0.31-0.006,0.415,0.006
		C291.169,258.99,292.133,258.695,292.447,258.397z M277.472,267.064c-0.025,0.589,0.839,1.511,1.704,1.525
		c1.291,0.008,2.284-0.396,3.507-0.598c-0.056-0.309-0.286-0.718-0.961-0.916c0.064,0.031,0.157,0.158,0.219,0.198
		c-0.466-0.162-2.126-0.805-3.401-0.819C278.222,266.455,277.462,266.761,277.472,267.064z M261.479,257.749
		c0.037,0.143,1.43,0.027,1.507,0c0.143-0.375,0.02-1.145-0.004-1.527c-0.081,0.018-0.24-0.094-0.323-0.094
		c-0.04-0.031-0.174,0.032-0.218,0c0.046,0.167,0.016,0.534,0.002,0.708C262.208,256.858,261.516,256.993,261.479,257.749z
		 M288.789,261.503c-0.532-0.242-1.234-1.703-2.428-2.03c-0.393-0.032-1.188-0.102-1.591-0.111c-0.063-0.155-0.002-0.556-0.002-0.71
		c-2.404-0.048-5.069-1.129-6.587-2.57c-0.174-0.133-1.112-1.152-1.818-1.227c-3.562-0.034-5.698-2.491-10.49-2.585
		c-4.896,0.021-7.02,1.603-8.811,4.457c0.228-0.071,0.733,0.012,0.975,0.002c1.101-1.027,3.93-2.392,6.013-2.435
		c0.393-0.023,1.168,0.035,1.51,0.31c-0.237,0.228-0.409,0.672,0.213,1.122c1.061,0.006,1.994,0.071,3.112,0.01
		c1.489,0.069,2.211,1.515,3.754,1.541c0.625,0,1.329-0.275,2.241,0.111c0.302,0.165,0.273,0.916,1.178,0.916
		c0.258,1.601,1.964,1.456,3.626,2.145c-0.032,0.385-0.661,0.916-1.052,0.916c0.056,0.139,0,0.462,0,0.615
		c2.006,0.037,3.711,0.704,6.156,0.728C286.004,262.749,288.009,262.719,288.789,261.503z M310.352,266.963
		c0,1.029,1.364,1.113,2.526,1.123c0.47-0.018,1.351,0.012,1.612-0.6c-0.224-0.452-2.794-1.099-3.034-1.114
		C311.224,266.372,310.314,266.594,310.352,266.963z M315.472,433.878c-0.313,0.028-0.317,0.393-0.908,0.56
		c-0.091,0.228,0.069,0.291-0.158,0.387c0.187-0.077,0.377-0.058,0.527-0.119c0.539-0.102,0.837-0.256,1.206-0.629
		c0.626-0.004,1.743-0.416,2.017-0.829c0.065-0.172,0.058-0.123,0.125-0.297c-0.438,0.194-0.617,0.093-1.345,0.321
		C316.397,433.388,315.986,433.741,315.472,433.878z M315.423,433.468c-0.971,0.287-1.664,0.446-2.656,0.591
		c-0.17,0.065,0.063,0.281,0.477,0.231c-0.29,0.429-0.837,0.444-1.279,0.782c0.17-0.069,0.129,0.093,0.31,0.11
		c1.147-0.462,1.859-0.912,3.036-1.414C315.375,433.593,315.414,433.652,315.423,433.468z M313.19,183.328
		c-0.063-0.004-0.167-0.023-0.258-0.043C313.009,183.498,313.122,183.863,313.19,183.328z M141.76,184.226
		c1.208,0.522,3.669,1.572,5.579,1.338c0.229-0.072,0.512-0.044,0.741-0.119c-0.038-0.166,0.081-0.386,0.079-0.56
		c-1.932-1.316-3.571-2.374-6.828-2.713c-0.562-0.013-1.016-0.609-1.941-0.463c-0.383,0.08-0.806,0.357-1.114,0.5
		c0.083,0.069,0.196-0.054,0.302-0.054c0.406-0.006,0.704,0.033,1.108,0.024c-0.117,0.15-0.469,0.541-0.86,0.687
		c0.248,0.72,2.208,0.875,3.819,0.613C142.401,183.641,141.984,183.852,141.76,184.226z M312.844,183.252
		c0,0.009,0,0.017,0.002,0.022c0.032,0.005,0.056,0.005,0.086,0.01C312.886,183.17,312.851,183.1,312.844,183.252z M127.451,170.813
		c-0.202-0.87,0.164-0.846,0.577-2.21c-1.023,0.689-0.348,0.07-1.479,0.455c-0.269,0.166-0.771,0.313-0.904,0.761
		c-0.192,0.812,0.344,1.25,1.318,1.043c-0.264,0.889-0.143,1.388,0.506,1.833c0.833-0.695,0.336-1.313,0.639-2.075
		C128.001,170.755,127.43,170.985,127.451,170.813z M131.531,179.061c0.035-0.231,0.395-0.438,0.467-0.662
		c0.077-0.274-0.196-0.311-0.215-0.598c0.245-0.529,0.323-0.884,0.264-1.255c-0.129,0.304-0.571,0.821-1.07,0.954
		c-0.438,0.175,0.52-0.739,0.562-0.776c-0.696,0.126-0.87-0.192-1.514-0.005c0.025,0.148-0.006,0.323-0.1,0.449
		c0.292,0.368,0.327,0.929,0.622,0.814c0.473-0.018,0.395,0.449,0.97,0.474c-0.075,0.091-0.385,0.352-0.406,0.703
		c-0.164,0.432,0.239,1.042,0.773,0.867C132.717,179.899,131.482,179.284,131.531,179.061z M131.36,171.619
		c-1.368,0.201-1.754,0.226-2.02,1.569c0.839-0.675,0.402-0.309,1.495-0.401c-0.231,0.299-0.127,0.72-0.25,1.104
		c0.056-0.004,0.51,0.983,1.108,0.871c0.387-0.094,0.608-0.298,0.679-0.702C132.643,172.956,130.825,173.182,131.36,171.619z
		 M386.665,334.086c-0.879,5.942-4.09,9.486-6.483,13.149c-0.518,0.787-0.777,1.002-1.367,1.807
		c-0.896,1.256-1.672,1.62-2.479,2.519c-1.208,1.462-0.125,1.964-0.423,3.793c-0.216,1.342-1.376,5.388-1.603,6.318
		c0,0.367-0.371,0.77-0.506,0.966c-0.404,0.448-1.166,1.313-1.228,1.896c-0.206,0.678-0.648,2.271-0.841,2.54
		c-1.422,1.928-1.902,2.697-3.23,4.379c-0.413,0.53-0.479,1.375-0.685,1.637c-0.615,0.981-2.272,2.346-3.532,2.578
		c-1.438,0.354-2.549,0.521-3.675,1.243c-0.579,0.294-0.694,0.7-0.91,0.938c-2.233,2.049-3.822,1.479-5.627,3.757
		c-0.783,1.104-1.823,1.249-2.535,1.932c-1.274,1.093-0.845-0.405-1.011,0.898c-0.313,1.909-0.54,3.786-0.906,5.516
		c-1.65,1.072-2.693,2.284-3.791,3.796c0.005-0.014,0-0.03-0.004-0.04c-0.712,0.998-0.006-0.5-0.891,0.527
		c-1.852,2.01-3.902,3.672-5.666,5.55c-2.017,2.282-3.306,5.345-7.051,6.106c-1.366,0.222-3.002-0.044-3.55,0.048
		c-1.116,0.216-1.995-0.348-3.338-0.113c-0.23,0.037-0.692,0.212-0.729,0.423c-0.1,0.616,1.009,0.62,1.291,0.779
		c0.537,0.42,0.414,0.779,0.585,1.689c0.145,0.65,1.509,0.25,1.26,1c-0.159,0.827-0.227,1.176-0.768,1.618
		c-0.946,1.003-1.648,1.382-2.535,2.138c-1.72,1.202-3.247,1.256-5.371,2.059c-1.41,0.518-3.968,0.312-4.895,0.983
		c-1.266,0.873-0.283,1.494-1.025,2.362c-0.075,0.227-0.121,0.302-0.123,0.54c-0.188,0.312-1.533,0.835-2.078,0.96
		c-1.783,0.237-1.908-0.492-3.659-0.177c-0.658,0.012-0.966,0.414-0.985,0.77c-0.119,0.812,0.648,2.005,1.344,1.862
		c0.393-0.083,1.031-0.45,1.26-0.548c0.354,0.24,0.76,0.06,0.643,0.401c-0.023,0.432-0.841,0.737-0.987,0.801
		c-1.065,0.167-1.271-0.31-2.091-0.125c-0.091,0.548,0.339,0.643,0.762,0.633c-1.72,1.2-1.922,2.055-2.697,3.352
		c-0.367,0.538-2.84-0.158-3.37,0.01c-1.439,0.338-2.619,1.152-2.852,1.847c-0.275,1.696,3.475,0.409,3.249,1.758
		c-0.267,1.088-2.277,1.57-3.653,2.24c-0.688,0.469-0.589,0.852-1.22,1.414c-0.734,0.625-1.985,0.655-2.797,1
		c-1.108,0.645-1.485,0.652-1.785,1.811c-0.058,0.633,0.556,0.657,1.033,0.639c1.347,0.23,0.831,1.7,1.806,1.924
		c1.592,0.452,3.565,0.379,5.561,0.365c-0.444,0.226-0.803,0.293-1.279,0.313c-1.186,0.21-3.255,1.101-4.034,1.204
		c-0.295,0.004-0.587,0.062-0.872,0.137c-0.229,0.071-0.593,0.182-0.825,0.244c-0.764,0.039-1.43,0.247-2.218,0.329
		c-1.82,0.271-0.93-0.538-2.211-0.613c-1.139,0.04-3.144,0.754-2.816-0.335c-0.51,0.111-1.065,0.081-1.555,0.187
		c-0.673,0.056-0.746,0.01-0.81-0.313c-2.384,0.24-2.805-0.058-3.881-0.462c-0.296-0.046-0.661-0.131-0.687-0.26
		c0.165-0.548,1.376-0.252,1.693-0.721c-0.235-0.041-0.416-0.041-0.64-0.116c0.305-0.242,0.593-0.272,0.691-0.641
		c0.129-0.848-2.124-0.51-2.039-1.252c0.072-0.289,0.131-0.229,0.076-0.518c0.141-0.825-0.966-2.001-0.887-2.727
		c0.187-0.677,1.91-0.855,2.227-1.823c0.009-0.506-0.904-0.66-1.031-1.354c-0.039-0.212-0.154-0.387,0.052-0.425
		c0.026,0,0.111-0.008,0.088-0.008c0.039-0.387,0.456-0.543,0.854-0.535c1.549-0.131,0.92,0.708,2.174,0.571
		c1.545-2.189,2.939-4.514,4.437-6.833c0.058-0.36,0.097-0.458,0.107-0.818c-0.232,0.063-0.565,0.016-0.806,0.075
		c-0.696,0.264-0.881,0.579-1.42,0.712c-0.76-0.01-0.398-1.312-0.363-2.031c0.098-1.091,0.76-1.553,1.2-2.634
		c0.591-0.069,0.854-0.229,0.944-0.424c-0.022-0.435-0.471-0.598-0.471-0.598c-0.319-0.002-0.353-1.549-0.231-2.032
		c0.177-1.429,1.589-2.966,2.501-3.842c0.434-0.534,0.758-1.389,1.208-1.851c0.295-0.236,0.716-0.264,0.882-0.516
		c0.764-1.564,0.919-2.655,1.635-4.26c0.183-1.639,0.262-3.287,0.4-5.074c-0.442-1.189,0.718-2.255,0.781-3.4
		c0.262-2.787,1.827-4.361,2.095-6.869c0.014-0.218,0.062-0.454,0.054-0.672c0.031-0.514,0.595-1.928,0.886-2.68
		c0.08-1.235,0.13-2.284,0.263-3.369c0.091-1.146,1.086-3.305,1.209-4.519c0.065-0.775-0.15-5.466-0.347-6.38
		c-0.835-1.964-2.184-2.903-4.042-3.721c-1.464-0.444-2.58-0.331-3.647-1.146c-1.21-1.027-1.772-1.216-3.159-1.549
		c-2.864-0.637-4.155-1.662-5.989-3.267c-0.782-0.65-0.323-1.537-0.327-2.663c0.029-1.363-1.4-1.924-1.853-3.259
		c-0.775-2.071-1.308-4.086-1.991-5.968c-0.708-2.104-1.321-3.217-2.192-4.917c-0.331-0.557-1.066-0.47-1.358-0.612
		c-0.724-0.677-0.991-2.023-1.222-2.533c-0.347-0.557-1.235-0.442-1.57-0.708c-1.146-0.972-2.607-2.903-2.596-4.494
		c0.032-1.15,0.887-2.532,1.211-2.814c1.012-1.461,2.84-1.888,3.352-3.34c-0.976-0.559-1.045-0.081-1.598-0.067
		c-1.533-0.063-1.69-1.822-1.674-3.191c0.06-2.189,1.57-3.968,1.182-8.296c2.949-0.11,3.701-2.602,4.56-4.198
		c1.266-2.188,3.911-1.476,4.654-4.121c-0.412-0.105-1.061-0.74-1.053-0.954c0.079-0.208,0.325-0.587,0.431-0.782
		c0-0.124-0.012-0.37,0.004-0.493c-0.016-0.81-0.573-1.559-0.621-2.14c0.04-1.167,0.534-1.562,0.565-2.543
		c-0.063-2.122-1.876-1.726-1.908-3.505c0.018-0.164,0.135-0.47,0.179-0.622c-0.069,0.01-0.188,0.118-0.252,0.101
		c-0.173-0.139-1.21-0.535-1.214-0.756c0.032-0.291,0.492-0.7,0.658-0.985c-1.213-0.573-0.506-2.795-1.647-2.803
		c-0.815,0.024-3.727,2.158-3.811,2.581c0.04,0.293,0.714,0.809,0.871,0.886c-0.229,0.996-0.994,1.535-1.636,1.492
		c-1.751-0.019-2.806-1.819-3.676-2.641c-0.816-0.691-2.704-0.099-3.257-0.093c-0.163,0.016-0.573-0.444-0.545-0.587
		c-1.574-0.377-1.649-1.491-1.955-2.078c-0.41-0.631-4.063-2.678-4.144-2.662c-0.153,0.221-0.165,0.746,0,0.885
		c-0.27,0.02-0.834-0.06-1.09,0.004c-1.637-1.021-0.545-2.299-1.089-3.869c-0.319-0.909-1.025-1.323-1.42-1.688
		c-1.791-1.642-3.574-2.461-4.265-4.881c-0.158,0.024-0.502,0.038-0.656,0c-0.785,0.04-1.52,0.471-2.076,0.494
		c-2.083-0.083-3.184-1.06-4.59-1.693c-2.145-0.871-3.58-0.401-5.787-1.41c-3.446-1.569-4.231-5.615-7.165-6.978
		c-0.162,0-0.499,0.008-0.656,0c-0.954-0.502-1.749-0.795-2.383-0.795c-1.949,0.045-2.247,1.953-4.109,1.982
		c-0.853-0.012-1.835-0.753-2.161-0.891c-0.792-0.391-1.833-0.202-2.468-0.194c-1.364-0.069-4.773-2.342-5.991-2.881
		c-1.15-0.461-1.824,0.126-3.087-0.19c-1.462-0.415-1.941-1.563-3.272-2.268c-1.435-0.593-2.132-0.391-3.471-0.974
		c-0.285-0.188-0.874-0.502-1.152-0.687c-1.272-1.15-4.269-1.822-4.787-3.125c-0.866,0.006-1.495-1.295-1.539-1.94
		c0.054-1.103,1.139-1.64,1.054-2.746c-0.025-1.306-0.874-1.729-1.014-2.239c-1.22-3.562-3.513-6.663-5.668-8.785
		c-1.052-0.958-2.703-1.358-3.607-2.237c-0.853-0.816-0.12-1.708-0.546-2.767c-0.979-1.712-3.908-1.77-3.894-4.1
		c-0.883-0.145-0.877-0.208-1.093,0.035c-1.314-1.252-2.199-2.182-3.255-3.202c-0.879-0.872-0.591-2.438-1.351-3.241
		c-0.864-0.87-0.71-2.9-1.335-3.217c-1.662-0.686-3.215-0.542-4.34-1.649c-0.225,0.305-0.238,0.996-0.244,1.209
		c-0.029,1.979,0.825,3.131,1.52,4.667c0.658,1.392,1.858,1.279,2.828,2.239c1.308,1.277,1.462,2.193,1.933,3.797
		c0.693,2.207,2.457,3.113,3.207,5.137c0.712,2.311,1.247,4.713,3.069,5.875c0.831-0.781,1.962,1.016,1.976,1.603
		c-0.048,0.362-0.487,1.423-0.721,1.458c-0.162-0.012-1.593-1.722-1.61-2.022c-1.862-0.032-2.689-2.176-3.792-2.876
		c-0.631-0.348-0.783-0.442-0.972-0.841c0.02-0.819,0.035-1.856,0.058-2.481c-1.039-1.029-1.762-2.022-2.77-2.965
		c-1.283-1.25-3.407-0.919-4.377-2.311c0.398-0.01,2.732,0.285,1.943-0.896c-1.383-1.969-2.909-3.862-4.496-4.863
		c-1.052-0.681-0.951-3.221-1.437-4.329c-0.802-1.598-1.53-2.052-2.144-4.196c0.01-0.169,0.042-0.468,0.037-0.643
		c0.052,0,0.139-0.032,0.187-0.006c-1.414-2.706-5.813-4.307-8.961-5.267c-0.728-0.298-0.445-1.293-0.581-1.911
		c-1.147-3.056-3.073-1.618-2.332-5.287c-1.876-0.197-3.35-3.704-4.575-6.137c-0.389-0.719,0.56-1.366,0.997-1.708
		c-0.712-1.807-0.385-2.87-0.968-4.938c-0.518-2.034,2.186-10.208,2.46-11.994c0.098-1.29-1.722-1.47-1.648-2.695
		c0.075-0.302,0.999-0.44,1.281-0.583c1.266-0.177,1.97,0.069,2.266,0.607c0.47-0.443,1.256-1.246,1.372-1.699
		c0.067-0.573-0.666-0.578-0.906-1.132c-0.312-0.021-0.575-0.094-0.866-0.202c-0.812-0.475-2.73-0.2-2.924-0.739
		c-0.537-1.337-3.336-0.122-3.555-1.155c-2.748,0.462-2.468-0.95-2.894-2.077c-0.046-0.168-1.868-0.6-1.868-0.6
		c-0.856-0.216,0.258-0.975-0.46-1.424c-0.44-0.2-0.916-0.072-1.556-0.068c-0.966-0.074-0.814-3.344-0.695-4.011
		c0.048-0.311-0.323-0.348-0.281-0.605c-0.26,0.058-0.556,0.021-0.725,0.225c-1.235,0.256-2.672-0.183-2.628-0.748
		c0.084-0.247,0.121-0.482,0.171-0.739c0.135-0.798-0.51-0.384-1.883-0.182c-0.854,0.29-1.05-0.07-1.035-0.381
		c0.127-0.394,1.031-0.725,1.212-1.101c0.042-0.219,0.111-0.4,0.154-0.619c-1.314,0.47-1.039,0.939-1.958,1.137
		c-0.308,0.072-0.896-0.126-0.8-0.423c0.083-0.593,0.679-0.914,0.906-1.182c-0.414-0.223-0.7-0.268-1.087,0.028
		c-0.966,0.308-1.058,0.252-1.729-0.094c-0.361,0.446-0.552,0.994-1.173,1.135c-1.328,0.393-1.339-0.684-2.388-0.761
		c-1.389-0.37-3.246,0.579-4.727,0.411c-1.014,0.444-2.005,0.724-2.975,1.263c-1.641,0.273-3.251,0.743-3.507-0.306
		c-0.419,0.322-0.985,0.705-1.481,1.081c5.221-7.135,10.964-13.862,17.184-20.11c1.891-0.194,5.245-1.126,6.686-1.763
		c0.633-0.163-2.062-0.098,2.172-1.684c0.544-0.314,0.687-1.342,2.051-0.999c0.777,0.236,2.422-1.219,3.142-1.559
		c2.038-1.066,2.646-1.489,4.937-2.328c0.177,0.44,0.435,0.323,1.041,0.148c1.543-0.46,1.27-1.416,2.748-1.851
		c0.459-0.126,1.816,1.092,3.114,0.696c1.481-0.456,1.749-1.193,3.165-1.812c0.173,0.414,0.648,0.764,1.453,0.619
		c1.221-0.413,0.569-1.01,2.041-1.33c4.704-1.161,7.805,0.139,12.918-0.987c4.743-1.177,4.308-1.306,6.358-0.005
		c-0.577,0.298-3.055,0.561-3.163,1.016c-0.031,0.148-0.202,0.766,3.174,0.112c1.93-0.357,2.968-1.003,4.767-1.14
		c1.858-0.25,3.644-0.561,5.55-0.807c0.417,0.004,0.853,0.085,1.266,0.132c1.499,0.196,1.504,1.177,3.397,1.008
		c0.4-0.022-0.425-0.927-0.329-1.276c0.329-1.521,4.573-0.777,4.456-2.265c-1.127,0.441-3.519,1.172-4.933,1.279
		c-0.718,0.139-1.077,0.035-1.044-0.326c0.275-0.96,5.396-1.785,7.112-2.065c0.949,1.577,4.677,1.955,9.713,1.488
		c5.312-0.483,7.928,0.227,9.598,0.19c0.09-1,0.787-1.458,2.464-1.598c1.485-0.079,3.923,0.071,4.194,0.3
		c0.704,0.541-1.849,2.086,1.31,1.523c0.287-2.234,6.26-1.588,5.204-3.389c-0.787,0.191-1.424,0.438-2.012,0.529
		c0,0,0.754-1.064,0.835-1.364c-0.081-1.54-6.314-0.25-6.229-1.73c0.023-0.652,1.227-0.537,1.285-1.048
		c0.063-0.516-0.703-0.501-0.658-1.014c0.029-0.657,1.502-0.587,2.636-0.771c-0.079-0.472-0.622-0.747,0.614-0.916
		c0.046-0.292,0.063-0.474,0.104-0.638c-1.458-0.427-0.741-0.925-1.333-1.555c0.06-0.239-0.01-0.328,0.048-0.565
		c0.664-0.029,1.485-0.01,2.082-0.098c-0.164,0.02,0.039-0.202,0.025-0.327c-0.004-0.047,0.593-0.583,2.483-0.602
		c3.188-0.083,5.585,0.262,8.912,0.148c0.013,0.188-0.027,0.246-0.018,0.435c-0.06,0.062-1.664,0.533-1.664,0.533
		c-1.252,0.658-2.476,1.388-5.294,1.49c-2.033,0.077-1.995-0.471-2.58,0.331c0.338-0.044,0.852,0.004,1.191-0.044
		c-0.25,0.466-0.708,0.623-1.449,0.913c2.287,0.196,3.526,0.832,3.501,1.861c0.096,0.631,2.747,0.485,2.749,1.32
		c-0.025,0.561-1.826,0.963-2.396,1.12c1.139,0.57,3.184,0.18,4.696,0.515c-0.319,0.11-0.696,0.352-0.964,0.559
		c2.032,0.386,2.066,0.813,2.132,1.692c2.984-0.094,1.052-1.953,3.848-1.987c0.781-0.014,3.392,1.186,3.505,1.526
		c-0.062,0.724-1.645,0.474-1.633,1.146c0.032,0.541,1.9,1.762,4.078,0.351c1.391-0.892,1.143-1.497,1.878-2.204
		c0.504-0.45,2.625-0.357,2.657-0.873c0-0.469-1.431-0.525-1.429-1.193c-0.127,0-0.262,0-0.385,0
		c-0.733-0.019-2.318-0.447-2.816-0.757c-1.501-0.077-2.996,0.056-4.492-0.014c-0.525-0.447-1.816-0.478-2.043-1.064
		c1.258-0.136,2.599,0.008,4.198,0.092c-0.002-0.188,0.012-0.278,0.006-0.459c-0.916-0.195-5.117-0.34-5.117-0.34
		s-1.332-0.544-1.364-0.933c0.004-1.037,0.46-1.27,1.895-1.583c0.702-0.206,0.366-0.755,0.662-0.961
		c1.913-0.714,4.248-1.252,7.367-1.244c0,0,2.959,0.372,3.034,0.376c-0.935,0.663-3.936,0.647-3.95,1.717
		c0.002,0.259,0.341,0.346,0.733,0.346c-0.175,0.296,0.003,0.625,0.003,0.625c-0.003,0.349-0.219,0.591,0.93,0.605
		c0.565,0,1.835-0.33,1.849-0.676c0-0.435-0.933-0.509-0.931-0.944c0.069-1.277,6.137-1.643,9.812-1.458
		c2.433,0.068,3.749,1.256,3.765,2.085c0.043,0.165-0.352,0.641,0.039,0.688c0.47-0.026,0.954-0.366,1.816-0.263
		c1.046,0.059,1.435,0.446,2.145,0.451c1.554,0.128,1.956-0.792,3.608-0.651c1.788,0.148,5.608,0.5,6.872,0.997
		c2.072,0.625,2.772,1.897,5.801,2.208c0.785,0.044,1.599,0.224,2.261,0.21c0.964,0.11,3.247,0.252,3.049,0.997
		c2.479,0.588,3.895,1.171,6.394,1.684c0.086,0.226,0.069,0.358,0.086,0.602c0.444,0.019,1.091,0.028,1.507,0.18
		c1.271,0.133,1.878,0.632,2.614,1.166c-1.287-0.078-2.388-0.258-3.032,0.129c0.922,0.092,1.695,0.268,2.677,0.39
		c0.389,0.073,1.093,0.283,1.375,0.495c-1.371,0.137-2.073-0.118-2.809,0.489c0.869,0.247,1.299,0.607,2.534,0.591
		c0.365,0.896,2.775,1.568,4.619,1.871c0.315,0.743,0.869,1.372,2.143,1.57c1.991,0.302,2.243-0.308,3.098,0.627
		c0.406,0.196,1.208,0.355,1.593,0.415c1.691,0.238,2.403,0.537,2.483,1.226c0.045,0.563-1.396,0.417-2.483,0.258
		c-0.016,0.188,0.04,0.312,0.081,0.496c0.024,0.126-0.146,0.374-1.854,0.188c0.058,0.477,0.019,1.02-0.978,0.926
		c-4.482-0.65-4.867-3.205-9.304-3.76c-0.569-0.059-1.682,0.172-1.751,0.215c0.847,0.25,1.104,0.23,1.818,0.289
		c0.048,0.163,0.012,0.294,0.062,0.459c-0.547,0.035-1.039-0.028-1.354-0.154c0.06,0.204,0.073,0.367,0.075,0.584
		c0.337,0.062,0.841,0.086,1.179,0.134c0.258,0.519,1.592,1.466,2.176,1.723c1.784,0.419,2.322,0.074,2.588,0.777
		c0.444,0.056,1.083,0.202,1.531,0.189c0.012,0.289,0.045,0.516,0.11,0.798c0.03,0.302,1.623,0.659,1.737,1.122
		c0.022,0.432-0.789,0.983-1.126,1.44c-1.71-0.25-7.596-1.925-8.653-2.592c-0.398-0.029-1.02,0-1.383-0.147
		c1.685,1.068,6.731,2.438,7.027,3.59c0.008,0.302-0.539,0.424-0.854,0.393c-0.391-0.033-0.756-0.497-0.972-0.602
		c-2.785-0.814-4.401-0.832-6.837-1.651c-2.342-0.723-7.822-1.214-6.428-2.412c-3.149-0.879-4.692-1.734-7.493-2.602
		c-0.438,0.225-1.133,0.533-1.84,0.467c-0.961-0.079-0.923-0.327-1.623-0.396c-1.15-0.015-1.674,0.551-2.811,0.43
		c-1.093-0.085-4.075-0.761-4.164-1.358c0.033-0.435,2.423-1.013,3.736-0.862c1.384,0.05,2.624,0.156,4.062,0.256
		c0.831,0.042,3.024-0.076,4.175-0.24c-0.381-0.167-1.743-0.608-1.751-0.953c-0.014-0.673,1.658-0.323,2.28-0.406
		c0.833-0.334,2.658-0.898,2.612-1.505c-0.21-1.007-6.2-3.23-8.12-3.447c-1.193-0.098-1.707,0.247-2.937,0.247
		c-0.31-0.066-0.694-0.481-0.777-0.497c0.029-0.439,1.715-0.336,2.191-0.336c-0.885-0.413-5.94-2.256-7.016-2.447
		c-1.201-0.003-2.54,1.27-4.301,1.172c-1.199-0.078-0.83-0.566-0.789-0.875c-1.296-0.084-3.388-0.181-5.685-0.259
		c0.666,0.277,1.236,0.539,2.716,0.574c0.051,0.809,0.43,0.696,0.043,1.104c-3.015,0.681-1.634,1.296-1.656,1.654
		c0.057,0.309,2.154,0.742,2.237,1.198c-0.104,0.602-4.803,2.529-5.493,2.047c-1.282-0.884-1.6-0.026-1.157,0.212
		c-1.12,0.01-2.151-0.131-3.215-0.053c-1.292-0.056-2.063-0.869-3.96-0.964c0.187,0.148,0.387,0.522,0.423,1.429
		c-0.094,0.551-3.543,0.829-5.1,0.879c-1.885-0.032-3.078-0.757-4.327-1.031c-0.477-0.041-1.264-0.011-1.737,0.028
		c1.495,1.376,4.683,1.064,8.003,1.464c0,0.261-0.012,0.461-0.008,0.72c-1.553,0.584-2.771,1.804-5.179,1.838
		c-0.742-0.035-1.556-0.009-2.139,0.032c-1.175,0.034,0.094,1.24-2.003,1.082c-8.007-1.096-5.1-0.101-5.817-0.216
		c1.36,0.354,5.029,0.219,5.046,1.057c-0.073,1.218-1.61,0.168-3.28,0.483c-0.754,0.194-2.499,1.999-3.319,2.607
		c-2.343,1.256-3.755,3.185-3.846,5.359c-0.106,1.486,0.264,1.787-0.102,2.376c1.004-0.122,1.466-0.549,2.493-0.617
		c2.205,0.059,3.598,2.898,3.646,4.197c1.502,0.001,2.205-0.832,3.729-0.902c1.427,0.004,3.859,0.874,4.496,1.021
		c4.502,0.85,8.6,1.847,12.413,3.271c2.138,0.318,4.266,0.619,6.403,1.062c2.902,1.021,2.815,2.501,2.878,4.295
		c0.111,1.674,3.845,4.034,6.438,5.395c1.008,0.514,2.062,0.22,3.32,0.146c0.101-0.621,1.186-1.936,1.501-2.268
		c-1.414-1.199-0.119-4.354-3.727-5.584c2.055-0.248,7.782-2.662,7.86-3.731c-0.062-1.812,0.478-3.344-0.486-4.327
		c-1.204-1.09-3.79-1.5-5.177-2.725c1.327-0.213,4.032-0.424,3.605-2.227c-0.243-0.764-3.344-2.202-2.088-2.58
		c3.126-1.033-0.345-1.908-0.411-2.458c-0.037-0.98,1.369-1.282,2.831-1.21c2.786,0.134,4.496,1.129,7.294,1.306
		c0.702,0.03,1.521,0.061,2.097,0.127c2.745,0.164,2.441,1.143,5.127,1.566c0.327,1.958,5.073,1.361,5.728,2.873
		c0.357,1.243-0.194,3.774,1.377,3.948c1.146,0.174,2.526,2.047,4.198,2.202c0.993,0.097,1.833-0.74,2.943-1.112
		c1.632-0.519,3.227-0.605,2.663-1.832c-0.297-0.701,1.36-1.078,1.942-1.304c0.311,0.234,1.409,0.856,1.646,0.88
		c0.571,1.53,4.33,2.165,3.574,3.385c-0.662,1.001,2.392,2.388,3.298,2.691c-0.089,0.499,0.79,1.101,0.837,1.651
		c0.044,0.692-0.841,0.711-1.237,0.87c1.245,0.706,2.521,1.625,4.53,1.877c0.004,0.061-0.022,0.143,0.025,0.177
		c0.313,2.004,4.823,3.152,7.017,3.257c0.121,0.267,0.845,0.466,0.845,0.755c-0.52,1.089-5.301,0.872-7.036,1.309
		c0.071,0.12,0.698,0.369,0.936,0.34c2.235,0.208,6.312-0.207,8.257-0.701c-0.008,0.227,0.102,0.477,0.092,0.701
		c1.068,0.489,0.198,0.855,0.82,0.967c0.976,0.936,1.688,1.608,1.866,3.019c0.144,1.907-6.592,0.951-7.765,2.239
		c-2.517,2.734-6.18,0.755-10.97,0.333c-3.696-0.329-5.735-1.054-9.339-0.37c-2.053,0.432-0.92,1.137-2.243,2.276
		c-2.074,1.602-4.094,0.793-5.289,2.968c2.992-0.235,4.7-2.542,9.014-2.289c2.087,0.142,4.902,0.187,5.109,1.626
		c0.051,1.718-3.32,1.802-3.836,2.425c0.706,0.042,1.566,0.272,2.09,0.379c0.315,2.093,4.765,4.74,7.539,4.992
		c0.633,0.046,2.993,0.377,3.117,1.264c-0.104,0.682-6.392,2.439-6.794,2.451c-1.895,0.457-3.715,2.496-4.344,2.539
		c-0.558-0.077-2.033-1.651-2.106-2.297c-0.075-1.876,3.261-3.066,5.525-3.044c-1.566-0.146-1.428-0.247-1.549-1.378
		c-1.456-0.016-1.327,1.021-2.211,1.533c-0.867,0.401-3.439-0.062-3.915-0.082c-0.24-0.02-0.815-0.03-0.986-0.062
		c0.018,0.07,0.019,0.183,0.012,0.257c0.062,0.042,0.08,0.183,0.072,0.257c0.129,0.166,0.311,0.519,0.481,0.638
		c-0.664,0.875-1.691,1.387-3.09,1.284c-1.212-0.062-1.293,0.139-2.267,0.483c-1.643,1.344-5.209,0.078-5.183,3.601
		c0.05,0.216,0.204,0.755,0.448,0.817c-0.004,0.361,0.603,1.642,1.077,1.646c0.16-0.019,1.095-0.574,1.095-0.574
		c0.01,0.17-0.004,0.456,0.031,0.627c-1.262,0.272-3.036,0.414-3.35,0.117c-2.029,1.208-5.454,0.557-7.53,1.687
		c0.266-0.046,0.771,0.006,1.035,0.034c0.948,0.078,2.055-0.314,2.578,0.096c-1.44,0.42-2.388,0.204-3.901,0.313
		c-0.236-0.061-0.702-0.089-0.939-0.125c-0.219,0.121-0.692,0.421-0.598,0.612c-0.014,0.369,0.964,1.119,0.964,1.119
		c-0.179,0.677-2.239,3.812-2.796,3.836c-0.244-0.004-0.613-0.596-0.754-0.755c-0.123,0.135-0.373,0.332-0.512,0.446
		c0.229,0.823,0.928,1.197,0.991,1.772c-0.037,0.438-2.094,3.669-2.32,3.735c-0.156-0.022-0.408-0.429-0.431-0.571
		c0.001-0.267-0.008-0.751-0.025-1.013c0.02-0.77-1.045-2.095-1.228-3.08c-0.161,0.362-0.083,1.2-0.083,1.2
		c0.062,0.62,0.562,2.311,0.606,3.254c0.021,0.913-0.442,0.952,0.028,1.397c0.186,0.023,0.575-0.071,0.735,0.017
		c0.042,0.239,0.018,0.689,0.025,0.928c0,0.816-0.978,1.119-1.374,1.111c0.437,0.683,1.079,0.74,1.47,0.858
		c-0.181,0.993-0.908,0.905-1.62,0.909c-0.008,0.194,0.043,0.56,0.014,0.752c0.335,0.125,0.95,0.5,1.256,0.679
		c-0.24,0.294-0.782,0.972-1.225,1.018c-1.241,0.205-1.987,1.007-2.632,1.09c-1.309,0.385-1.299,0.792-1.79,1.206
		c0.075,0.04,0.216,0.142,0.293,0.178c-5.063,2.417-10.27,2.764-10.312,9.879c0.094,3.263,2.974,4.167,3.075,7.318
		c-0.011,0.125,0.025,0.372,0,0.489c0.364,1.199,1.336,2.083,1.33,3.927c-0.008,2.097-0.508,3.903-2.359,3.919
		c-1.636-0.085-1.57-1.455-2.179-2.48c-1.396-1.491-2.4-2.035-3.276-3.644c-1.701-3.234-0.415-9.013-5.244-9.09
		c-0.982,0-1.667,1.25-2.383,1.254c-1.999,0.046-3.136-2.271-5.743-2.239c-1.551-0.04-2.08,0.803-2.717,0.775
		c-0.238,0.021-0.748-0.553-0.754-0.771c-1.752,0.411-3.986,0.219-5.851,0.793c1.097,0.307,1.004,0.106,1.516-0.004
		c-0.167,1.406-1.114,2.304,0.206,3.109c-3.128,1.31-5.591-1.879-7.782-1.899c-0.481,0.017-1.148,0.76-1.622,0.787
		c-1.197,0.018-1.786-0.911-3.017-0.946c-3.165,0.086-4.608,2.51-5.945,3.653c-0.872,0.825-1.832,0.105-2.899,0.525
		c-2.432,0.831-3.719,3.462-3.819,6.378c0.023,0.217,0.566,0.758,0.525,0.97c-0.05,0.058-0.233-0.079-0.281-0.033
		c-0.041,0.048,0.027,0.185,0.062,0.233c0.148,0.444,0.431,1.129,0.414,1.562c0.002,1.839-0.773,2.432-1.108,3.942
		c0.018,1.901,0.01,3.68-0.042,5.516c-0.156,0.819,0.654,1.693,0.846,1.967c0.419,0.916-0.183,1.439,0.306,2.37
		c0.421,0.781,1.845,2.178,2.574,2.866c1.904,1.82,1.839,3.405,4.744,4.246c0.962,0.327,1.196,1.174,1.837,1.197
		c2.086-0.045,3.73-1.399,5.979-1.407c1.185,0.006,1.749,0.61,2.064,0.599c0.862-0.044,1.453-1.307,1.525-1.595
		c0.521-1.172,2.257-2.493,2.297-3.988c0.102-2.934,3.926-2.84,6.91-2.84c0.978-0.071,1.882,0.116,2.182,0.297
		c0.327,0.048,2.038,0.202,2.515,0.196c0,0.221,0,0.679,0,0.895c-0.042,1.414-1.833,3.146-1.86,5.086
		c-0.013,1.636-0.624,2.311-1.312,3.294c0.021-0.173-0.039-0.54,0-0.706c-0.212-0.008-0.666-0.034-0.879,0.006
		c-0.039,1.566-0.054,3.153,0,4.792c-0.021,1.013-1.458,1.594-1.964,1.993c-0.042,0.121-0.019,0.383-0.003,0.506
		c0.046,0.699,0.835,1.11,1.318,1.093c3.642,0.006,6.554-0.575,10.389-0.598c2.662,0.038,3.304,1.69,5.25,2.093
		c-0.002,0.367,0.06,1.137-0.002,1.495c-0.008,0.916-0.095,4.8-0.765,5.783c0.047,2.118-0.021,4.013-0.01,6.077
		c0.084,2.283,2.28,3.082,4.021,3.854c1.223,0.603,1.147,2.322,3.037,2.368c2.875-0.046,4.219-1.974,6.837-2.007
		c3.149,0.106,3.292,2.945,5.006,4.166c-0.17,0.197-0.558,0.578-0.729,0.771c0.212-0.15,0.593-0.541,0.817-0.678
		c0.812,0.137,0.753,0.202,1.285-0.012c0.035-0.143,0.049-0.458,0.004-0.596c0.031-0.141,0.497-0.462,0.646-0.493
		c0.067-0.983,1.214-1.479,1.731-1.688c0.579-0.466,0.839-1.882,0.987-2.467c0.569-1.616,1.537-1.845,2.901-2.299
		c2.624-0.812,4.199-1.231,6.932-2.022c1.387-0.438,1.847-1.803,3.076-1.891c0.398,0.044,0.956,1.109,0.94,1.175
		c-0.012,0.801-0.742,1.186-1.063,1.193c-0.343,1.489-1.041,3.38-0.979,4.028c-0.109,1.043,0.438,2.89,1.706,2.941
		c0.312-0.056,0.972-1.308,1.011-1.603c-0.089-1.204-1.301-1.851-1.233-3.022c0.073-1.466,1.708-1.256,2.647-1.893
		c0.889,0.026,1.877,0.034,2.509-0.023c-0.404-1.137-2.052-0.681-1.971-1.839c0.47-0.021,1.37,0,1.838,0.006
		c0.392,1.575,2.801,2.126,4.288,2.376c0.034,1.01,0.738,1.69,1.22,1.748c1.887-0.032,3.727-0.024,5.54-0.076
		c0,0.898,1.39,1.054,2.024,1.038c1.529-0.23,2.358-0.248,3.149-1.414c0.127-0.195,2.265-0.396,2.521-0.516
		c0.954-0.022,2.779,0.237,2.779,0.237c-0.306,0.246-1.24,0.35-1.489,0.221c0.012,0.194-0.046,0.583-0.013,0.773
		c0.708,1.356,2.781,1.638,4.223,2.036c1.345,0.437,0.859,1.746,1.313,3.035c0.896-0.024,1.858,0.018,2.727-0.067
		c1.843,1.784,2.553,1.424,3.761,3.775c0.152,0.296,1.016,0.522,1.412,0.517c0.757,2.636,4.508,2.191,7.049,2.563
		c0.759-0.073,1.705-0.06,2.392-0.097c0.641,0.26,2.099,0.968,2.969,0.893c-0.016,0.048,0.04,0.185-0.008,0.185
		c0.158,0.006,0.387,0.014,0.541-0.021c1.458,0.021,3.188,2.866,4.669,3.158c-0.031,1.104,0.97,3.898,1.325,4.904
		c0.438,0.863,1.438,0.981,1.462,1.704c-1.535,1.888-4.413,5.441-4.703,8.161c-0.058,0.878,0.758,0.764,1.162,0.883
		c0.835,0.422,1.26,1.015,1.337,1.924c0.783-0.011,1.424-0.193,2.057-0.171c-0.033,0.21,0.121,0.956,0.357,0.928
		c0.313-0.006,0.825-0.745,1.01-1.134c0.955-1.49,1.982-3.362,3.433-3.534c1.468-0.096,4.288,1.322,5.302,1.855
		c0.674,0.413,1.32,0.207,1.439,0.8c0.177,0.771,0.056,1.485-0.023,2.13c0.183-0.04,0.373-0.021,0.555-0.062
		c0.773-0.418,1.101-1.027,1.808-1.126c1.757-0.119,1.85,1.193,3.335,0.964c1.016-0.211,2.047-0.528,2.893-0.768
		c1.449,0.148,2.425,0.543,3.294,0.9c0.608,1.182,2.384,3.1,3.511,3.383c0.96,0.125,1.557-0.41,2.488-0.237
		C386.737,330.774,386.899,332.339,386.665,334.086z M306.811,188.916c0.14,0.175,0.252,0.545,0.369,0.734
		C307.103,189.445,306.991,189.044,306.811,188.916z M306.514,187.979c0.085,0.216,0.15,0.604,0.252,0.811
		C306.682,188.566,306.613,188.185,306.514,187.979z M306.173,185.994c0.051,0.279,0.112,0.715,0.148,0.998
		C306.27,186.711,306.325,186.228,306.173,185.994z M271.454,193.617c-0.077-0.094-0.162-0.299-0.214-0.411
		C271.277,193.325,271.336,193.587,271.454,193.617z M271.833,194.472c-0.089-0.174-0.208-0.501-0.293-0.675
		C271.629,193.975,271.713,194.319,271.833,194.472z M270.559,192.298c0.018,0.245,0.464,0.528,0.585,0.75
		c-0.084-0.161-0.262-0.445-0.379-0.583c0.754,0.03,0.841-0.077,1.228-0.057c2.991,0.116,9.395,1.014,9.406-2.053
		c-2.609,0.008-7.261,0.843-9.521,1.308C271.637,191.718,270.548,191.96,270.559,192.298z M267.731,194.729
		c-1.452-0.088-2.949-0.049-3.903,0.613c-0.297,0.288-0.739,0.841-1.438,0.817c-0.47-0.021-1.312-0.69-1.561-1.016
		c0.028,0.871,0.417,2.043,1.472,2.105c2.517-0.049,6.626-1.593,8.903-2.52c-0.363,0.142-0.748,0.28-1.004,0.384
		C269.797,195.298,269.113,194.811,267.731,194.729z M234.589,182.717c0.389-0.011,1.135-0.045,1.521-0.022
		c0.729-0.285,1.299-0.507,1.843-0.585c0.429,0.744,0.895,0.77,1.518,0.784c1.726-0.071,2.06-1.092,2.76-1.071
		c1.155-0.046,3.003-1.473,4.494-1.784c-0.005,1.118-0.802,1.477-1.133,1.995c0.673-0.036,1.521,0.015,2.039-0.006
		c0.086,0.476,1.189,0.961,1.739,0.955c1.343-0.028,1.726-0.811,2.849-0.796c2.507,0.067,3.657,0.991,5.832,1.074
		c0.018,0.267,0.029,0.688,0.004,0.958c-1.553,0.406-3.981,0-4.598-0.027c-2.265,0.032-6.278,2.241-6.564,3.895
		c1.06-0.527,1.462-1.126,2.47-1.146c-1.747,1.847-2.582,6.049-2.587,8.159c0.019,0.948,1.233,1.679,2.37,1.664
		c1.574-0.058,2.099-2.417,2.064-3.582c0.009-0.872-0.008-1.931,0-2.644c-0.027-1.092-0.018-3.562,1.11-3.557
		c3.813-0.248,2.005-2.099,3.696-2.13c0.82,0,4.598,1.519,4.627,2.466c0.01,1.12-0.803,1.857-1.096,3.013
		c1.259-0.017,1.022-0.333,2.048-0.557c0.41,1.344,0.383,1.912,1.469,2.569c1.453-0.054,2.31-3.975,2.696-5.197
		c0.368,0.197,1.657,1.502,2.884,1.426c0.472,0.041,0.985-0.488,1.003-0.959c-0.058-1.229-1.577-1.997-2.805-2.718
		c-0.91-0.01-1.98,0.066-2.646-0.042c-2.658-1.203-5.699-1.007-8.095-2.81c-0.832-0.7-0.216-1.401-0.832-2.385
		c-0.213-0.234-4.617-2.987-5.084-3.004c-0.206,0.004-0.603,0-0.808,0c0,0.136,0.067,0.842-0.108,1.098
		c-0.329-0.251-1.22-1.627-2.424-1.713c-1.027,0.057-0.595,1.229-1.635,1.651c-1.112,0.457-1.289,0.062-2.638,0.412
		C239.773,179.526,237.035,180.364,234.589,182.717z M267.811,167.979c0.093,0.019,0.275,0.059,0.354,0.01
		c-0.073-0.856-1.215-1.239-2.44-1.27c0.02,0.149,0.032,0.355,0.01,0.503C266.121,167.554,267.149,168.021,267.811,167.979z
		 M285.779,135.458c-0.25-0.161-1.048-0.611-1.908-0.755c-0.152-0.033-1.129,0.165-1.168,0.289c0.039,0.252,0.597,0.395,1.231,0.395
		C284.862,135.497,284.551,135.46,285.779,135.458z M268.334,141.899c-0.875-0.589-2.59-0.376-4.167-0.934
		c-0.403-0.14-0.194-0.45-0.696-0.75c-1.734-0.992-4.787-0.675-6.86-1.784c-0.25,0.071-0.634,0.166-0.858,0.301
		c-0.425-0.41-0.933-0.564-1.452-1.139c-2.74,0.061-3.149,1.66-3.157,2.36c0,0.217,0.002,0.39,0,0.61
		c-0.008,0.256-0.554,0.391-0.964,0.519c-0.164,0.213-1.337,0.17-1.455,0.808c0.629-0.009,2.576-0.143,4.163,0.04
		c-0.166,0.429-0.461,0.803,0.681,0.837c0.398,0.008,0.521-0.122,0.775-0.324c1.424,0.269,4.501-0.552,4.526-1.424
		c0.466,0.132,3.698,1.119,3.698,1.119c0.702,0.07,1.693,0.064,2.607,0.09C266.381,142.251,267.321,142.073,268.334,141.899z
		 M258.736,144.191c-0.009,0.191-0.038,0.363,0.012,0.547c1.501-0.024,3.935-0.838,4.822-1.288
		c-1.175-0.242-0.699-0.237-2.719-0.248C260.761,143.46,259.552,143.776,258.736,144.191z M281.81,135.417
		c-0.194-1.375-5.768-1.944-5.791-0.385c0.041,0.517,0.985,0.921,2.405,0.986C279.592,136.146,281.806,135.908,281.81,135.417z
		 M284.332,427.518c0.183-0.589,0.062-0.728,0.173-1.337c0.037-0.196,0.389-0.162,0.414-0.533c0.024-0.486-0.164-0.732-0.974-0.635
		c-0.472,0.01-1.231,1.447-1.231,1.447c-0.054,0.263-0.018,0.321-0.069,0.583c-0.048,0.246,0.414,0.573,0.893,0.544
		C283.769,427.533,284.095,427.502,284.332,427.518z M275.573,143.06c-1.268-0.252-1.232-0.583-2.204-0.113
		C274.343,143.366,274.573,143.345,275.573,143.06z"/>
	<path opacity="0.2" fill="#FFFFFF" d="M425.129,274.152c0-1.428-0.018-2.855-0.054-4.273c-0.448-18.968-3.907-37.454-10.299-55.125
		c-0.017-0.05-0.028-0.106-0.048-0.16l-0.01,0.003c-1.029-2.839-2.13-5.659-3.311-8.453c-8.794-20.808-21.378-39.493-37.413-55.539
		c-9.633-9.641-20.224-18.026-31.647-25.1c-0.004-0.007-0.008-0.007-0.016-0.012l0,0c-7.584-4.695-15.535-8.821-23.829-12.336
		c-18.931-8.009-38.893-12.545-59.463-13.524v-0.015l-0.576-0.02c-0.062-0.001-0.121,0.007-0.179,0.007
		c-1.647-0.068-3.298-0.115-4.947-0.139c-0.933-0.026-1.866-0.037-2.795-0.037l0,0l0,0c-0.002,0-0.002,0-0.002,0
		c-0.925,0-1.856,0.011-2.782,0.037c-1.654,0.024-3.307,0.07-4.958,0.139c-0.058,0-0.12-0.008-0.177-0.007l-0.577,0.02v0.015
		c-20.568,0.979-40.532,5.516-59.457,13.524c-20.791,8.805-39.46,21.4-55.494,37.447c-16.033,16.046-28.623,34.731-37.411,55.539
		c-1.175,2.77-2.268,5.565-3.292,8.379l0,0c0,0.006-0.006,0.02-0.008,0.029c-6.92,19.052-10.421,39.058-10.421,59.6
		c0,20.549,3.507,40.564,10.429,59.624l0,0c0,0.006,0.004,0.008,0.004,0.008c1.023,2.811,2.116,5.609,3.288,8.374
		c8.788,20.805,21.378,39.491,37.411,55.538c16.034,16.043,34.703,28.642,55.494,37.445c18.938,8.015,38.916,12.55,59.495,13.526
		c0.094,0.006,0.187,0.021,0.281,0.027v-0.02c2.715,0.123,5.441,0.194,8.176,0.194c2.736,0,5.462-0.071,8.18-0.194v0.02
		c0.094-0.006,0.188-0.021,0.278-0.027c20.587-0.977,40.562-5.512,59.502-13.526c8.286-3.509,16.233-7.632,23.812-12.328
		c0.008-0.004,0.014-0.004,0.018-0.004v-0.005c11.432-7.078,22.026-15.467,31.663-25.108c16.035-16.047,28.619-34.733,37.413-55.538
		c1.162-2.749,2.247-5.521,3.261-8.312c0.008-0.016,0.02-0.037,0.029-0.057h-0.006c6.928-19.062,10.435-39.081,10.435-59.637l0,0
		l0,0l0,0H425.129z M419.304,283.357c0,19.2-3.123,37.702-9.277,55.201c-4.572,3.519-12.483,6.795-23.057,9.71
		c4.804-16.47,7.277-34.202,7.277-52.69c0-0.932-0.014-1.868-0.026-2.807c11.489-3.092,19.944-6.522,25.073-10.16
		C419.296,282.861,419.304,283.111,419.304,283.357z M301.995,440.562c-0.525,0.159-1.059,0.312-1.586,0.47l-0.004-0.008
		c-3.021,0.904-6.658,1.706-10.775,2.389c6.522-2.618,12.74-6.468,18.548-11.464c8.23-1.148,15.451-2.549,21.352-4.147
		c-8.583,5.458-17.802,9.738-27.542,12.737L301.995,440.562z M287.843,444.276c-0.475,0.107-0.948,0.212-1.424,0.308
		c0.168-0.054,0.333-0.107,0.499-0.163C287.23,444.374,287.535,444.326,287.843,444.276z M201.159,441.16l-0.002,0.009
		c-0.687-0.203-1.375-0.394-2.062-0.607l0.007-0.023c-9.742-2.999-18.961-7.283-27.549-12.747c5.9,1.603,13.126,3.001,21.356,4.149
		c5.801,4.996,12.015,8.844,18.529,11.461C207.543,442.755,204.074,442.008,201.159,441.16z M214.146,444.411
		c0.175,0.058,0.352,0.119,0.533,0.173c-0.496-0.102-0.989-0.206-1.485-0.313C213.505,444.316,213.824,444.367,214.146,444.411z
		 M76.542,274.152L76.542,274.152c0-19.363,3.303-38.22,9.627-55.983c0.521,2.193,2.256,4.338,5.127,6.41
		c-6.426,18.219-9.866,37.426-10.065,56.976c-3.055-2.378-4.685-4.855-4.685-7.402H76.542L76.542,274.152z M155.183,130.851
		c0-1.094,0.597-2.185,1.754-3.265c0.849-0.526,1.699-1.049,2.559-1.557c10.221-6.054,21.058-10.898,32.33-14.494
		c-0.208,0.394-0.315,0.8-0.315,1.208c0,0.253,0.044,0.501,0.125,0.748c-12.782,4.468-24.999,10.41-36.428,17.719
		C155.195,131.092,155.183,130.973,155.183,130.851z M250.541,100.009h0.002c0.958,0,1.915,0.02,2.875,0.036
		c0.733,0.015,1.455,0.043,2.155,0.074c-1.678,0.596-3.357,1.72-5.029,3.34c-1.672-1.62-3.351-2.744-5.031-3.34
		c0.708-0.031,1.428-0.059,2.165-0.074C248.631,100.028,249.583,100.009,250.541,100.009z M344.162,127.589
		c1.154,1.081,1.75,2.17,1.75,3.262c0,0.122-0.01,0.241-0.024,0.363c-11.432-7.312-23.645-13.254-36.433-17.722
		c0.083-0.247,0.127-0.495,0.127-0.749c0-0.408-0.102-0.814-0.312-1.208c11.267,3.596,22.105,8.44,32.327,14.494
		C342.455,126.539,343.312,127.064,344.162,127.589z M393.67,295.578c0,18.563-2.499,36.354-7.349,52.865
		c-10.68,2.899-24.002,5.438-39.295,7.503c3.497-17.134,5.185-35.799,4.911-55.18c7.723-1.031,15.051-2.182,21.905-3.451
		c7.346-1.368,13.956-2.834,19.801-4.387C393.655,293.815,393.67,294.695,393.67,295.578z M107.451,292.929
		c5.843,1.553,12.453,3.019,19.8,4.387c6.855,1.27,14.181,2.42,21.901,3.451c-0.27,19.381,1.416,38.046,4.916,55.18
		c-15.294-2.064-28.615-4.602-39.297-7.501c-4.852-16.513-7.349-34.304-7.349-52.867
		C107.422,294.695,107.441,293.815,107.451,292.929z M229.454,102.834c4.823-0.122,9.692,0.048,14.6,0.521
		c-5.204-0.084-10.375,0.074-15.508,0.467C228.573,103.495,228.879,103.158,229.454,102.834z M233.83,101.422
		c3.831,0.094,7.699,0.557,11.589,1.412c0.227,0.048,0.454,0.109,0.679,0.163c-5.118-0.579-10.204-0.845-15.233-0.775
		C231.666,101.938,232.663,101.674,233.83,101.422z M270.233,102.221c-5.039-0.07-10.123,0.196-15.245,0.775
		c0.227-0.054,0.454-0.115,0.683-0.163c3.889-0.855,7.761-1.318,11.59-1.412C268.431,101.674,269.426,101.938,270.233,102.221z
		 M272.548,103.822c-5.134-0.393-10.308-0.551-15.516-0.467c4.914-0.473,9.785-0.643,14.606-0.521
		C272.214,103.158,272.526,103.495,272.548,103.822z M346.416,356.027c-17.791,2.37-38.217,4.109-60.235,5.018
		c1.262-17.048,1.845-35.663,1.72-54.991c22.834-0.92,44.353-2.687,63.46-5.208C351.63,320.234,349.932,338.901,346.416,356.027z
		 M149.733,300.846c19.107,2.521,40.626,4.288,63.458,5.208c-0.123,19.328,0.46,37.943,1.72,54.991
		c-22.017-0.908-42.444-2.647-60.236-5.018C151.162,338.903,149.464,320.234,149.733,300.846z M250.543,246.94
		c-11.731,0-23.176-0.229-34.219-0.662c1.572-19.958,3.797-38.787,6.518-55.875c9.013,0.348,18.284,0.525,27.701,0.525
		c9.421,0,18.695-0.177,27.708-0.525c2.724,17.088,4.942,35.917,6.518,55.875C273.728,246.711,262.28,246.94,250.543,246.94z
		 M284.811,246.857c0.693,8.863,1.259,17.952,1.678,27.206c0.487,10.682,0.755,21.189,0.827,31.43
		c-11.856,0.472-24.157,0.722-36.773,0.722c-12.611,0-24.908-0.25-36.767-0.722c0.073-10.24,0.341-20.748,0.823-31.43
		c0.425-9.254,0.987-18.343,1.68-27.206c11.145,0.437,22.611,0.662,34.264,0.662C262.2,247.519,273.672,247.294,284.811,246.857z
		 M250.543,190.354c-9.459,0-18.692-0.185-27.607-0.527c2.457-15.321,5.312-29.228,8.455-41.272
		c6.174,0.223,12.576,0.344,19.152,0.344c6.58,0,12.982-0.121,19.157-0.344c3.144,12.044,5.998,25.951,8.459,41.272
		C269.245,190.169,260.004,190.354,250.543,190.354z M250.543,104.222c0.97,0.981,1.936,2.135,2.894,3.456
		c-0.94,0.023-1.904,0.039-2.894,0.039c-0.989,0-1.949-0.016-2.892-0.039C248.608,106.357,249.572,105.203,250.543,104.222z
		 M247.007,107.663c-1.772-0.052-3.446-0.146-5.012-0.267c2.489-1.116,5.002-2.079,7.538-2.895
		C248.684,105.429,247.844,106.482,247.007,107.663z M251.555,104.502c2.532,0.816,5.047,1.779,7.535,2.895
		c-1.566,0.12-3.241,0.214-5.011,0.267C253.24,106.482,252.4,105.429,251.555,104.502z M254.006,104.724
		c3.309,0.59,6.591,1.317,9.846,2.164c-1.11,0.158-2.308,0.292-3.586,0.407C258.195,106.338,256.109,105.479,254.006,104.724z
		 M240.823,107.294c-1.279-0.114-2.474-0.249-3.582-0.407c3.25-0.847,6.53-1.574,9.84-2.164
		C244.977,105.479,242.892,106.338,240.823,107.294z M239.793,107.779c-7.182,3.454-14.148,8.127-20.828,13.841
		c-5.006-0.596-9.503-1.331-13.32-2.164c9.64-5.239,19.729-9.36,30.146-12.195C237.035,107.463,238.377,107.635,239.793,107.779z
		 M240.92,107.885c1.824,0.161,3.742,0.274,5.687,0.338c-2.595,3.785-5.148,8.784-7.632,14.92
		c-6.905-0.262-13.407-0.757-19.246-1.434C226.52,115.953,233.615,111.286,240.92,107.885z M247.245,108.246
		c1.099,0.029,2.203,0.048,3.297,0.048c1.099,0,2.201-0.019,3.298-0.048c2.636,3.774,5.214,8.794,7.7,14.918
		c-3.574,0.131-7.25,0.196-10.998,0.196c-3.746,0-7.42-0.065-10.995-0.196C242.034,117.04,244.612,112.021,247.245,108.246z
		 M254.479,108.224c1.947-0.064,3.864-0.178,5.688-0.338c7.311,3.4,14.403,8.067,21.194,13.825
		c-5.835,0.677-12.338,1.172-19.246,1.434C259.635,117.008,257.074,112.009,254.479,108.224z M261.299,107.779
		c1.415-0.141,2.757-0.316,4.002-0.518c10.42,2.835,20.507,6.957,30.151,12.195c-3.823,0.833-8.321,1.568-13.321,2.164
		C275.449,115.907,268.481,111.233,261.299,107.779z M266.633,107.03c1.142-0.218,2.17-0.462,3.057-0.737
		c12.271,2.055,24.242,5.427,35.757,10.032c-2.158,1.055-5.233,2.04-9.042,2.914C286.808,113.989,276.839,109.894,266.633,107.03z
		 M265.323,106.662c-2.953-0.792-5.929-1.479-8.919-2.067c3.994,0.355,7.96,0.844,11.901,1.47
		C267.43,106.279,266.427,106.481,265.323,106.662z M260.9,104.466c3.305,0.191,6.594,0.467,9.865,0.835
		c-0.335,0.137-0.71,0.269-1.125,0.395C266.74,105.216,263.827,104.805,260.9,104.466z M244.681,104.594
		c-2.986,0.588-5.958,1.275-8.911,2.067c-1.108-0.185-2.103-0.383-2.978-0.597C236.726,105.438,240.691,104.949,244.681,104.594z
		 M231.458,105.696c-0.419-0.126-0.794-0.258-1.127-0.395c3.267-0.368,6.557-0.644,9.862-0.835
		C237.264,104.805,234.354,105.216,231.458,105.696z M234.46,107.03c-10.206,2.864-20.176,6.959-29.772,12.209
		c-3.807-0.874-6.879-1.858-9.04-2.914c11.512-4.605,23.486-7.978,35.759-10.032C232.291,106.567,233.319,106.812,234.46,107.03z
		 M203.895,119.684c-10.493,5.826-20.541,13.025-29.96,21.502c-6.385-1.593-11.272-3.369-14.458-5.234
		c11.147-7.835,23.044-14.32,35.493-19.357C197.087,117.725,200.113,118.767,203.895,119.684z M204.813,119.901
		c3.834,0.885,8.384,1.653,13.496,2.272c-7.445,6.471-14.523,14.261-21.103,23.129c-5.062-0.632-9.833-1.362-14.242-2.181
		c-2.962-0.551-5.708-1.134-8.23-1.742C184.093,133.006,194.172,125.767,204.813,119.901z M219.076,122.268
		c5.906,0.692,12.532,1.193,19.664,1.456c-2.693,6.754-5.294,14.85-7.763,24.226c-11.843-0.455-23.057-1.324-33.134-2.566
		C204.465,136.495,211.581,128.716,219.076,122.268z M230.825,148.531c-0.196,0.748-0.389,1.495-0.583,2.256
		c-2.974,11.744-5.624,24.875-7.894,39.015c-17.469-0.689-33.69-2-47.937-3.802c6.637-14.89,14.396-28.394,23-40.039
		C207.354,147.188,218.636,148.07,230.825,148.531z M250.543,148.321c-6.454,0-12.811-0.123-18.998-0.35
		c2.438-9.264,5.044-17.405,7.772-24.227c3.628,0.126,7.378,0.196,11.226,0.196c3.85,0,7.602-0.07,11.229-0.196
		c2.727,6.821,5.337,14.963,7.777,24.227C263.359,148.198,256.999,148.321,250.543,148.321z M262.349,123.723
		c7.135-0.263,13.763-0.759,19.671-1.456c7.491,6.448,14.607,14.227,21.231,23.115c-10.081,1.242-21.291,2.111-33.137,2.566
		C267.648,138.573,265.041,130.477,262.349,123.723z M282.783,122.177c5.109-0.623,9.663-1.391,13.498-2.276
		c10.641,5.867,20.72,13.104,30.079,21.479c-2.528,0.608-5.266,1.191-8.23,1.742c-4.409,0.818-9.181,1.548-14.24,2.181
		C297.303,136.435,290.229,128.647,282.783,122.177z M297.198,119.684c3.779-0.917,6.809-1.959,8.927-3.089
		c12.445,5.037,24.347,11.524,35.489,19.357c-3.186,1.865-8.07,3.641-14.461,5.234C317.736,132.709,307.692,125.51,297.198,119.684z
		 M306.77,116.229c1.18-0.704,2.007-1.442,2.447-2.208c12.826,4.479,25.079,10.445,36.534,17.795
		c-0.406,1.287-1.626,2.566-3.6,3.805C331.039,127.795,319.179,121.295,306.77,116.229z M306.125,115.974
		c-11.368-4.586-23.185-7.976-35.297-10.08c0.381-0.149,0.72-0.308,1.014-0.474c12.649,1.498,24.983,4.329,36.835,8.421
		C308.241,114.572,307.372,115.291,306.125,115.974z M229.252,105.42c0.292,0.166,0.631,0.325,1.014,0.474
		c-12.112,2.104-23.929,5.494-35.295,10.076c-1.25-0.683-2.12-1.398-2.551-2.129C204.268,109.749,216.602,106.917,229.252,105.42z
		 M194.324,116.229c-12.409,5.066-24.273,11.562-35.381,19.393c-1.974-1.243-3.194-2.52-3.604-3.81
		c11.46-7.35,23.711-13.312,36.54-17.791C192.316,114.787,193.145,115.524,194.324,116.229z M158.415,135.997
		c-9.848,6.995-19.107,15.028-27.611,24.063c-3.625,3.846-7.053,7.824-10.302,11.915c-2.636-1.821-4.177-3.72-4.471-5.674
		c3.596-4.268,7.424-8.388,11.476-12.347c8.438-8.246,17.598-15.534,27.334-21.821C155.314,133.471,156.532,134.76,158.415,135.997z
		 M131.222,160.458c8.536-9.064,17.828-17.121,27.721-24.128c3.215,1.963,8.125,3.774,14.429,5.372
		c-8.744,7.94-16.951,16.972-24.465,27.018c-2.74,3.666-5.351,7.423-7.84,11.258c-8.952-2.3-15.818-4.891-20.085-7.679
		C124.215,168.239,127.622,164.28,131.222,160.458z M174.155,141.897c6.306,1.551,13.944,2.902,22.619,3.984
		c-8.579,11.663-16.318,25.169-22.944,40.042c-12.367-1.582-23.229-3.537-32.102-5.777
		C151.053,165.792,161.984,152.878,174.155,141.897z M155.13,183.591c5.75,1.067,11.934,2.028,18.465,2.871
		c-7.445,16.824-13.463,35.37-17.672,54.932c-15.202-1.987-28.5-4.438-39.271-7.239c5.845-19.198,14.279-37.281,24.775-53.537
		C145.543,181.666,150.114,182.661,155.13,183.591z M174.177,186.537c14.546,1.864,30.833,3.162,48.081,3.844
		c-2.767,17.333-4.967,36.182-6.512,55.875c-21.644-0.868-41.704-2.519-59.251-4.791
		C160.703,221.899,166.728,203.352,174.177,186.537z M215.7,246.833c-0.696,8.92-1.258,18.006-1.674,27.209
		c-0.483,10.583-0.758,21.105-0.831,31.431c-23.213-0.941-44.712-2.738-63.456-5.2c0.019-1.309,0.048-2.622,0.088-3.944
		c0.546-18.568,2.828-36.836,6.549-54.303C174.276,244.354,194.384,245.988,215.7,246.833z M214.954,361.63
		c0.6,7.943,1.343,15.546,2.233,22.709c1.02,8.176,2.214,15.685,3.565,22.473c-18.204-0.781-35.166-2.255-49.92-4.27
		c-0.542-1.008-1.075-2.027-1.599-3.07c-6.283-12.505-11.133-27.005-14.429-42.835C172.896,359.052,193.324,360.744,214.954,361.63z
		 M215.577,361.658c11.381,0.454,23.096,0.689,34.966,0.689c11.876,0,23.591-0.235,34.974-0.689
		c-1.294,17.053-3.259,32.361-5.8,45.18c-9.435,0.396-19.206,0.604-29.174,0.604c-9.961,0-19.731-0.208-29.169-0.604
		C218.834,394.02,216.872,378.711,215.577,361.658z M250.543,361.77c-11.989,0-23.708-0.24-35.01-0.694
		c-1.266-16.872-1.882-35.437-1.759-54.999c11.953,0.472,24.256,0.718,36.769,0.718c12.516,0,24.824-0.246,36.775-0.718
		c0.121,19.562-0.494,38.127-1.758,54.999C274.257,361.529,262.537,361.77,250.543,361.77z M287.895,305.473
		c-0.071-10.325-0.348-20.848-0.829-31.431c-0.417-9.203-0.976-18.29-1.674-27.209c21.318-0.845,41.425-2.478,59.322-4.808
		c3.725,17.467,6.006,35.735,6.551,54.303c0.04,1.322,0.069,2.636,0.091,3.944C332.61,302.734,311.113,304.531,287.895,305.473z
		 M285.348,246.255c-1.547-19.693-3.744-38.542-6.513-55.875c17.248-0.682,33.533-1.979,48.081-3.844
		c7.451,16.814,13.475,35.362,17.681,54.928C327.051,243.737,306.991,245.388,285.348,246.255z M278.743,189.802
		c-2.269-14.14-4.914-27.271-7.894-39.015c-0.192-0.761-0.389-1.508-0.583-2.256c12.189-0.461,23.471-1.344,33.415-2.57
		c8.602,11.645,16.36,25.149,23,40.039C312.434,187.802,296.212,189.112,278.743,189.802z M304.319,145.886
		c8.679-1.087,16.314-2.436,22.623-3.989c12.166,10.981,23.098,23.895,32.423,38.249c-8.873,2.24-19.731,4.196-32.102,5.777
		C320.641,171.051,312.902,157.544,304.319,145.886z M352.191,168.719c-7.519-10.045-15.721-19.078-24.466-27.018
		c6.299-1.598,11.21-3.406,14.427-5.369c9.891,7.004,19.185,15.061,27.721,24.125c3.598,3.822,7.007,7.781,10.238,11.841
		c-4.267,2.788-11.133,5.379-20.085,7.683C357.536,176.143,354.928,172.385,352.191,168.719z M370.29,160.06
		c-8.504-9.033-17.764-17.068-27.611-24.063c1.881-1.236,3.103-2.526,3.578-3.861c9.732,6.289,18.893,13.573,27.33,21.818
		c4.054,3.959,7.878,8.083,11.476,12.35c-0.296,1.954-1.835,3.854-4.473,5.671C377.341,167.884,373.914,163.906,370.29,160.06z
		 M261.471,103.924c3.63,0.038,7.249,0.19,10.843,0.461c-0.135,0.148-0.329,0.296-0.569,0.44
		C268.342,104.424,264.914,104.13,261.471,103.924z M255.545,102.27c-1.35,0.296-2.693,0.649-4.036,1.033
		c2.028-1.809,4.075-2.862,6.128-3.078c2.645,0.164,5.008,0.418,7.039,0.732C261.65,101.164,258.603,101.595,255.545,102.27z
		 M236.414,100.957c2.028-0.311,4.396-0.568,7.037-0.732c2.051,0.218,4.098,1.27,6.122,3.078c-1.337-0.384-2.682-0.737-4.033-1.033
		C242.486,101.595,239.438,101.164,236.414,100.957z M239.619,103.924c-3.444,0.206-6.866,0.5-10.271,0.901
		c-0.239-0.145-0.431-0.296-0.567-0.44C232.376,104.114,235.989,103.961,239.619,103.924z M115.558,166.866
		c0.483,1.886,2.045,3.726,4.625,5.507c-12.465,15.766-22.123,33.226-28.704,51.707c-3.099-2.273-4.789-4.653-4.894-7.091
		C93.177,198.897,102.929,181.976,115.558,166.866z M120.666,172.696c4.253,2.782,11.027,5.399,20.1,7.749
		c-10.692,16.578-19.017,34.648-24.741,53.544c-10.858-2.865-19.096-6.091-24.06-9.56
		C98.533,205.934,108.189,188.466,120.666,172.696z M115.869,234.505c-5.602,18.67-8.676,38.125-8.996,57.715
		c-11.407-3.07-19.995-6.525-25.066-10.232c0.15-19.579,3.563-38.813,9.979-57.056C96.765,228.362,104.881,231.594,115.869,234.505z
		 M116.495,234.666c5.304,1.384,11.258,2.693,17.846,3.917c6.703,1.249,13.884,2.366,21.466,3.367
		c-3.725,17.489-6.01,35.777-6.559,54.365c-0.039,1.297-0.067,2.594-0.088,3.881c-16.201-2.147-30.326-4.796-41.706-7.82
		C107.764,272.538,110.935,253.093,116.495,234.666z M138.161,354.104c5.097,0.883,10.457,1.7,16.036,2.457
		c3.311,15.954,8.188,30.573,14.521,43.175c0.46,0.918,0.927,1.816,1.403,2.711c-12.482-1.731-23.352-3.852-32.015-6.263
		c-1.705-2.318-3.353-4.707-4.944-7.168c-7.803-12.09-13.896-25.518-18.196-39.934C121.647,350.891,129.404,352.578,138.161,354.104
		z M170.518,403.177c6.15,11.401,13.423,20.82,21.519,27.994c-8.698-1.248-16.253-2.771-22.223-4.512
		c-11.674-7.722-22.134-17.678-31.061-29.611C147.411,399.422,158.171,401.492,170.518,403.177z M171.226,403.273
		c14.643,1.97,31.472,3.399,49.649,4.146c2.241,11.101,4.894,20.218,7.875,27.021c-13.003-0.573-25.143-1.646-35.67-3.116
		C184.857,424.201,177.469,414.759,171.226,403.273z M221.497,407.442c9.371,0.381,19.088,0.577,29.046,0.577
		c9.964,0,19.688-0.196,29.053-0.571c-2.215,11.033-4.864,20.198-7.886,27.019c-6.855,0.296-13.95,0.45-21.167,0.45
		c-7.212,0-14.302-0.154-21.16-0.45C226.358,427.643,223.711,418.481,221.497,407.442z M280.217,407.419
		c18.179-0.746,35.008-2.176,49.646-4.144c-6.242,11.487-13.632,20.928-21.853,28.05c-10.525,1.472-22.663,2.543-35.666,3.116
		C275.321,427.641,277.98,418.52,280.217,407.419z M280.34,406.812c1.349-6.788,2.547-14.297,3.566-22.473
		c0.89-7.163,1.634-14.766,2.23-22.709c21.63-0.886,42.064-2.578,60.149-4.993c-3.292,15.83-8.145,30.332-14.428,42.835
		c-0.523,1.043-1.06,2.064-1.599,3.07C315.506,404.561,298.545,406.036,280.34,406.812z M332.372,399.735
		c6.336-12.602,11.215-27.221,14.521-43.175c5.577-0.755,10.932-1.572,16.021-2.457c8.766-1.525,16.526-3.211,23.212-5.018
		c-4.298,14.412-10.393,27.84-18.198,39.93c-1.587,2.461-3.237,4.855-4.948,7.172c-8.659,2.411-19.526,4.533-32.009,6.265
		C331.448,401.552,331.912,400.653,332.372,399.735z M351.933,300.195c-0.025-1.287-0.051-2.584-0.087-3.881
		c-0.551-18.588-2.834-36.876-6.559-54.365c7.58-1,14.764-2.118,21.469-3.367c6.587-1.224,12.537-2.533,17.842-3.917
		c5.562,18.427,8.73,37.872,9.038,57.709C382.256,295.399,368.137,298.048,351.933,300.195z M345.168,241.394
		c-4.208-19.562-10.226-38.107-17.671-54.932c6.533-0.843,12.715-1.804,18.468-2.871c5.017-0.93,9.586-1.925,13.703-2.974
		c10.494,16.256,18.931,34.339,24.773,53.537C373.668,236.956,360.372,239.408,345.168,241.394z M360.324,180.444
		c9.076-2.349,15.851-4.967,20.104-7.749c12.472,15.772,22.132,33.238,28.695,51.739c-4.959,3.465-13.199,6.689-24.058,9.554
		C379.343,215.093,371.019,197.022,360.324,180.444z M380.913,172.373c2.576-1.777,4.139-3.621,4.623-5.503
		c12.632,15.111,22.384,32.03,28.975,50.12c-0.109,2.441-1.8,4.817-4.896,7.092C403.031,205.599,393.374,188.143,380.913,172.373z
		 M309.005,112.744c0,0.19-0.026,0.379-0.088,0.567c-11.705-4.043-23.879-6.863-36.361-8.385c0.178-0.159,0.315-0.321,0.412-0.491
		c12.114,0.963,23.975,3.254,35.406,6.825C308.786,111.757,309.005,112.253,309.005,112.744z M273.127,103.869
		c0-0.006,0.004-0.006,0.004-0.01c0-0.348-0.179-0.681-0.506-1c9.869,0.339,19.535,1.929,28.904,4.771
		c2.62,0.852,4.596,1.774,5.856,2.713C296.314,106.98,284.836,104.809,273.127,103.869z M271.758,102.257
		c-0.563-0.306-1.287-0.591-2.142-0.85c2.697,0.047,5.373,0.281,8.007,0.711l0.002-0.013c2.165,0.338,4.323,0.717,6.47,1.135
		C280.023,102.691,275.907,102.368,271.758,102.257z M267.345,100.835c-0.069-0.014-0.141-0.028-0.211-0.041
		c0.144,0.013,0.292,0.025,0.44,0.039C267.499,100.833,267.42,100.835,267.345,100.835z M233.75,100.835
		c-0.079,0-0.158-0.002-0.235-0.002c0.152-0.014,0.3-0.026,0.448-0.044C233.892,100.807,233.819,100.821,233.75,100.835z
		 M223.47,102.118c2.638-0.43,5.31-0.664,8.009-0.711c-0.856,0.259-1.577,0.544-2.143,0.85c-4.151,0.111-8.269,0.435-12.345,0.983
		c2.151-0.418,4.308-0.797,6.476-1.135L223.47,102.118z M199.663,107.601c9.34-2.823,18.971-4.406,28.806-4.741
		c-0.329,0.319-0.506,0.651-0.506,1c0,0.004,0.004,0.004,0.004,0.01c-11.708,0.936-23.181,3.111-34.252,6.476
		C194.988,109.397,196.996,108.462,199.663,107.601z M228.128,104.435c0.096,0.169,0.235,0.332,0.412,0.491
		c-12.484,1.522-24.66,4.342-36.363,8.385c-0.058-0.188-0.088-0.376-0.088-0.567c0-0.491,0.215-0.987,0.625-1.484
		C204.143,107.689,216.011,105.397,228.128,104.435z M81.225,282.205c-0.004,0.387-0.014,0.77-0.014,1.152
		c0,18.94,3.032,37.211,9.006,54.513c-1.626-1.391-2.738-2.824-3.276-4.284c-6.595-18.146-10.066-37.165-10.364-56.688
		C77.364,278.702,78.916,280.478,81.225,282.205z M81.788,283.357c0-0.248,0.008-0.498,0.01-0.746
		c5.131,3.638,13.584,7.068,25.076,10.16c-0.016,0.938-0.031,1.875-0.031,2.807c0,18.488,2.476,36.221,7.28,52.69
		c-10.572-2.915-18.484-6.191-23.06-9.71C84.913,321.06,81.788,302.558,81.788,283.357z M114.305,348.901
		c4.321,14.601,10.474,28.196,18.373,40.428c1.457,2.261,2.971,4.458,4.523,6.593c-8.455-2.42-14.704-5.131-18.159-8.033
		c-9.063-10.82-16.624-22.831-22.582-35.903c-1.872-4.107-3.563-8.278-5.077-12.509C96.102,342.845,103.855,346.029,114.305,348.901
		z M120.708,389.839c3.846,2.515,9.671,4.851,17.134,6.955c8.665,11.716,18.787,21.555,30.078,29.29
		c-3.649-1.156-6.614-2.4-8.767-3.717h-0.002c-8.072-4.994-15.726-10.637-22.92-16.928l0.002-0.002
		C130.662,400.572,125.489,395.364,120.708,389.839z M169.666,427.258c3.542,2.334,7.193,4.466,10.949,6.384
		c-5.558-2.439-10.968-5.154-16.207-8.144C165.993,426.107,167.752,426.692,169.666,427.258z M193.984,432.091
		c10.352,1.402,22.236,2.418,35.035,2.959c1.866,4.14,3.85,7.39,5.937,9.653c0.383,0.414,0.77,0.787,1.156,1.138
		c-7.974-0.378-15.398-1.055-21.828-1.993C207.133,441.367,200.317,437.406,193.984,432.091z M235.381,444.312
		c-2.03-2.204-3.942-5.319-5.728-9.238c6.745,0.275,13.736,0.42,20.889,0.42c7.158,0,14.151-0.145,20.898-0.42
		c-1.789,3.919-3.698,7.034-5.731,9.238c-0.545,0.595-1.099,1.112-1.657,1.57c-4.369,0.19-8.89,0.288-13.509,0.288
		c-4.611,0-9.136-0.098-13.507-0.288C236.478,445.425,235.927,444.907,235.381,444.312z M266.137,444.703
		c2.082-2.264,4.07-5.514,5.933-9.653c12.807-0.537,24.688-1.557,35.035-2.959c-6.341,5.327-13.165,9.29-20.323,11.768
		c-6.42,0.936-13.831,1.61-21.804,1.985C265.366,445.492,265.754,445.121,266.137,444.703z M309.052,431.177
		c8.096-7.174,15.369-16.595,21.523-27.998c12.346-1.68,23.104-3.751,31.759-6.131c-8.926,11.936-19.386,21.892-31.064,29.623
		C325.301,428.406,317.749,429.928,309.052,431.177z M363.248,396.798c7.459-2.103,13.286-4.438,17.132-6.955
		c-4.778,5.523-9.952,10.731-15.52,15.595v0.002c-7.176,6.27-14.808,11.907-22.861,16.888c-2.156,1.333-5.145,2.594-8.832,3.761
		C344.46,418.353,354.581,408.512,363.248,396.798z M382.044,387.896c-3.457,2.905-9.707,5.614-18.159,8.034
		c1.559-2.143,3.068-4.34,4.531-6.601c7.896-12.231,14.052-25.827,18.37-40.428c10.451-2.868,18.204-6.053,22.927-9.421
		c-1.518,4.229-3.207,8.397-5.079,12.505C398.674,365.062,391.108,377.07,382.044,387.896z M394.215,292.221
		c-0.315-19.591-3.388-39.045-8.994-57.715c10.989-2.912,19.107-6.143,24.087-9.571c6.42,18.241,9.828,37.475,9.979,57.054
		C414.215,285.695,405.623,289.15,394.215,292.221z M409.796,224.587c2.868-2.076,4.604-4.221,5.135-6.412
		c6.319,17.758,9.619,36.614,9.619,55.978l0,0c0,2.547-1.63,5.028-4.69,7.402C419.659,262.005,416.224,242.802,409.796,224.587z
		 M411.329,207.482c-6.434-14.809-15.035-28.728-25.664-41.368c0.02-0.172,0.034-0.34,0.034-0.511c0-0.465-0.072-0.931-0.199-1.394
		c10.413,12.773,18.921,26.889,25.373,42.158C411.033,206.736,411.177,207.11,411.329,207.482z M383.524,161.842h-0.004
		c1.027,1.2,1.561,2.421,1.596,3.629c-3.498-4.114-7.201-8.1-11.124-11.929c-8.512-8.322-17.756-15.664-27.576-21.993
		c0.048-0.233,0.076-0.467,0.076-0.699c0-0.762-0.248-1.506-0.719-2.251c6.608,4.202,12.926,8.902,18.822,14.027h0.002
		c3.08,2.682,6.079,5.477,8.988,8.388C377.064,154.5,380.372,158.113,383.524,161.842z M329.774,119.059
		c-6.811-3.263-13.843-6.035-21.049-8.297c-0.412-0.466-0.981-0.917-1.691-1.364c3.784,1.301,7.536,2.726,11.245,4.298
		C322.188,115.348,326.016,117.14,329.774,119.059z M182.812,113.695c3.711-1.572,7.459-2.995,11.243-4.298
		c-0.708,0.446-1.268,0.897-1.68,1.364c-7.214,2.262-14.259,5.035-21.078,8.31C175.063,117.146,178.899,115.352,182.812,113.695z
		 M127.507,151.015c2.909-2.912,5.91-5.707,8.988-8.388h0.002c5.895-5.125,12.209-9.821,18.81-14.019
		c-0.465,0.739-0.704,1.486-0.704,2.243c0,0.232,0.033,0.466,0.075,0.696c-9.821,6.332-19.065,13.674-27.577,21.996
		c-3.921,3.826-7.624,7.811-11.122,11.929c0.039-1.226,0.579-2.458,1.625-3.666l-0.006-0.004
		C120.742,158.087,124.038,154.483,127.507,151.015z M115.598,164.206c-0.131,0.464-0.202,0.929-0.202,1.397
		c0,0.17,0.017,0.339,0.035,0.509c-10.643,12.653-19.252,26.593-25.688,41.418c0.158-0.387,0.31-0.777,0.474-1.162
		C96.67,191.099,105.182,176.978,115.598,164.206z M88.028,336.468c0.675,0.802,1.52,1.603,2.528,2.392
		c1.595,4.522,3.38,8.984,5.377,13.364c3.53,7.744,7.619,15.112,12.248,22.09c-7.107-10.091-13.115-20.912-17.963-32.38
		C89.451,340.121,88.728,338.293,88.028,336.468z M223.9,446.268v-0.02c-2.13-0.329-4.236-0.792-6.32-1.369
		c5.827,0.73,12.341,1.266,19.244,1.569c0.781,0.621,1.578,1.106,2.38,1.468C234.059,447.589,228.955,447.041,223.9,446.268z
		 M242.115,448.088c-1.439-0.104-2.867-0.634-4.261-1.594c4.119,0.172,8.369,0.256,12.689,0.256c4.33,0,8.578-0.084,12.687-0.254
		c-1.392,0.958-2.815,1.487-4.257,1.592c-2.798,0.133-5.611,0.207-8.43,0.207C247.722,448.295,244.914,448.221,242.115,448.088z
		 M264.264,446.448c6.907-0.298,13.41-0.831,19.226-1.563c-2.072,0.576-4.175,1.036-6.297,1.363l0.006,0.02
		c-5.062,0.773-10.167,1.321-15.312,1.648C262.69,447.557,263.482,447.071,264.264,446.448z M320.486,433.642
		c3.749-1.918,7.396-4.048,10.931-6.384c1.91-0.556,3.663-1.139,5.239-1.743C331.432,428.491,326.031,431.202,320.486,433.642z
		 M410.873,341.934c-4.84,11.454-10.843,22.267-17.934,32.346c4.615-6.965,8.695-14.319,12.22-22.056
		c1.999-4.38,3.78-8.836,5.377-13.363c1.009-0.782,1.848-1.579,2.526-2.383C412.359,338.303,411.641,340.121,410.873,341.934z
		 M414.128,333.644c-0.546,1.442-1.646,2.856-3.251,4.23c5.97-17.3,9.008-35.574,9.008-54.517c0-0.383-0.016-0.766-0.018-1.152
		c2.307-1.728,3.859-3.495,4.648-5.296C424.215,296.447,420.737,315.482,414.128,333.644z"/>
	<g opacity="0.6">
		
			<image overflow="visible" width="353" height="333" xlink:href="9B4D61C451528B5E.png"  transform="matrix(0.4728 0 0 0.4728 199.5129 89.1016)">
		</image>
	</g>
	<linearGradient id="SVGID_3_" gradientUnits="userSpaceOnUse" x1="293.6565" y1="159.1284" x2="293.6565" y2="114.8599">
		<stop  offset="0" style="stop-color:#9B1006"/>
		<stop  offset="1" style="stop-color:#D10A11"/>
	</linearGradient>
	<path fill-rule="evenodd" clip-rule="evenodd" fill="url(#SVGID_3_)" d="M320.291,129.308c0-14.708-11.925-26.632-26.634-26.632
		c-14.706,0-26.636,11.924-26.636,26.632c0,10.389,5.954,19.381,14.631,23.771l12.005,20.145l12.004-20.145
		C314.338,148.689,320.291,139.697,320.291,129.308z"/>
	<path fill-rule="evenodd" clip-rule="evenodd" fill="#FFFFFF" d="M279.824,125.487l3.451,2.42l3.444,2.418c0,0,0,0,0.002,0
		l1.222,0.856l-0.47,1.387v0.002l-1.327,3.924l-1.322,3.932c-0.254,0.756,0.081,0.993,0.745,0.521l3.439-2.438l3.432-2.436l0,0
		l1.221-0.862l1.212,0.862l0,0l3.432,2.436l3.438,2.438c0.663,0.472,1.002,0.235,0.75-0.521l-1.329-3.932l-1.322-3.922v-0.004
		l-0.468-1.387l4.666-3.274l3.447-2.418c0.672-0.467,0.541-0.852-0.283-0.852l-4.255,0.007l-4.252,0.01c-0.006,0-0.006,0-0.006,0
		l-1.499,0.004l-1.768-5.319l-1.307-3.931c-0.254-0.766-0.669-0.766-0.923,0l-1.305,3.931l-1.766,5.319l-1.505-0.004l0,0
		l-4.252-0.01l-4.257-0.007C279.289,124.637,279.158,125.018,279.824,125.487z"/>
	<g opacity="0.6">
		
			<image overflow="visible" width="353" height="333" xlink:href="9B4D61C451528B59.png"  transform="matrix(0.4728 0 0 0.4728 116.283 183.4336)">
		</image>
	</g>
	<linearGradient id="SVGID_4_" gradientUnits="userSpaceOnUse" x1="210.5906" y1="253.4614" x2="210.5906" y2="209.1951">
		<stop  offset="0" style="stop-color:#9B1006"/>
		<stop  offset="1" style="stop-color:#D10A11"/>
	</linearGradient>
	<path fill-rule="evenodd" clip-rule="evenodd" fill="url(#SVGID_4_)" d="M237.224,223.642c0-14.709-11.924-26.63-26.634-26.63
		c-14.708,0-26.634,11.92-26.634,26.63c0,10.389,5.953,19.381,14.629,23.771l12.005,20.143l12.004-20.143
		C231.27,243.023,237.224,234.031,237.224,223.642z"/>
	<polygon fill-rule="evenodd" clip-rule="evenodd" fill="#FFFFFF" points="223.391,222.819 210.591,210.018 197.789,222.819 
		201.718,222.819 201.718,236.242 207.177,236.242 207.177,229.075 214.003,229.075 214.003,236.242 219.463,236.242 
		219.463,222.819 	"/>
</g>
</svg>
