<?xml version="1.0" ?><!DOCTYPE svg  PUBLIC '-//W3C//DTD SVG 1.1//EN'  'http://www.w3.org/Graphics/SVG/1.1/DTD/svg11.dtd'><svg enable-background="new 0 0 512 512" height="512px" id="Layer_1" version="1.1" viewBox="0 0 512 512" width="512px" xml:space="preserve" xmlns="http://www.w3.org/2000/svg" xmlns:xlink="http://www.w3.org/1999/xlink"><g><g><path d="M166,288.477l-5.929-5.929v-75.084c0,0-0.123-3.951-1.976-3.951h-3.952c-1.976,0-1.976,3.951-1.976,3.951v136.338    c0,0,6.437,3.354,13.831,9.434L166,288.477L166,288.477z"/></g><g><rect height="11.855" width="294.408" x="183.783" y="351.705"/></g><g><polygon fill="#333333" points="478.191,385.295 452.505,385.295 434.722,391.223 349.758,391.223 345.807,387.271     235.156,387.271 235.156,401.103 169.951,401.103 169.951,361.585 478.191,361.585   "/></g><defs><filter filterUnits="userSpaceOnUse" height="29.639" id="Adobe_OpacityMaskFilter" width="113.649" x="340.06" y="361.585"><feColorMatrix type="matrix" values="1 0 0 0 0  0 1 0 0 0  0 0 1 0 0  0 0 0 1 0"/></filter></defs><mask height="29.639" id="SVGID_2_" maskUnits="userSpaceOnUse" width="113.649" x="340.06" y="361.585"><g filter="url(#Adobe_OpacityMaskFilter)"><linearGradient gradientTransform="matrix(1 0 0 -1 -40.9995 348.0991)" gradientUnits="userSpaceOnUse" id="SVGID_1_" x1="437.8831" x2="437.8831" y1="-13.4856" y2="-43.1243"><stop offset="0" style="stop-color:#FFFFFF"/><stop offset="1" style="stop-color:#404040"/></linearGradient><path d="M453.709,385.295c-2.833-9.023-7.758-17.118-14.222-23.71H354.87     c-6.933,7.067-12.102,15.864-14.811,25.688h5.746l3.951,3.951h84.964l17.783-5.929H453.709z" fill="url(#SVGID_1_)"/></g></mask><path d="M453.709,385.295   c-2.833-9.023-7.758-17.118-14.222-23.71H354.87c-6.933,7.067-12.102,15.864-14.811,25.688h5.746l3.951,3.951h84.964l17.783-5.929   H453.709z" enable-background="new    " mask="url(#SVGID_2_)" opacity="0.75"/><g><rect height="29.639" width="9.88" x="478.191" y="361.585"/></g><g><g><linearGradient gradientTransform="matrix(1 0 0 -1 -40.9995 348.0991)" gradientUnits="userSpaceOnUse" id="SVGID_3_" x1="286.0344" x2="286.0344" y1="-21.3889" y2="-64.8586"><stop offset="0" style="stop-color:#9E9E9E"/><stop offset="0.2857" style="stop-color:#EDEDED"/><stop offset="0.5824" style="stop-color:#121212"/><stop offset="1" style="stop-color:#666666"/></linearGradient><path d="M288.505,407.03c0,3.261-2.666,5.928-5.927,5.928h-75.084c-3.262,0-5.929-2.667-5.929-5.928     v-31.614c0-3.261,2.667-5.928,5.929-5.928h75.084c3.261,0,5.927,2.667,5.927,5.928V407.03z" fill="url(#SVGID_3_)"/></g><g><g><defs><filter filterUnits="userSpaceOnUse" height="43.47" id="Adobe_OpacityMaskFilter_1_" width="1.976" x="221.325" y="369.488"><feColorMatrix type="matrix" values="1 0 0 0 0  0 1 0 0 0  0 0 1 0 0  0 0 0 1 0"/></filter></defs><mask height="43.47" id="SVGID_6_" maskUnits="userSpaceOnUse" width="1.976" x="221.325" y="369.488"><g filter="url(#Adobe_OpacityMaskFilter_1_)"><linearGradient gradientTransform="matrix(1 0 0 -1 -40.9995 348.0991)" gradientUnits="userSpaceOnUse" id="SVGID_4_" x1="263.3127" x2="263.3127" y1="-21.3889" y2="-64.8586"><stop offset="0" style="stop-color:#404040"/><stop offset="0.2912" style="stop-color:#FFFFFF"/><stop offset="1" style="stop-color:#000000"/></linearGradient><rect fill="url(#SVGID_4_)" height="43.47" width="1.976" x="221.325" y="369.488"/></g></mask><rect enable-background="new    " fill="#FFFFFF" height="43.47" mask="url(#SVGID_6_)" opacity="0.5" width="1.976" x="221.325" y="369.488"/><defs><filter filterUnits="userSpaceOnUse" height="43.47" id="Adobe_OpacityMaskFilter_2_" width="1.976" x="223.301" y="369.488"><feColorMatrix type="matrix" values="1 0 0 0 0  0 1 0 0 0  0 0 1 0 0  0 0 0 1 0"/></filter></defs><mask height="43.47" id="SVGID_8_" maskUnits="userSpaceOnUse" width="1.976" x="223.301" y="369.488"><g filter="url(#Adobe_OpacityMaskFilter_2_)"><linearGradient gradientTransform="matrix(1 0 0 -1 -40.9995 348.0991)" gradientUnits="userSpaceOnUse" id="SVGID_5_" x1="265.2874" x2="265.2874" y1="-21.3889" y2="-64.8586"><stop offset="0" style="stop-color:#404040"/><stop offset="0.2912" style="stop-color:#FFFFFF"/><stop offset="1" style="stop-color:#000000"/></linearGradient><rect fill="url(#SVGID_5_)" height="43.47" width="1.976" x="223.301" y="369.488"/></g></mask><rect enable-background="new    " height="43.47" mask="url(#SVGID_8_)" opacity="0.5" width="1.976" x="223.301" y="369.488"/></g><g><defs><filter filterUnits="userSpaceOnUse" height="43.47" id="Adobe_OpacityMaskFilter_3_" width="1.976" x="264.795" y="369.488"><feColorMatrix type="matrix" values="1 0 0 0 0  0 1 0 0 0  0 0 1 0 0  0 0 0 1 0"/></filter></defs><mask height="43.47" id="SVGID_10_" maskUnits="userSpaceOnUse" width="1.976" x="264.795" y="369.488"><g filter="url(#Adobe_OpacityMaskFilter_3_)"><linearGradient gradientTransform="matrix(1 0 0 -1 -40.9995 348.0991)" gradientUnits="userSpaceOnUse" id="SVGID_7_" x1="306.7815" x2="306.7815" y1="-21.3889" y2="-64.8586"><stop offset="0" style="stop-color:#404040"/><stop offset="0.2912" style="stop-color:#FFFFFF"/><stop offset="1" style="stop-color:#000000"/></linearGradient><rect fill="url(#SVGID_7_)" height="43.47" width="1.976" x="264.795" y="369.488"/></g></mask><rect enable-background="new    " fill="#FFFFFF" height="43.47" mask="url(#SVGID_10_)" opacity="0.5" width="1.976" x="264.795" y="369.488"/><defs><filter filterUnits="userSpaceOnUse" height="43.47" id="Adobe_OpacityMaskFilter_4_" width="1.977" x="266.771" y="369.488"><feColorMatrix type="matrix" values="1 0 0 0 0  0 1 0 0 0  0 0 1 0 0  0 0 0 1 0"/></filter></defs><mask height="43.47" id="SVGID_12_" maskUnits="userSpaceOnUse" width="1.977" x="266.771" y="369.488"><g filter="url(#Adobe_OpacityMaskFilter_4_)"><linearGradient gradientTransform="matrix(1 0 0 -1 -40.9995 348.0991)" gradientUnits="userSpaceOnUse" id="SVGID_9_" x1="308.7581" x2="308.7581" y1="-21.3889" y2="-64.8586"><stop offset="0" style="stop-color:#404040"/><stop offset="0.2912" style="stop-color:#FFFFFF"/><stop offset="1" style="stop-color:#000000"/></linearGradient><rect fill="url(#SVGID_9_)" height="43.47" width="1.977" x="266.771" y="369.488"/></g></mask><rect enable-background="new    " height="43.47" mask="url(#SVGID_12_)" opacity="0.5" width="1.977" x="266.771" y="369.488"/></g></g><g opacity="0.5"><g><path d="M282.578,370.488c2.717,0,4.927,2.211,4.927,4.928v31.614c0,2.717-2.21,4.928-4.927,4.928h-75.084      c-2.718,0-4.929-2.211-4.929-4.928v-31.614c0-2.717,2.21-4.928,4.929-4.928H282.578 M282.578,369.488h-75.084      c-3.262,0-5.929,2.667-5.929,5.928v31.614c0,3.261,2.667,5.928,5.929,5.928h75.084c3.261,0,5.927-2.667,5.927-5.928v-31.614      C288.505,372.155,285.839,369.488,282.578,369.488L282.578,369.488z"/></g></g></g><linearGradient gradientTransform="matrix(1 0 0 -1 -40.9995 348.0991)" gradientUnits="userSpaceOnUse" id="SVGID_11_" x1="176.3728" x2="176.3728" y1="2.908" y2="-74.7385"><stop offset="0" style="stop-color:#000000"/><stop offset="1" style="stop-color:#000000"/></linearGradient><path d="M201.566,410.982v-19.76h-13.832v13.832c0,0-0.19,1.976-1.976,1.976c0,0-0.475-15.021-1.191-19.393   c-2.318-15.085-34.375-41.86-34.375-41.86s-57.2-2.442-63.761,2.646c-22.312,17.356-14.885,70.461-17.25,70.461l15.807,3.953   l90.13-6.828c9.188-1.824,12.617-3.053,24.473-3.053C201.566,412.958,201.566,410.982,201.566,410.982z" fill="url(#SVGID_11_)"/><defs><filter filterUnits="userSpaceOnUse" height="77.646" id="Adobe_OpacityMaskFilter_5_" width="132.385" x="69.181" y="345.191"><feColorMatrix type="matrix" values="1 0 0 0 0  0 1 0 0 0  0 0 1 0 0  0 0 0 1 0"/></filter></defs><mask height="77.646" id="SVGID_15_" maskUnits="userSpaceOnUse" width="132.385" x="69.181" y="345.191"><g filter="url(#Adobe_OpacityMaskFilter_5_)"><linearGradient gradientTransform="matrix(1 0 0 -1 -40.9995 348.0991)" gradientUnits="userSpaceOnUse" id="SVGID_13_" x1="176.3728" x2="176.3728" y1="2.908" y2="-74.7385"><stop offset="0" style="stop-color:#FFFFFF"/><stop offset="1" style="stop-color:#000000"/></linearGradient><path d="M201.566,410.982v-19.76h-13.832v13.832c0,0-0.19,1.976-1.976,1.976     c0,0-0.475-15.021-1.191-19.393c-2.318-15.085-34.375-41.86-34.375-41.86s-57.2-2.442-63.761,2.646     c-22.312,17.356-14.885,70.461-17.25,70.461l15.807,3.953l90.13-6.828c9.188-1.824,12.617-3.053,24.473-3.053     C201.566,412.958,201.566,410.982,201.566,410.982z" fill="url(#SVGID_13_)"/></g></mask><path d="M201.566,410.982v-19.76h-13.832v13.832c0,0-0.19,1.976-1.976,1.976c0,0-0.475-15.021-1.191-19.393   c-2.318-15.085-34.375-41.86-34.375-41.86s-57.2-2.442-63.761,2.646c-22.312,17.356-14.885,70.461-17.25,70.461l15.807,3.953   l90.13-6.828c9.188-1.824,12.617-3.053,24.473-3.053C201.566,412.958,201.566,410.982,201.566,410.982z" mask="url(#SVGID_15_)"/><g><linearGradient gradientTransform="matrix(1 0 0 -1 -40.9995 348.0991)" gradientUnits="userSpaceOnUse" id="SVGID_14_" x1="118.0842" x2="118.0842" y1="144.5857" y2="-70.7874"><stop offset="0" style="stop-color:#E9E9E9"/><stop offset="1" style="stop-color:#C6C6C6"/></linearGradient><path d="M148.216,203.513H85.387l-24.894,2.258c-9.324,0.891-15.572,5.13-18.475,11.777l-1.578,3.748    h1.016c0,0-28.959,68.693-29.146,69.156H11.26c-2.007,4.346-4.456,8.978-5.112,14.645c-0.579,4.948-2.172,11.043-2.172,15.885    v28.749l3.952,1.976v2.601c0,1.353,0,3.328-1.976,3.328c-0.627,8.431-3.952,21.733,0,25.687v9.88c0,0,0,1.977-1.977,1.977    C2,401.103,2,403.078,2,409.006c0,5.929,1.976,9.881,5.928,9.881h61.253c2.366,0,3.952-1.227,3.952-3.454    c0-34.088,2.842-43.724,25.154-61.079c6.561-5.091,14.363-6.601,32.168-6.601h19.737l1.977-3.95V207.464    C152.168,205.489,150.192,203.513,148.216,203.513z" fill="url(#SVGID_14_)"/></g><g opacity="0.3"><g><path d="M148.216,206.513L148.216,206.513c0.33,0.008,0.944,0.622,0.952,0.951v135.63l-0.83,1.658h-17.884     c-18.691,0-26.954,1.757-34.011,7.231c-23.728,18.458-26.313,29.167-26.313,63.447c0,0.188-0.031,0.271-0.027,0.272     c-0.059,0.049-0.341,0.181-0.925,0.181H7.928c-2.717,0-2.928-5.266-2.928-6.88c0-5.271,0-7.065,1.335-11.375     c1.712-0.88,2.616-2.694,2.616-4.432v-9.88v-1.242l-0.879-0.879c-1.899-1.9-0.698-10.76,0.019-16.053     c0.252-1.857,0.494-3.643,0.672-5.319c1.188-0.823,2.165-2.438,2.165-5.521v-2.601v-1.854l-1.659-0.829l-2.293-1.146V320.98     c0-2.776,0.607-6.188,1.194-9.487c0.359-2.024,0.732-4.12,0.958-6.053c0.515-4.441,2.297-8.28,4.041-11.988h1.898l0.772-1.839     l29.031-69.156l1.747-4.161h-1.644c2.61-5.504,8.063-8.799,15.79-9.538l24.758-2.245L148.216,206.513 M148.216,203.513H85.387     l-24.894,2.258c-9.324,0.891-15.572,5.13-18.475,11.777l-1.578,3.748h1.663l-29.03,69.156H11.26     c-2.007,4.346-4.456,8.978-5.112,14.645c-0.579,4.948-2.172,11.043-2.172,15.885v28.749l3.952,1.976v2.601     c0,1.353,0,3.328-1.976,3.328c-0.627,8.431-3.952,21.733,0,25.687v9.88c0,0,0,1.977-1.977,1.977C2,401.103,2,403.078,2,409.006     c0,5.929,1.976,9.881,5.928,9.881h61.253c2.366,0,3.952-1.227,3.952-3.454c0-34.088,2.842-43.724,25.154-61.079     c6.561-5.091,14.363-6.601,32.168-6.601h19.737l1.977-3.95V207.464C152.168,205.489,150.192,203.513,148.216,203.513     L148.216,203.513z"/></g></g><linearGradient gradientTransform="matrix(1 0 0 -1 -40.9995 348.0991)" gradientUnits="userSpaceOnUse" id="SVGID_16_" x1="122.0349" x2="122.0349" y1="120.8748" y2="53.696"><stop offset="0" style="stop-color:#C1D6F4"/><stop offset="1" style="stop-color:#9BBCED"/></linearGradient><path d="M116.533,227.224H61.277c-2.821,0.056-6.051,3.111-7.998,7.604   c-4.942,11.429-9.344,23.353-13.077,35.438l-0.179,0.605c-0.978,3.332-2.457,8.37-2.457,13.651c0,9.459,5.131,9.88,15.808,9.88   c15.476,0,59.251-6.723,59.691-6.791c5.817-0.692,11.44-5.491,11.44-8.574v-46.94C124.506,228.068,120.17,227.224,116.533,227.224   L116.533,227.224z" fill="url(#SVGID_16_)"/><defs><filter filterUnits="userSpaceOnUse" height="41.652" id="Adobe_OpacityMaskFilter_6_" width="80.439" x="42.09" y="229.2"><feColorMatrix type="matrix" values="1 0 0 0 0  0 1 0 0 0  0 0 1 0 0  0 0 0 1 0"/></filter></defs><mask height="41.652" id="SVGID_19_" maskUnits="userSpaceOnUse" width="80.439" x="42.09" y="229.2"><g filter="url(#Adobe_OpacityMaskFilter_6_)"><linearGradient gradientTransform="matrix(1 0 0 -1 -40.9995 348.0991)" gradientUnits="userSpaceOnUse" id="SVGID_17_" x1="83.0896" x2="163.5291" y1="98.073" y2="98.073"><stop offset="0" style="stop-color:#FFFFFF"/><stop offset="1" style="stop-color:#000000"/></linearGradient><path d="M122.53,248.958v-16.859c0-1.925-2.018-2.898-5.996-2.898l0,0H61.277     c-1.688,0.035-4.379,2.248-6.185,6.414c-4.917,11.367-9.292,23.223-13.002,35.238C42.089,270.852,68.63,254.577,122.53,248.958z" fill="url(#SVGID_17_)"/></g></mask><path d="M122.53,248.958v-16.859   c0-1.925-2.018-2.898-5.996-2.898l0,0H61.277c-1.688,0.035-4.379,2.248-6.185,6.414c-4.917,11.367-9.292,23.223-13.002,35.238   C42.089,270.852,68.63,254.577,122.53,248.958z" enable-background="new    " fill="#FFFFFF" mask="url(#SVGID_19_)" opacity="0.3"/><g><radialGradient cx="170.0574" cy="-54.9792" gradientTransform="matrix(1 0 0 -1 -41.6001 348.0991)" gradientUnits="userSpaceOnUse" id="SVGID_18_" r="27.6628"><stop offset="0.1319" style="stop-color:#FFFFFF"/><stop offset="1" style="stop-color:#000000"/></radialGradient><path d="M128.459,430.741c15.229,0,27.661-12.435,27.661-27.665c0-15.229-12.433-27.66-27.661-27.66    c-15.229,0-27.665,12.432-27.665,27.66C100.795,418.307,113.23,430.741,128.459,430.741z" fill="url(#SVGID_18_)"/><path d="M128.461,414.934c6.543,0,11.852-5.309,11.852-11.855    c0-6.543-5.309-11.854-11.852-11.854c-6.551,0-11.859,5.313-11.859,11.854C116.602,409.626,121.911,414.934,128.461,414.934z" enable-background="new    " fill="#333333" opacity="0.75"/><linearGradient gradientTransform="matrix(1 0 0 -1 -40.9995 348.0991)" gradientUnits="userSpaceOnUse" id="SVGID_20_" x1="162.4763" x2="176.4376" y1="-47.9988" y2="-61.9601"><stop offset="0" style="stop-color:#FFFFFF"/><stop offset="0.4607" style="stop-color:#D9D9D9"/><stop offset="1" style="stop-color:#FFFFFF"/></linearGradient><path d="M128.461,412.958c5.438,0,9.875-4.435,9.875-9.88c0-5.442-4.437-9.879-9.875-9.879    c-5.445,0-9.883,4.437-9.883,9.879C118.578,408.523,123.016,412.958,128.461,412.958z" fill="url(#SVGID_20_)"/><path d="M128.454,355.657c-26.186,0-47.417,21.229-47.417,47.413c0,26.19,21.232,47.43,47.417,47.43    c26.191,0,47.425-21.238,47.425-47.43C175.879,376.886,154.646,355.657,128.454,355.657z M128.452,432.663    c-16.359,0-29.634-13.261-29.634-29.617c0-16.346,13.274-29.605,29.634-29.605c16.37,0,29.639,13.261,29.639,29.605    C158.09,419.402,144.822,432.663,128.452,432.663z"/><linearGradient gradientTransform="matrix(1 0 0 -1 -40.9995 348.0991)" gradientUnits="userSpaceOnUse" id="SVGID_21_" x1="138.8308" x2="200.0837" y1="-54.9792" y2="-54.9792"><stop offset="0" style="stop-color:#A6A6A6"/><stop offset="0.0086" style="stop-color:#AAAAAA"/><stop offset="0.1087" style="stop-color:#D8D8D8"/><stop offset="0.1859" style="stop-color:#F4F4F4"/><stop offset="0.2303" style="stop-color:#FFFFFF"/><stop offset="0.4607" style="stop-color:#C2C2C2"/><stop offset="0.764" style="stop-color:#FFFFFF"/><stop offset="0.8362" style="stop-color:#E6E6E6"/><stop offset="0.9889" style="stop-color:#A6A6A6"/><stop offset="1" style="stop-color:#A1A1A1"/></linearGradient><path d="M128.452,372.452c-16.907,0-30.621,13.716-30.621,30.62c0,16.917,13.714,30.633,30.621,30.633    c16.918,0,30.632-13.716,30.632-30.633C159.084,386.168,145.37,372.452,128.452,372.452z M128.458,428.765    c-14.188,0-25.688-11.502-25.688-25.688s11.498-25.687,25.688-25.687c14.185,0,25.687,11.501,25.687,25.687    C154.144,417.263,142.642,428.765,128.458,428.765z" fill="url(#SVGID_21_)"/><g opacity="0.5"><linearGradient gradientTransform="matrix(1 0 0 -1 -41.6001 348.0991)" gradientUnits="userSpaceOnUse" id="SVGID_22_" x1="135.4802" x2="204.6365" y1="-73.7502" y2="-73.7502"><stop offset="0" style="stop-color:#FFFFFF;stop-opacity:0.1"/><stop offset="0.5" style="stop-color:#FFFFFF"/><stop offset="1" style="stop-color:#FFFFFF;stop-opacity:0.1"/></linearGradient><path d="M128.458,437.656c-18.768,0-34.001-14.954-34.528-33.59c-0.01,0.332-0.05,0.654-0.05,0.988     c0,19.097,15.477,34.578,34.578,34.578c19.091,0,34.578-15.481,34.578-34.578c0-0.334-0.041-0.656-0.051-0.988     C162.457,422.702,147.215,437.656,128.458,437.656z" fill="url(#SVGID_22_)"/></g><linearGradient gradientTransform="matrix(1 0 0 -1 -41.6001 348.0991)" gradientUnits="userSpaceOnUse" id="SVGID_23_" x1="131.5134" x2="208.6033" y1="-24.6072" y2="-24.6072"><stop offset="0" style="stop-color:#FFFFFF;stop-opacity:0.1"/><stop offset="0.5" style="stop-color:#FFFFFF"/><stop offset="1" style="stop-color:#FFFFFF;stop-opacity:0.1"/></linearGradient><path d="M128.458,361.585    c16.938,0,31.543,10.473,38.545,24.219c-6.094-15.339-21.036-26.194-38.545-26.194c-17.512,0-32.452,10.855-38.545,26.191    C96.915,372.057,111.52,361.585,128.458,361.585z" enable-background="new    " fill="url(#SVGID_23_)" opacity="0.5"/></g><g opacity="0.3"><path d="M124.506,225.271c0.875,0,1.952,1.076,1.952,1.952V337.85h-3.009c-32.222,0-40.996,15.598-54.862,41.506h-38.9v-70.974    c0.452-5.755,1.358-11.423,2.771-17.321c4.718-19.542,11.122-38.724,19.031-57.008c2.28-5.264,6.139-8.709,9.789-8.781    L124.506,225.271 M124.506,223.271H61.277c-4.465,0.087-8.993,3.916-11.624,9.985c-7.854,18.158-14.325,37.388-19.142,57.333    c-1.3,5.437-2.326,11.307-2.825,17.715v73.051h42.099c14.322-26.773,22.3-41.506,53.663-41.506h5.01V227.224    C128.458,225.248,126.481,223.271,124.506,223.271L124.506,223.271z"/></g><g><linearGradient gradientTransform="matrix(1 0 0 -1 -40.9995 348.0991)" gradientUnits="userSpaceOnUse" id="SVGID_24_" x1="130.9275" x2="130.9275" y1="10.2253" y2="-70.7874"><stop offset="0" style="stop-color:#545D67"/><stop offset="1" style="stop-color:#191E22"/></linearGradient><path d="M130.455,347.753h19.737l1.977-3.95v-5.929h-28.72c-31.363,0-41.316,14.732-55.641,41.505H27.687    v39.508h41.494c2.366,0,3.952-1.227,3.952-3.454c0-34.089,2.842-43.724,25.154-61.079    C104.847,349.262,112.65,347.753,130.455,347.753z" fill="url(#SVGID_24_)"/></g><rect enable-background="new    " height="1.976" opacity="0.5" width="45.446" x="27.687" y="393.199"/><path d="M31.639,310.312   c30.206-4.108,59.908-7.867,96.854-8.004h23.676" enable-background="new    " fill="none" opacity="0.5" stroke="#595959" stroke-width="2"/><g opacity="0.5"><rect height="9.88" width="21.734" x="5.952" y="383.319"/></g><g><linearGradient gradientTransform="matrix(1 0 0 -1 -40.9995 348.0991)" gradientUnits="userSpaceOnUse" id="SVGID_25_" x1="209.9626" x2="209.9626" y1="4.2966" y2="-58.9319"><stop offset="0" style="stop-color:#545D67"/><stop offset="1" style="stop-color:#191E22"/></linearGradient><path d="M152.168,343.802l-1.977,3.95v1.978c13.654,9.991,26.128,22.823,28.448,37.908    c0.716,4.37,1.728,14.395,1.191,19.393h5.928c1.785,0,1.976-1.976,1.976-1.976v-13.708    C187.734,362.293,152.168,343.802,152.168,343.802z" fill="url(#SVGID_25_)"/></g><g opacity="0.4"><rect height="31.614" width="35.566" x="31.639" y="383.319"/></g><rect enable-background="new    " height="1.977" opacity="0.5" width="43.47" x="29.663" y="416.91"/><rect enable-background="new    " height="39.52" opacity="0.5" width="1.977" x="27.687" y="379.367"/><rect enable-background="new    " height="1.977" opacity="0.5" width="21.734" x="5.952" y="357.633"/><rect enable-background="new    " height="1.976" opacity="0.5" width="9.88" x="21.759" y="288.477"/><linearGradient gradientTransform="matrix(1 0 0 -1 -40.9995 348.0991)" gradientUnits="userSpaceOnUse" id="SVGID_26_" x1="382.8538" x2="382.8538" y1="249.3093" y2="-3.6057"><stop offset="0" style="stop-color:#65C1F6"/><stop offset="0.3225" style="stop-color:#5FB8EC"/><stop offset="0.8679" style="stop-color:#4F9FD1"/><stop offset="1" style="stop-color:#4B98CA"/></linearGradient><rect fill="url(#SVGID_26_)" height="252.915" width="331.95" x="175.879" y="98.79"/><defs><filter filterUnits="userSpaceOnUse" height="118.554" id="Adobe_OpacityMaskFilter_7_" width="320.095" x="181.807" y="104.719"><feColorMatrix type="matrix" values="1 0 0 0 0  0 1 0 0 0  0 0 1 0 0  0 0 0 1 0"/></filter></defs><mask height="118.554" id="SVGID_29_" maskUnits="userSpaceOnUse" width="320.095" x="181.807" y="104.719"><g filter="url(#Adobe_OpacityMaskFilter_7_)"><linearGradient gradientTransform="matrix(1 0 0 -1 -40.9995 348.0991)" gradientUnits="userSpaceOnUse" id="SVGID_27_" x1="310.47" x2="441.0384" y1="299.9177" y2="91.0083"><stop offset="0" style="stop-color:#FFFFFF"/><stop offset="1" style="stop-color:#000000"/></linearGradient><path d="M501.902,171.026v-66.308H181.807v118.554C234.423,201.645,351.266,163.092,501.902,171.026z" fill="url(#SVGID_27_)"/></g></mask><path d="M501.902,171.026v-66.308H181.807   v118.554C234.423,201.645,351.266,163.092,501.902,171.026z" enable-background="new    " fill="#FFFFFF" mask="url(#SVGID_29_)" opacity="0.3"/><g opacity="0.2"><path d="M504.829,101.79v246.915h-325.95V101.79H504.829 M507.829,98.79h-331.95v252.915h331.95V98.79L507.829,98.79z"/></g><path d="M41.443,219.065l-0.941,2.23h2.1l-27.263,69.156h-4.07   c-1.984,4.313-4.457,8.943-5.07,14.645c0,0.13-0.048,0.309-0.048,0.487c7.768-2.1,14.012-6.29,17.313-15.887   c7.629-22.219,16.867-43.861,24.986-65.677C49.252,222.01,46.662,220.275,41.443,219.065z" enable-background="new    " opacity="0.3"/><linearGradient gradientTransform="matrix(1 0 0 -1 -40.9995 348.0991)" gradientUnits="userSpaceOnUse" id="SVGID_28_" x1="52.2595" x2="87.5935" y1="92.2258" y2="92.2258"><stop offset="0" style="stop-color:#C1D6F4"/><stop offset="1" style="stop-color:#9BBCED"/></linearGradient><path d="M12.173,288.407c-0.287,0.675-0.594,1.358-0.913,2.045h9.782c0.186-0.463,0.382-0.909,0.55-1.396   c4.648-13.537,9.963-27.041,15.102-40.102c3.305-8.394,6.721-17.073,9.9-25.621c-0.156-0.212-0.936-1.155-3.993-2.038h-2.159   L12.173,288.407z" fill="url(#SVGID_28_)"/><g><g><linearGradient gradientTransform="matrix(1 0 0 -1 -40.9995 348.0991)" gradientUnits="userSpaceOnUse" id="SVGID_30_" x1="154.6379" x2="154.6379" y1="29.9841" y2="20.1052"><stop offset="0" style="stop-color:#1A1F23"/><stop offset="0.6868" style="stop-color:#4D5B63"/><stop offset="1" style="stop-color:#293035"/></linearGradient><path d="M121.735,318.115h-16.188c-1.542,0-2.776,1.153-2.776,2.601v4.675     c0,1.448,1.234,2.604,2.776,2.604h16.188c1.54,0,2.771-1.155,2.771-2.604v-4.675     C124.506,319.269,123.274,318.115,121.735,318.115z" fill="url(#SVGID_30_)"/></g><g opacity="0.75"><path d="M121.735,318.615c1.273,0,2.271,0.923,2.271,2.101v4.675c0,1.18-0.998,2.104-2.271,2.104h-16.188     c-1.276,0-2.276-0.925-2.276-2.104v-4.675c0-1.178,1-2.101,2.276-2.101H121.735 M121.735,318.115h-16.188     c-1.542,0-2.776,1.153-2.776,2.601v4.675c0,1.448,1.234,2.604,2.776,2.604h16.188c1.54,0,2.771-1.155,2.771-2.604v-4.675     C124.506,319.269,123.274,318.115,121.735,318.115L121.735,318.115z"/></g><g><rect fill="#CCCCCC" height="1.977" width="1.976" x="120.554" y="324.043"/></g><g><path d="M104.747,324.043v1.348c0,0.347,0.358,0.629,0.801,0.629h13.031v-1.977H104.747L104.747,324.043z" fill="#636363"/></g><g opacity="0.5"><path d="M104.747,326.019v1.347c0,0.348,0.358,0.629,0.801,0.629h13.031v-1.976H104.747L104.747,326.019z"/></g><defs><filter filterUnits="userSpaceOnUse" height="1.977" id="Adobe_OpacityMaskFilter_8_" width="13.832" x="104.747" y="324.043"><feColorMatrix type="matrix" values="1 0 0 0 0  0 1 0 0 0  0 0 1 0 0  0 0 0 1 0"/></filter></defs><mask height="1.977" id="SVGID_33_" maskUnits="userSpaceOnUse" width="13.832" x="104.747" y="324.043"><g filter="url(#Adobe_OpacityMaskFilter_8_)"><g><linearGradient gradientTransform="matrix(1 0 0 -1 -40.9995 348.0991)" gradientUnits="userSpaceOnUse" id="SVGID_31_" x1="145.7468" x2="159.5789" y1="23.0681" y2="23.0681"><stop offset="0" style="stop-color:#404040"/><stop offset="0.2912" style="stop-color:#FFFFFF"/><stop offset="1" style="stop-color:#000000"/></linearGradient><path d="M104.747,324.043v1.348c0,0.347,0.358,0.629,0.801,0.629h13.031v-1.977H104.747       L104.747,324.043z" fill="url(#SVGID_31_)"/></g></g></mask><g mask="url(#SVGID_33_)"><path d="M104.747,324.043v1.348c0,0.347,0.358,0.629,0.801,0.629h13.031v-1.977H104.747L104.747,324.043z" fill="#FFFFFF"/></g><g opacity="0.3"><path d="M102.859,322.066c0.296-1.139,1.377-1.977,2.688-1.977h16.188c1.309,0,2.388,0.838,2.683,1.977h0.089v-1.352     c0-1.446-1.231-2.601-2.771-2.601h-16.188c-1.542,0-2.776,1.153-2.776,2.601v1.352H102.859z"/></g><defs><filter filterUnits="userSpaceOnUse" height="3.952" id="Adobe_OpacityMaskFilter_9_" width="21.735" x="102.771" y="326.019"><feColorMatrix type="matrix" values="1 0 0 0 0  0 1 0 0 0  0 0 1 0 0  0 0 0 1 0"/></filter></defs><mask height="3.952" id="SVGID_35_" maskUnits="userSpaceOnUse" width="21.735" x="102.771" y="326.019"><g filter="url(#Adobe_OpacityMaskFilter_9_)"><g><linearGradient gradientTransform="matrix(1 0 0 -1 -40.9995 348.0991)" gradientUnits="userSpaceOnUse" id="SVGID_32_" x1="143.7703" x2="165.5056" y1="20.1038" y2="20.1038"><stop offset="0" style="stop-color:#404040"/><stop offset="0.2912" style="stop-color:#FFFFFF"/><stop offset="1" style="stop-color:#000000"/></linearGradient><path d="M102.859,326.019c0.296,1.139,1.377,1.976,2.688,1.976h16.188c1.309,0,2.388-0.837,2.683-1.976       h0.089v1.351c0,1.447-1.231,2.602-2.771,2.602h-16.188c-1.542,0-2.776-1.153-2.776-2.602v-1.351H102.859z" fill="url(#SVGID_32_)"/></g></g></mask><g mask="url(#SVGID_35_)" opacity="0.5"><path d="M102.859,326.019c0.296,1.139,1.377,1.976,2.688,1.976h16.188c1.309,0,2.388-0.837,2.683-1.976h0.089     v1.351c0,1.447-1.231,2.602-2.771,2.602h-16.188c-1.542,0-2.776-1.153-2.776-2.602v-1.351H102.859z" fill="#FFFFFF"/></g></g><linearGradient gradientTransform="matrix(1 0 0 -1 -40.9995 348.0991)" gradientUnits="userSpaceOnUse" id="SVGID_34_" x1="438.178" x2="438.178" y1="-9.5334" y2="-47.0754"><stop offset="0" style="stop-color:#191E22"/><stop offset="1" style="stop-color:#464E57"/></linearGradient><path d="M435.228,357.633h-10.142c13.116,8.085,23.076,21.684,25.442,37.542h5.928   C454.453,380.151,446.296,366.908,435.228,357.633z M337.902,395.175h5.928c2.366-15.858,12.326-29.457,25.444-37.542h-10.143   C348.064,366.908,339.905,380.151,337.902,395.175z" fill="url(#SVGID_34_)"/><g><path d="M435.045,358.133c11.447,9.647,18.83,22.601,20.838,36.542h-4.925c-2.3-14.517-11.26-28.035-24.158-36.542H435.045     M367.561,358.133c-12.9,8.507-21.86,22.024-24.159,36.542h-4.925c2.008-13.941,9.39-26.894,20.838-36.542H367.561     M435.228,357.633h-10.142c13.116,8.085,23.076,21.684,25.442,37.542h5.928C454.453,380.151,446.296,366.908,435.228,357.633    L435.228,357.633z M369.274,357.633h-10.143c-11.067,9.275-19.228,22.52-21.229,37.542h5.928    C346.196,379.315,356.156,365.718,369.274,357.633L369.274,357.633z"/></g><g><g><g><radialGradient cx="1495.9524" cy="1399.6443" gradientTransform="matrix(0 0.175 0.225 0 172.1626 108.6844)" gradientUnits="userSpaceOnUse" id="SVGID_36_" r="29.4554"><stop offset="0" style="stop-color:#FC1E05"/><stop offset="0.7308" style="stop-color:#BE0505"/><stop offset="1" style="stop-color:#EF1705"/></radialGradient><path d="M490.047,374.625v-8.298c0-2.767-2.371-2.767-2.371-2.767h-3.558v13.831h3.558      C487.676,377.392,490.047,377.392,490.047,374.625z" fill="url(#SVGID_36_)"/></g><g opacity="0.5"><g><path d="M487.676,364.061c0.076,0,1.871,0.024,1.871,2.267v8.298c0,2.181-1.684,2.265-1.871,2.268h-3.058       v-12.831L487.676,364.061 M487.676,363.561h-3.558v13.831h3.558c0,0,2.371,0,2.371-2.768v-8.298       C490.047,363.561,487.676,363.561,487.676,363.561L487.676,363.561z" fill="#5F3813"/></g></g></g><defs><filter filterUnits="userSpaceOnUse" height="7.217" id="Adobe_OpacityMaskFilter_10_" width="4.742" x="484.712" y="364.162"><feColorMatrix type="matrix" values="1 0 0 0 0  0 1 0 0 0  0 0 1 0 0  0 0 0 1 0"/></filter></defs><mask height="7.217" id="SVGID_39_" maskUnits="userSpaceOnUse" width="4.742" x="484.712" y="364.162"><g filter="url(#Adobe_OpacityMaskFilter_10_)"><linearGradient gradientTransform="matrix(-1 0 0 -1 305.0005 348.0991)" gradientUnits="userSpaceOnUse" id="SVGID_37_" x1="-184.4539" x2="-179.7117" y1="-19.6711" y2="-19.6711"><stop offset="0" style="stop-color:#FFFFFF"/><stop offset="1" style="stop-color:#000000"/></linearGradient><path d="M484.712,364.162h2.964c0.285,0.008,1.778,0.156,1.778,2.165v5.052      c-1.778-2.405-4.742-3.008-4.742-3.008V364.162L484.712,364.162z" fill="url(#SVGID_37_)"/></g></mask><path d="M484.712,364.162h2.964    c0.285,0.008,1.778,0.156,1.778,2.165v5.052c-1.778-2.405-4.742-3.008-4.742-3.008V364.162L484.712,364.162z" enable-background="new    " fill="#FFFFFF" mask="url(#SVGID_39_)" opacity="0.3"/></g><g><g><radialGradient cx="50.9036" cy="-22.3777" gradientTransform="matrix(1 0 0 -1 -40.9995 348.0991)" gradientUnits="userSpaceOnUse" id="SVGID_38_" r="8.7536"><stop offset="0" style="stop-color:#FCB800"/><stop offset="0.7308" style="stop-color:#FD8C01"/><stop offset="1" style="stop-color:#FCB800"/></radialGradient><path d="M15.831,377.392c0,2.173-1.778,3.952-3.952,3.952H7.928c-2.174,0-3.952-1.779-3.952-3.952     v-13.831c0-2.173,1.778-3.952,3.952-3.952h3.952c2.174,0,3.952,1.779,3.952,3.952L15.831,377.392L15.831,377.392z" fill="url(#SVGID_38_)"/></g><g opacity="0.3"><g><path d="M11.879,360.608c1.627,0,2.952,1.324,2.952,2.952v13.831c0,1.628-1.324,2.951-2.952,2.951H7.928      c-1.627,0-2.952-1.323-2.952-2.951V363.56c0-1.628,1.324-2.952,2.952-2.952H11.879 M11.879,359.608H7.928      c-2.174,0-3.952,1.779-3.952,3.952v13.831c0,2.173,1.778,3.951,3.952,3.951h3.952c2.174,0,3.952-1.778,3.952-3.951V363.56      C15.831,361.388,14.053,359.608,11.879,359.608L11.879,359.608z" fill="#5F3813"/></g></g><defs><filter filterUnits="userSpaceOnUse" height="9.879" id="Adobe_OpacityMaskFilter_11_" width="7.903" x="5.952" y="361.585"><feColorMatrix type="matrix" values="1 0 0 0 0  0 1 0 0 0  0 0 1 0 0  0 0 0 1 0"/></filter></defs><mask height="9.879" id="SVGID_42_" maskUnits="userSpaceOnUse" width="7.903" x="5.952" y="361.585"><g filter="url(#Adobe_OpacityMaskFilter_11_)"><linearGradient gradientTransform="matrix(1 0 0 -1 -40.9995 348.0991)" gradientUnits="userSpaceOnUse" id="SVGID_40_" x1="46.9519" x2="54.8552" y1="-18.425" y2="-18.425"><stop offset="0" style="stop-color:#FFFFFF"/><stop offset="1" style="stop-color:#000000"/></linearGradient><path d="M11.879,361.585H7.928c-1.089,0-1.976,0.887-1.976,1.977v7.902      c2.223-3.292,7.903-4.114,7.903-4.114v-3.788C13.855,362.471,12.969,361.585,11.879,361.585z" fill="url(#SVGID_40_)"/></g></mask><path d="M11.879,361.585H7.928    c-1.089,0-1.976,0.887-1.976,1.977v7.902c2.223-3.292,7.903-4.114,7.903-4.114v-3.788    C13.855,362.471,12.969,361.585,11.879,361.585z" enable-background="new    " fill="#FFFFFF" mask="url(#SVGID_42_)" opacity="0.4"/></g><g><g><g><path d="M35.59,290.855c0,0.864-0.833,1.572-1.854,1.572h-2.223c-1.019,0-1.853-0.708-1.853-1.572V280.17      c0-0.864,0.833-1.572,1.853-1.572h2.223c1.02,0,1.854,0.708,1.854,1.572V290.855z" fill="#6C7780"/></g></g><g opacity="0.5"><g><path d="M33.738,279.597c0.488,0,0.854,0.303,0.854,0.572v10.687c0,0.271-0.365,0.572-0.854,0.572h-2.223      c-0.488,0-0.853-0.303-0.853-0.572V280.17c0-0.271,0.364-0.572,0.853-0.572H33.738 M33.738,278.597h-2.223      c-1.019,0-1.853,0.708-1.853,1.572v10.687c0,0.864,0.833,1.572,1.853,1.572h2.223c1.02,0,1.854-0.708,1.854-1.572V280.17      C35.59,279.305,34.757,278.597,33.738,278.597L33.738,278.597z"/></g></g><linearGradient gradientTransform="matrix(1 0 0 -1 -40.9995 348.0991)" gradientUnits="userSpaceOnUse" id="SVGID_41_" x1="77.0837" x2="80.0481" y1="66.0457" y2="63.0813"><stop offset="0" style="stop-color:#9E9E9E"/><stop offset="0.073" style="stop-color:#B7B7B7"/><stop offset="0.1764" style="stop-color:#D5D5D5"/><stop offset="0.2656" style="stop-color:#E7E7E7"/><stop offset="0.3297" style="stop-color:#EDEDED"/><stop offset="0.6648" style="stop-color:#000000"/><stop offset="1" style="stop-color:#666666"/></linearGradient><path d="M33.614,284.524l7.904-7.903v5.928l-7.904,7.903C33.614,290.452,31.639,288.477,33.614,284.524z" fill="url(#SVGID_41_)"/><g><g><g><path d="M51.397,283.536c0,2.718-1.667,4.94-3.705,4.94h-4.445c-2.038,0-3.705-2.224-3.705-4.94v-33.59       c0-2.717,1.667-4.94,3.705-4.94h4.445c2.038,0,3.705,2.224,3.705,4.94V283.536z" fill="#6C7780"/></g></g><defs><filter filterUnits="userSpaceOnUse" height="35.565" id="Adobe_OpacityMaskFilter_12_" width="5.928" x="41.518" y="246.983"><feColorMatrix type="matrix" values="1 0 0 0 0  0 1 0 0 0  0 0 1 0 0  0 0 0 1 0"/></filter></defs><mask height="35.565" id="SVGID_46_" maskUnits="userSpaceOnUse" width="5.928" x="41.518" y="246.983"><g filter="url(#Adobe_OpacityMaskFilter_12_)"><linearGradient gradientTransform="matrix(1 0 0 -1 -40.9995 348.0991)" gradientUnits="userSpaceOnUse" id="SVGID_43_" x1="93.0881" x2="77.2812" y1="100.7717" y2="69.1576"><stop offset="0" style="stop-color:#808080"/><stop offset="0.1813" style="stop-color:#FFFFFF"/><stop offset="1" style="stop-color:#000000"/></linearGradient><path d="M43.494,282.549v-28.649c0-2.717-0.063-4.94,1.976-4.94h1.976v-1.976h-2.223       c-2.038,0-3.705,2.223-3.705,4.938v30.627H43.494z" fill="url(#SVGID_43_)"/></g></mask><path d="M43.494,282.549v-28.649     c0-2.717-0.063-4.94,1.976-4.94h1.976v-1.976h-2.223c-2.038,0-3.705,2.223-3.705,4.938v30.627H43.494z" enable-background="new    " fill="#FFFFFF" mask="url(#SVGID_46_)" opacity="0.75"/></g></g><g><linearGradient gradientTransform="matrix(1 0 0 -1 -40.9995 348.0991)" gradientUnits="userSpaceOnUse" id="SVGID_44_" x1="438.1799" x2="438.1799" y1="-27.3167" y2="-82.6418"><stop offset="0" style="stop-color:#000000"/><stop offset="1" style="stop-color:#FFFFFF"/></linearGradient><path d="M397.182,430.741c15.229,0,27.661-12.435,27.661-27.665c0-15.229-12.434-27.66-27.661-27.66    c-15.23,0-27.664,12.432-27.664,27.66C369.518,418.307,381.95,430.741,397.182,430.741z" fill="url(#SVGID_44_)"/><path d="M397.184,416.91c7.636,0,13.827-6.191,13.827-13.832    c0-7.635-6.191-13.831-13.827-13.831c-7.645,0-13.835,6.196-13.835,13.831C383.349,410.718,389.539,416.91,397.184,416.91z" enable-background="new    " fill="#333333" opacity="0.75"/><linearGradient gradientTransform="matrix(1 0 0 -1 -40.9995 348.0991)" gradientUnits="userSpaceOnUse" id="SVGID_45_" x1="429.7981" x2="446.5626" y1="-46.5979" y2="-63.3624"><stop offset="0" style="stop-color:#FFFFFF"/><stop offset="0.4607" style="stop-color:#D9D9D9"/><stop offset="1" style="stop-color:#FFFFFF"/></linearGradient><path d="M397.184,414.934c6.543,0,11.852-5.309,11.852-11.855c0-6.543-5.309-11.854-11.852-11.854    c-6.551,0-11.859,5.313-11.859,11.854C385.323,409.626,390.633,414.934,397.184,414.934z" fill="url(#SVGID_45_)"/><path d="M397.176,355.657c-26.186,0-47.418,21.229-47.418,47.413c0,26.19,21.232,47.43,47.418,47.43    c26.191,0,47.426-21.238,47.426-47.43C444.602,376.886,423.367,355.657,397.176,355.657z M397.174,432.663    c-16.359,0-29.633-13.261-29.633-29.617c0-16.346,13.272-29.605,29.633-29.605c16.371,0,29.639,13.261,29.639,29.605    C426.813,419.402,413.545,432.663,397.174,432.663z"/><linearGradient gradientTransform="matrix(1 0 0 -1 -40.9995 348.0991)" gradientUnits="userSpaceOnUse" id="SVGID_47_" x1="407.553" x2="468.8069" y1="-54.9792" y2="-54.9792"><stop offset="0" style="stop-color:#A6A6A6"/><stop offset="0.0086" style="stop-color:#AAAAAA"/><stop offset="0.1087" style="stop-color:#D8D8D8"/><stop offset="0.1859" style="stop-color:#F4F4F4"/><stop offset="0.2303" style="stop-color:#FFFFFF"/><stop offset="0.4607" style="stop-color:#C2C2C2"/><stop offset="0.764" style="stop-color:#FFFFFF"/><stop offset="0.8362" style="stop-color:#E6E6E6"/><stop offset="0.9889" style="stop-color:#A6A6A6"/><stop offset="1" style="stop-color:#A1A1A1"/></linearGradient><path d="M397.174,372.452c-16.907,0-30.62,13.716-30.62,30.62c0,16.917,13.713,30.633,30.62,30.633    c16.919,0,30.633-13.716,30.633-30.633C427.807,386.168,414.093,372.452,397.174,372.452z M397.18,428.765    c-14.188,0-25.688-11.502-25.688-25.688s11.498-25.687,25.688-25.687c14.185,0,25.687,11.501,25.687,25.687    C422.865,417.263,411.364,428.765,397.18,428.765z" fill="url(#SVGID_47_)"/><g opacity="0.5"><linearGradient gradientTransform="matrix(1 0 0 -1 -41.6001 348.0991)" gradientUnits="userSpaceOnUse" id="SVGID_48_" x1="404.2014" x2="473.3577" y1="-73.7502" y2="-73.7502"><stop offset="0" style="stop-color:#FFFFFF;stop-opacity:0.1"/><stop offset="0.5" style="stop-color:#FFFFFF"/><stop offset="1" style="stop-color:#FFFFFF;stop-opacity:0.1"/></linearGradient><path d="M397.18,437.656c-18.769,0-34.001-14.954-34.528-33.59c-0.01,0.332-0.05,0.654-0.05,0.988     c0,19.097,15.478,34.578,34.578,34.578c19.092,0,34.578-15.481,34.578-34.578c0-0.334-0.04-0.656-0.051-0.988     C431.179,422.702,415.938,437.656,397.18,437.656z" fill="url(#SVGID_48_)"/></g><linearGradient gradientTransform="matrix(1 0 0 -1 -41.6001 348.0991)" gradientUnits="userSpaceOnUse" id="SVGID_49_" x1="400.2346" x2="477.3264" y1="-24.6072" y2="-24.6072"><stop offset="0" style="stop-color:#FFFFFF;stop-opacity:0.1"/><stop offset="0.5" style="stop-color:#FFFFFF"/><stop offset="1" style="stop-color:#FFFFFF;stop-opacity:0.1"/></linearGradient><path d="M397.18,361.585c16.938,0,31.543,10.473,38.546,24.219    c-6.094-15.339-21.037-26.194-38.546-26.194c-17.511,0-32.452,10.855-38.545,26.191    C365.637,372.057,380.241,361.585,397.18,361.585z" enable-background="new    " fill="url(#SVGID_49_)" opacity="0.5"/></g></g></svg>