<?xml version="1.0" encoding="utf-8"?>
<!-- Generator: Adobe Illustrator 16.0.0, SVG Export Plug-In . SVG Version: 6.00 Build 0)  -->
<!DOCTYPE svg PUBLIC "-//W3C//DTD SVG 1.1//EN" "http://www.w3.org/Graphics/SVG/1.1/DTD/svg11.dtd" [
	<!ENTITY ns_extend "http://ns.adobe.com/Extensibility/1.0/">
	<!ENTITY ns_ai "http://ns.adobe.com/AdobeIllustrator/10.0/">
	<!ENTITY ns_graphs "http://ns.adobe.com/Graphs/1.0/">
	<!ENTITY ns_vars "http://ns.adobe.com/Variables/1.0/">
	<!ENTITY ns_imrep "http://ns.adobe.com/ImageReplacement/1.0/">
	<!ENTITY ns_sfw "http://ns.adobe.com/SaveForWeb/1.0/">
	<!ENTITY ns_custom "http://ns.adobe.com/GenericCustomNamespace/1.0/">
	<!ENTITY ns_adobe_xpath "http://ns.adobe.com/XPath/1.0/">
]>
<svg version="1.1" id="Layer_1" xmlns:x="&ns_extend;" xmlns:i="&ns_ai;" xmlns:graph="&ns_graphs;"
	 xmlns="http://www.w3.org/2000/svg" xmlns:xlink="http://www.w3.org/1999/xlink" x="0px" y="0px" width="72.708px"
	 height="69.667px" viewBox="0 0 72.708 69.667" enable-background="new 0 0 72.708 69.667" xml:space="preserve">
<metadata>
	<sfw  xmlns="&ns_sfw;">
		<slices></slices>
		<sliceSourceBounds  x="255.791" y="272.742" width="67.51" height="67.515" bottomLeftOrigin="true"></sliceSourceBounds>
	</sfw>
</metadata>
<g>
	
		<linearGradient id="SVGID_1_" gradientUnits="userSpaceOnUse" x1="-255.0962" y1="-4.7104" x2="-239.2758" y2="-28.5333" gradientTransform="matrix(0.7071 -0.7071 -0.7071 -0.7071 197.3382 -163.7831)">
		<stop  offset="0" style="stop-color:#548542"/>
		<stop  offset="1" style="stop-color:#013516"/>
	</linearGradient>
	<path fill="url(#SVGID_1_)" d="M36.254,1.318c-1.141-0.105-2.306-0.127-3.488-0.062c-7.157,0.74-14.128,3.76-19.724,9.065
		c-0.02,0.017-0.034,0.032-0.052,0.048c-0.204,0.195-0.407,0.391-0.607,0.591c0,0.001,0,0.001,0,0.001
		c-0.2,0.201-0.397,0.404-0.592,0.608c-0.016,0.017-0.033,0.032-0.047,0.05c-5.306,5.598-8.33,12.568-9.067,19.729
		c-0.237,2.316-0.237,4.655,0,6.972c-0.065-1.182-0.044-2.346,0.064-3.486c0.415-4.406,2.127-8.435,5.207-11.514
		c3.096-3.096,7.146-4.808,11.58-5.212c5.357-0.489,11.273,0.937,16.726,4.147c2.488,1.465,4.88,3.303,7.078,5.5
		c2.197,2.198,4.034,4.59,5.501,7.078c3.212-5.45,4.636-11.365,4.147-16.726c-0.405-4.433-2.118-8.485-5.213-11.579
		C44.688,3.445,40.661,1.735,36.254,1.318z"/>
	
		<linearGradient id="SVGID_2_" gradientUnits="userSpaceOnUse" x1="-248.3784" y1="-57.5049" x2="-268.732" y2="-22.2244" gradientTransform="matrix(0.7071 -0.7071 -0.7071 -0.7071 197.3382 -163.7831)">
		<stop  offset="0" style="stop-color:#FFED00"/>
		<stop  offset="1" style="stop-color:#B79F00"/>
	</linearGradient>
	<path fill="url(#SVGID_2_)" d="M69.769,34.833c-0.418,4.405-2.129,8.435-5.208,11.515c-3.097,3.094-7.147,4.807-11.58,5.211
		c-5.359,0.49-11.276-0.936-16.727-4.145c-2.488-1.469-4.88-3.305-7.079-5.504c-2.197-2.195-4.033-4.59-5.5-7.077
		c-3.212,5.45-4.637,11.366-4.146,16.726c0.403,4.432,2.115,8.486,5.212,11.58c3.081,3.082,7.105,4.791,11.514,5.207
		c1.14,0.107,2.304,0.129,3.487,0.064c7.158-0.74,14.128-3.76,19.725-9.064c0.016-0.02,0.035-0.033,0.051-0.051
		c0.204-0.193,0.406-0.391,0.608-0.59v-0.002c0.199-0.201,0.397-0.4,0.591-0.607c0.016-0.016,0.033-0.033,0.047-0.051
		c5.307-5.596,8.329-12.562,9.066-19.727c0.239-2.314,0.239-4.653,0-6.971C69.896,32.528,69.875,33.692,69.769,34.833z"/>
	
		<linearGradient id="SVGID_3_" gradientUnits="userSpaceOnUse" x1="-242.1362" y1="-29.1265" x2="-264.5175" y2="-35.5934" gradientTransform="matrix(0.7071 -0.7071 -0.7071 -0.7071 197.3382 -163.7831)">
		<stop  offset="0" style="stop-color:#E30613"/>
		<stop  offset="1" style="stop-color:#8F1003"/>
	</linearGradient>
	<path fill="url(#SVGID_3_)" d="M59.517,10.37c-0.018-0.016-0.035-0.031-0.051-0.048C53.869,5.015,46.9,1.997,39.741,1.256
		c-2.318-0.24-4.655-0.24-6.976,0c1.183-0.064,2.348-0.043,3.488,0.062c4.407,0.416,8.434,2.127,11.514,5.209
		c3.095,3.094,4.808,7.146,5.211,11.579c0.49,5.36-0.934,11.275-4.146,16.726c-1.467,2.487-3.304,4.882-5.501,7.077
		c-2.198,2.199-4.59,4.035-7.078,5.504c5.45,3.209,11.367,4.635,16.725,4.145c4.435-0.404,8.485-2.117,11.581-5.211
		c3.08-3.078,4.791-7.105,5.209-11.515c0.105-1.141,0.127-2.304,0.061-3.484c-0.364-6.672-3.464-13.838-9.066-19.729
		c-0.015-0.018-0.031-0.033-0.047-0.05c-0.193-0.204-0.392-0.407-0.591-0.608l0,0C59.923,10.762,59.721,10.565,59.517,10.37z"/>
	
		<linearGradient id="SVGID_4_" gradientUnits="userSpaceOnUse" x1="-280.9614" y1="-32.1284" x2="-257.2655" y2="-6.3255" gradientTransform="matrix(0.7071 -0.7071 -0.7071 -0.7071 197.3382 -163.7831)">
		<stop  offset="0" style="stop-color:#B1B529"/>
		<stop  offset="1" style="stop-color:#555A14"/>
	</linearGradient>
	<path fill="url(#SVGID_4_)" d="M19.529,18.11c-4.434,0.404-8.484,2.117-11.58,5.211c-3.08,3.08-4.792,7.109-5.207,11.515
		c-0.108,1.14-0.13,2.306-0.064,3.485c0.739,7.16,3.762,14.129,9.066,19.729c0.015,0.016,0.032,0.033,0.048,0.049
		c0.194,0.203,0.392,0.408,0.592,0.607l0,0c0.2,0.197,0.403,0.396,0.607,0.594c0.018,0.016,0.032,0.031,0.052,0.045
		c5.596,5.307,12.566,8.33,19.726,9.068c2.318,0.236,4.655,0.236,6.971,0c-1.181,0.064-2.345,0.043-3.484-0.064
		c-4.408-0.414-8.433-2.127-11.514-5.207c-3.097-3.096-4.809-7.146-5.212-11.58c-0.49-5.357,0.935-11.273,4.146-16.726
		c1.467-2.489,3.303-4.881,5.5-7.077c2.199-2.199,4.591-4.035,7.079-5.502C30.802,19.044,24.886,17.621,19.529,18.11z"/>
</g>
<g>
	
		<linearGradient id="SVGID_5_" gradientUnits="userSpaceOnUse" x1="-255.0962" y1="-4.7104" x2="-239.2758" y2="-28.5333" gradientTransform="matrix(0.7071 -0.7071 -0.7071 -0.7071 197.3382 -163.7831)">
		<stop  offset="0" style="stop-color:#548542"/>
		<stop  offset="1" style="stop-color:#013516"/>
	</linearGradient>
	<path fill="url(#SVGID_5_)" d="M36.254,1.318c-1.141-0.105-2.306-0.127-3.488-0.062c-7.157,0.74-14.128,3.76-19.724,9.065
		c-0.02,0.017-0.034,0.032-0.052,0.048c-0.204,0.195-0.407,0.391-0.607,0.591c0,0.001,0,0.001,0,0.001
		c-0.2,0.201-0.397,0.404-0.592,0.608c-0.016,0.017-0.033,0.032-0.047,0.05c-5.306,5.598-8.33,12.568-9.067,19.729
		c-0.237,2.316-0.237,4.655,0,6.972c-0.065-1.182-0.044-2.346,0.064-3.486c0.415-4.406,2.127-8.435,5.207-11.514
		c3.096-3.096,7.146-4.808,11.58-5.212c5.357-0.489,11.273,0.937,16.726,4.147c2.488,1.465,4.88,3.303,7.078,5.5
		c2.197,2.198,4.034,4.59,5.501,7.078c3.212-5.45,4.636-11.365,4.147-16.726c-0.405-4.433-2.118-8.485-5.213-11.579
		C44.688,3.445,40.661,1.735,36.254,1.318z"/>
	
		<linearGradient id="SVGID_6_" gradientUnits="userSpaceOnUse" x1="-248.3784" y1="-57.5049" x2="-268.732" y2="-22.2244" gradientTransform="matrix(0.7071 -0.7071 -0.7071 -0.7071 197.3382 -163.7831)">
		<stop  offset="0" style="stop-color:#FFED00"/>
		<stop  offset="1" style="stop-color:#B79F00"/>
	</linearGradient>
	<path fill="url(#SVGID_6_)" d="M69.769,34.833c-0.418,4.405-2.129,8.435-5.208,11.515c-3.097,3.094-7.147,4.807-11.58,5.211
		c-5.359,0.49-11.276-0.936-16.727-4.145c-2.488-1.469-4.88-3.305-7.079-5.504c-2.197-2.195-4.033-4.59-5.5-7.077
		c-3.212,5.45-4.637,11.366-4.146,16.726c0.403,4.432,2.115,8.486,5.212,11.58c3.081,3.082,7.105,4.791,11.514,5.207
		c1.14,0.107,2.304,0.129,3.487,0.064c7.158-0.74,14.128-3.76,19.725-9.064c0.016-0.02,0.035-0.033,0.051-0.051
		c0.204-0.193,0.406-0.391,0.608-0.59v-0.002c0.199-0.201,0.397-0.4,0.591-0.607c0.016-0.016,0.033-0.033,0.047-0.051
		c5.307-5.596,8.329-12.562,9.066-19.727c0.239-2.314,0.239-4.653,0-6.971C69.896,32.528,69.875,33.692,69.769,34.833z"/>
	
		<linearGradient id="SVGID_7_" gradientUnits="userSpaceOnUse" x1="-242.1362" y1="-29.1265" x2="-264.5175" y2="-35.5934" gradientTransform="matrix(0.7071 -0.7071 -0.7071 -0.7071 197.3382 -163.7831)">
		<stop  offset="0" style="stop-color:#E30613"/>
		<stop  offset="1" style="stop-color:#8F1003"/>
	</linearGradient>
	<path fill="url(#SVGID_7_)" d="M59.517,10.37c-0.018-0.016-0.035-0.031-0.051-0.048C53.869,5.015,46.9,1.997,39.741,1.256
		c-2.318-0.24-4.655-0.24-6.976,0c1.183-0.064,2.348-0.043,3.488,0.062c4.407,0.416,8.434,2.127,11.514,5.209
		c3.095,3.094,4.808,7.146,5.211,11.579c0.49,5.36-0.934,11.275-4.146,16.726c-1.467,2.487-3.304,4.882-5.501,7.077
		c-2.198,2.199-4.59,4.035-7.078,5.504c5.45,3.209,11.367,4.635,16.725,4.145c4.435-0.404,8.485-2.117,11.581-5.211
		c3.08-3.078,4.791-7.105,5.209-11.515c0.105-1.141,0.127-2.304,0.061-3.484c-0.364-6.672-3.464-13.838-9.066-19.729
		c-0.015-0.018-0.031-0.033-0.047-0.05c-0.193-0.204-0.392-0.407-0.591-0.608l0,0C59.923,10.762,59.721,10.565,59.517,10.37z"/>
	
		<linearGradient id="SVGID_8_" gradientUnits="userSpaceOnUse" x1="-280.9614" y1="-32.1284" x2="-257.2655" y2="-6.3255" gradientTransform="matrix(0.7071 -0.7071 -0.7071 -0.7071 197.3382 -163.7831)">
		<stop  offset="0" style="stop-color:#B1B529"/>
		<stop  offset="1" style="stop-color:#555A14"/>
	</linearGradient>
	<path fill="url(#SVGID_8_)" d="M19.529,18.11c-4.434,0.404-8.484,2.117-11.58,5.211c-3.08,3.08-4.792,7.109-5.207,11.515
		c-0.108,1.14-0.13,2.306-0.064,3.485c0.739,7.16,3.762,14.129,9.066,19.729c0.015,0.016,0.032,0.033,0.048,0.049
		c0.194,0.203,0.392,0.408,0.592,0.607l0,0c0.2,0.197,0.403,0.396,0.607,0.594c0.018,0.016,0.032,0.031,0.052,0.045
		c5.596,5.307,12.566,8.33,19.726,9.068c2.318,0.236,4.655,0.236,6.971,0c-1.181,0.064-2.345,0.043-3.484-0.064
		c-4.408-0.414-8.433-2.127-11.514-5.207c-3.097-3.096-4.809-7.146-5.212-11.58c-0.49-5.357,0.935-11.273,4.146-16.726
		c1.467-2.489,3.303-4.881,5.5-7.077c2.199-2.199,4.591-4.035,7.079-5.502C30.802,19.044,24.886,17.621,19.529,18.11z"/>
</g>
</svg>
