<?xml version="1.0" encoding="utf-8"?>
<!-- Generator: Adobe Illustrator 16.0.0, SVG Export Plug-In . SVG Version: 6.00 Build 0)  -->
<!DOCTYPE svg PUBLIC "-//W3C//DTD SVG 1.1//EN" "http://www.w3.org/Graphics/SVG/1.1/DTD/svg11.dtd" [
	<!ENTITY ns_extend "http://ns.adobe.com/Extensibility/1.0/">
	<!ENTITY ns_ai "http://ns.adobe.com/AdobeIllustrator/10.0/">
	<!ENTITY ns_graphs "http://ns.adobe.com/Graphs/1.0/">
	<!ENTITY ns_vars "http://ns.adobe.com/Variables/1.0/">
	<!ENTITY ns_imrep "http://ns.adobe.com/ImageReplacement/1.0/">
	<!ENTITY ns_sfw "http://ns.adobe.com/SaveForWeb/1.0/">
	<!ENTITY ns_custom "http://ns.adobe.com/GenericCustomNamespace/1.0/">
	<!ENTITY ns_adobe_xpath "http://ns.adobe.com/XPath/1.0/">
]>
<svg version="1.1" id="Layer_1" xmlns:x="&ns_extend;" xmlns:i="&ns_ai;" xmlns:graph="&ns_graphs;"
	 xmlns="http://www.w3.org/2000/svg" xmlns:xlink="http://www.w3.org/1999/xlink" x="0px" y="0px" width="284.417px"
	 height="69.667px" viewBox="0 0 284.417 69.667" enable-background="new 0 0 284.417 69.667" xml:space="preserve">
<metadata>
	<sfw  xmlns="&ns_sfw;">
		<slices></slices>
		<sliceSourceBounds  height="67.514" width="278.826" bottomLeftOrigin="true" y="-377.834" x="289.156"></sliceSourceBounds>
	</sfw>
</metadata>
<g>
	
		<linearGradient id="SVGID_1_" gradientUnits="userSpaceOnUse" x1="-12.9141" y1="-35.9561" x2="2.9062" y2="-12.1334" gradientTransform="matrix(0.7071 -0.7071 0.7071 0.7071 55.1708 36.1287)">
		<stop  offset="0" style="stop-color:#548542"/>
		<stop  offset="1" style="stop-color:#013516"/>
	</linearGradient>
	<path fill="url(#SVGID_1_)" d="M36.578,1.229c-1.141-0.105-2.306-0.127-3.488-0.062c-7.157,0.74-14.128,3.76-19.724,9.065
		c-0.02,0.017-0.034,0.032-0.052,0.048c-0.204,0.195-0.407,0.391-0.607,0.591c0,0.001,0,0.001,0,0.001
		c-0.2,0.201-0.397,0.404-0.592,0.608c-0.016,0.017-0.033,0.032-0.047,0.05c-5.306,5.598-8.33,12.568-9.067,19.729
		c-0.237,2.316-0.237,4.654,0,6.971c-0.065-1.181-0.044-2.346,0.064-3.486c0.415-4.406,2.127-8.435,5.207-11.514
		c3.096-3.096,7.146-4.808,11.58-5.212c5.357-0.489,11.273,0.937,16.726,4.147c2.488,1.465,4.88,3.303,7.078,5.5
		c2.197,2.198,4.034,4.59,5.501,7.078c3.212-5.45,4.636-11.365,4.147-16.726c-0.405-4.433-2.118-8.485-5.213-11.579
		C45.012,3.356,40.985,1.646,36.578,1.229z"/>
	
		<linearGradient id="SVGID_2_" gradientUnits="userSpaceOnUse" x1="-6.1968" y1="16.8379" x2="-26.5503" y2="-18.4424" gradientTransform="matrix(0.7071 -0.7071 0.7071 0.7071 55.1708 36.1287)">
		<stop  offset="0" style="stop-color:#FFED00"/>
		<stop  offset="1" style="stop-color:#B79F00"/>
	</linearGradient>
	<path fill="url(#SVGID_2_)" d="M70.093,34.743c-0.418,4.406-2.129,8.434-5.208,11.515c-3.097,3.094-7.147,4.807-11.58,5.211
		c-5.359,0.49-11.276-0.936-16.727-4.145c-2.488-1.468-4.88-3.304-7.079-5.503c-2.197-2.197-4.033-4.59-5.5-7.078
		c-3.212,5.451-4.637,11.366-4.146,16.726c0.403,4.432,2.115,8.485,5.212,11.579c3.081,3.082,7.105,4.792,11.514,5.208
		c1.14,0.107,2.304,0.128,3.487,0.064c7.158-0.741,14.128-3.76,19.725-9.065c0.016-0.018,0.035-0.032,0.051-0.05
		c0.204-0.194,0.406-0.391,0.608-0.591v-0.001c0.199-0.201,0.397-0.401,0.591-0.607c0.016-0.016,0.033-0.033,0.047-0.051
		c5.307-5.596,8.329-12.563,9.066-19.726c0.239-2.316,0.239-4.654,0-6.971C70.22,32.439,70.198,33.603,70.093,34.743z"/>
	
		<linearGradient id="SVGID_3_" gradientUnits="userSpaceOnUse" x1="0.0454" y1="-11.5376" x2="-22.3359" y2="-5.0707" gradientTransform="matrix(0.7071 -0.7071 0.7071 0.7071 55.1708 36.1287)">
		<stop  offset="0" style="stop-color:#E30613"/>
		<stop  offset="1" style="stop-color:#8F1003"/>
	</linearGradient>
	<path fill="url(#SVGID_3_)" d="M59.841,10.28c-0.018-0.016-0.035-0.031-0.051-0.048c-5.597-5.306-12.566-8.325-19.725-9.065
		c-2.318-0.24-4.655-0.24-6.976,0c1.183-0.064,2.348-0.043,3.488,0.062c4.407,0.416,8.434,2.127,11.514,5.209
		c3.095,3.094,4.808,7.146,5.211,11.579c0.49,5.36-0.934,11.275-4.146,16.726c-1.467,2.488-3.304,4.881-5.501,7.078
		c-2.198,2.199-4.59,4.035-7.078,5.503c5.45,3.209,11.367,4.635,16.725,4.145c4.435-0.404,8.485-2.117,11.581-5.211
		c3.08-3.079,4.791-7.106,5.209-11.515c0.105-1.141,0.127-2.304,0.061-3.484c-0.364-6.672-3.464-13.838-9.066-19.729
		c-0.015-0.018-0.031-0.033-0.047-0.05c-0.193-0.204-0.392-0.407-0.591-0.608l0,0C60.247,10.673,60.045,10.476,59.841,10.28z"/>
	
		<linearGradient id="SVGID_4_" gradientUnits="userSpaceOnUse" x1="-38.7817" y1="-8.5376" x2="-15.0858" y2="-34.3405" gradientTransform="matrix(0.7071 -0.7071 0.7071 0.7071 55.1708 36.1287)">
		<stop  offset="0" style="stop-color:#B1B529"/>
		<stop  offset="1" style="stop-color:#555A14"/>
	</linearGradient>
	<path fill="url(#SVGID_4_)" d="M19.853,18.021c-4.434,0.404-8.484,2.117-11.58,5.211c-3.08,3.08-4.792,7.109-5.207,11.515
		c-0.108,1.14-0.13,2.306-0.064,3.485c0.739,7.16,3.762,14.13,9.066,19.728c0.015,0.016,0.032,0.034,0.048,0.049
		c0.194,0.204,0.392,0.408,0.592,0.607l0,0c0.2,0.199,0.403,0.398,0.607,0.594c0.018,0.016,0.032,0.031,0.052,0.046
		c5.596,5.306,12.566,8.329,19.726,9.067c2.318,0.238,4.655,0.238,6.971,0c-1.181,0.065-2.345,0.043-3.484-0.063
		c-4.408-0.415-8.433-2.127-11.514-5.208c-3.097-3.095-4.809-7.146-5.212-11.579c-0.49-5.359,0.935-11.274,4.146-16.726
		c1.467-2.489,3.303-4.881,5.5-7.077c2.199-2.199,4.591-4.035,7.079-5.502C31.126,18.955,25.21,17.531,19.853,18.021z"/>
</g>
<g>
	<linearGradient id="SVGID_5_" gradientUnits="userSpaceOnUse" x1="94.7441" y1="23.8926" x2="94.7441" y2="47.4746">
		<stop  offset="0" style="stop-color:#FFFFFF"/>
		<stop  offset="1" style="stop-color:#F6F6F6"/>
	</linearGradient>
	<path fill="url(#SVGID_5_)" d="M77.4,25.883c0-0.929,0.752-1.725,1.682-1.725c0.973,0,1.725,0.752,1.725,1.725v2.346
		c1.504-2.257,3.54-4.336,7.389-4.336c3.716,0,6.105,1.99,7.344,4.557c1.637-2.521,4.07-4.557,8.052-4.557
		c5.265,0,8.496,3.539,8.496,9.202v12.653c0,0.974-0.753,1.727-1.683,1.727c-0.973,0-1.726-0.753-1.726-1.727V33.892
		c0-4.425-2.212-6.901-5.929-6.901c-3.451,0-6.283,2.565-6.283,7.078v11.68c0,0.974-0.751,1.727-1.726,1.727
		c-0.928,0-1.681-0.753-1.681-1.727V33.803c0-4.291-2.257-6.812-5.885-6.812s-6.371,3.008-6.371,7.212v11.546
		c0,0.974-0.708,1.727-1.681,1.727S77.4,46.722,77.4,45.748V25.883z"/>
	<linearGradient id="SVGID_6_" gradientUnits="userSpaceOnUse" x1="130.7632" y1="16.2832" x2="130.7632" y2="47.4746">
		<stop  offset="0" style="stop-color:#FFFFFF"/>
		<stop  offset="1" style="stop-color:#F6F6F6"/>
	</linearGradient>
	<path fill="url(#SVGID_6_)" d="M118.507,18.052c0-0.973,0.797-1.769,1.726-1.769h11.593c3.805,0,6.856,1.149,8.804,3.096
		c1.504,1.505,2.39,3.673,2.39,6.106v0.088c0,5.088-3.451,8.053-8.273,8.982l7.697,9.91c0.354,0.397,0.576,0.797,0.576,1.282
		c0,0.93-0.886,1.727-1.771,1.727c-0.708,0-1.237-0.399-1.637-0.929l-8.715-11.327h-8.895v10.485c0,0.974-0.796,1.771-1.77,1.771
		c-0.929,0-1.726-0.797-1.726-1.771V18.052z M131.516,32.078c4.645,0,7.963-2.39,7.963-6.371v-0.09c0-3.805-2.919-6.104-7.919-6.104
		h-9.558v12.565H131.516z"/>
	<linearGradient id="SVGID_7_" gradientUnits="userSpaceOnUse" x1="157.313" y1="23.8926" x2="157.313" y2="47.7842">
		<stop  offset="0" style="stop-color:#FFFFFF"/>
		<stop  offset="1" style="stop-color:#F6F6F6"/>
	</linearGradient>
	<path fill="url(#SVGID_7_)" d="M157.932,47.784c-6.282,0-11.414-4.823-11.414-11.901v-0.089c0-6.592,4.646-11.901,10.972-11.901
		c6.77,0,10.618,5.53,10.618,11.592c0,0.93-0.752,1.593-1.593,1.593h-16.547c0.486,4.955,3.981,7.742,8.052,7.742
		c2.832,0,4.912-1.105,6.593-2.654c0.266-0.222,0.575-0.397,0.973-0.397c0.842,0,1.505,0.663,1.505,1.459
		c0,0.397-0.176,0.797-0.53,1.106C164.392,46.412,161.827,47.784,157.932,47.784z M164.702,34.556
		c-0.354-4.16-2.743-7.787-7.301-7.787c-3.981,0-6.99,3.317-7.433,7.787H164.702z"/>
	<linearGradient id="SVGID_8_" gradientUnits="userSpaceOnUse" x1="181.561" y1="23.8926" x2="181.561" y2="47.7842">
		<stop  offset="0" style="stop-color:#FFFFFF"/>
		<stop  offset="1" style="stop-color:#F6F6F6"/>
	</linearGradient>
	<path fill="url(#SVGID_8_)" d="M171.164,35.927v-0.088c0-6.461,5.044-11.946,11.725-11.946c3.805,0,6.37,1.459,8.406,3.317
		c0.266,0.222,0.531,0.664,0.531,1.195c0,0.929-0.753,1.637-1.638,1.637c-0.442,0-0.84-0.177-1.105-0.398
		c-1.637-1.504-3.495-2.743-6.239-2.743c-4.646,0-8.185,3.938-8.185,8.849v0.09c0,4.954,3.627,8.893,8.406,8.893
		c2.61,0,4.69-1.195,6.371-2.788c0.222-0.222,0.531-0.441,0.974-0.441c0.841,0,1.548,0.751,1.548,1.549
		c0,0.397-0.177,0.795-0.441,1.061c-2.168,2.169-4.779,3.673-8.628,3.673C176.208,47.784,171.164,42.342,171.164,35.927z"/>
	<linearGradient id="SVGID_9_" gradientUnits="userSpaceOnUse" x1="206.1401" y1="23.8926" x2="206.1401" y2="47.7842">
		<stop  offset="0" style="stop-color:#FFFFFF"/>
		<stop  offset="1" style="stop-color:#F6F6F6"/>
	</linearGradient>
	<path fill="url(#SVGID_9_)" d="M194.216,35.927v-0.088c0-6.461,5.044-11.946,11.946-11.946c6.858,0,11.901,5.397,11.901,11.856
		v0.09c0,6.459-5.089,11.945-11.989,11.945C199.216,47.784,194.216,42.387,194.216,35.927z M214.569,35.927v-0.088
		c0-4.912-3.672-8.938-8.494-8.938c-4.956,0-8.363,4.026-8.363,8.849v0.09c0,4.91,3.628,8.893,8.451,8.893
		C211.119,44.731,214.569,40.749,214.569,35.927z"/>
	<linearGradient id="SVGID_10_" gradientUnits="userSpaceOnUse" x1="229.1509" y1="24.0693" x2="229.1509" y2="47.4746">
		<stop  offset="0" style="stop-color:#FFFFFF"/>
		<stop  offset="1" style="stop-color:#F6F6F6"/>
	</linearGradient>
	<path fill="url(#SVGID_10_)" d="M222.668,25.883c0-0.929,0.752-1.725,1.681-1.725c0.974,0,1.726,0.752,1.726,1.725v4.293
		c1.682-3.806,4.999-6.106,7.875-6.106c1.019,0,1.683,0.753,1.683,1.726c0,0.93-0.62,1.593-1.505,1.725
		c-4.425,0.532-8.053,3.851-8.053,10.441v7.787c0,0.93-0.708,1.727-1.681,1.727c-0.974,0-1.726-0.753-1.726-1.727V25.883z"/>
	<linearGradient id="SVGID_11_" gradientUnits="userSpaceOnUse" x1="248.3306" y1="14.7344" x2="248.3306" y2="47.7402">
		<stop  offset="0" style="stop-color:#FFFFFF"/>
		<stop  offset="1" style="stop-color:#F6F6F6"/>
	</linearGradient>
	<path fill="url(#SVGID_11_)" d="M259.878,45.748c0,0.974-0.751,1.727-1.681,1.727c-0.974,0-1.726-0.753-1.726-1.727v-3.097
		c-1.857,2.743-4.557,5.089-8.76,5.089c-5.486,0-10.929-4.336-10.929-11.857v-0.089c0-7.477,5.442-11.901,10.929-11.901
		c4.247,0,6.99,2.301,8.76,4.866v-12.3c0-0.973,0.708-1.725,1.682-1.725s1.725,0.752,1.725,1.725V45.748z M240.279,35.749v0.09
		c0,5.397,3.761,8.849,8.053,8.849c4.247,0,8.273-3.585,8.273-8.849v-0.09c0-5.264-4.026-8.805-8.273-8.805
		C243.908,26.944,240.279,30.22,240.279,35.749z"/>
	<linearGradient id="SVGID_12_" gradientUnits="userSpaceOnUse" x1="272.8657" y1="23.9805" x2="272.8657" y2="47.6953">
		<stop  offset="0" style="stop-color:#FFFFFF"/>
		<stop  offset="1" style="stop-color:#F6F6F6"/>
	</linearGradient>
	<path fill="url(#SVGID_12_)" d="M264.704,44.819c-0.31-0.221-0.62-0.664-0.62-1.239c0-0.796,0.664-1.459,1.505-1.459
		c0.31,0,0.62,0.088,0.841,0.266c2.345,1.593,4.778,2.433,7.256,2.433c2.742,0,4.734-1.415,4.734-3.627v-0.09
		c0-2.3-2.699-3.186-5.707-4.025c-3.585-1.019-7.565-2.257-7.565-6.46v-0.088c0-3.938,3.273-6.549,7.785-6.549
		c2.435,0,5.088,0.752,7.302,1.947c0.441,0.266,0.84,0.753,0.84,1.416c0,0.796-0.664,1.459-1.505,1.459
		c-0.31,0-0.574-0.088-0.752-0.176c-1.946-1.107-4.026-1.771-5.973-1.771c-2.699,0-4.424,1.416-4.424,3.319v0.088
		c0,2.168,2.831,3.009,5.885,3.938c3.539,1.061,7.344,2.432,7.344,6.547v0.089c0,4.335-3.583,6.857-8.141,6.857
		C270.5,47.695,267.181,46.59,264.704,44.819z"/>
</g>
</svg>
