<?xml version="1.0" encoding="utf-8"?>
<!-- Generator: Adobe Illustrator 16.0.0, SVG Export Plug-In . SVG Version: 6.00 Build 0)  -->
<!DOCTYPE svg PUBLIC "-//W3C//DTD SVG 1.1//EN" "http://www.w3.org/Graphics/SVG/1.1/DTD/svg11.dtd" [
	<!ENTITY ns_extend "http://ns.adobe.com/Extensibility/1.0/">
	<!ENTITY ns_ai "http://ns.adobe.com/AdobeIllustrator/10.0/">
	<!ENTITY ns_graphs "http://ns.adobe.com/Graphs/1.0/">
	<!ENTITY ns_vars "http://ns.adobe.com/Variables/1.0/">
	<!ENTITY ns_imrep "http://ns.adobe.com/ImageReplacement/1.0/">
	<!ENTITY ns_sfw "http://ns.adobe.com/SaveForWeb/1.0/">
	<!ENTITY ns_custom "http://ns.adobe.com/GenericCustomNamespace/1.0/">
	<!ENTITY ns_adobe_xpath "http://ns.adobe.com/XPath/1.0/">
]>
<svg version="1.1" id="Layer_1" xmlns:x="&ns_extend;" xmlns:i="&ns_ai;" xmlns:graph="&ns_graphs;"
	 xmlns="http://www.w3.org/2000/svg" xmlns:xlink="http://www.w3.org/1999/xlink" x="0px" y="0px" width="65.655px"
	 height="10.167px" viewBox="0 0 65.655 10.167" enable-background="new 0 0 65.655 10.167" xml:space="preserve">
<metadata>
	<sfw  xmlns="&ns_sfw;">
		<slices></slices>
		<sliceSourceBounds  x="281.865" y="-254.096" width="63.621" height="8.684" bottomLeftOrigin="true"></sliceSourceBounds>
	</sfw>
</metadata>
<g>
	<path fill="#FFFFFF" d="M1.188,1.154c0-0.252,0.216-0.468,0.468-0.468h0.108c0.204,0,0.348,0.108,0.444,0.251l2.998,4.51
		l2.999-4.51c0.096-0.156,0.252-0.251,0.444-0.251h0.108c0.251,0,0.468,0.216,0.468,0.468v7.543c0,0.264-0.216,0.48-0.468,0.48
		c-0.264,0-0.48-0.228-0.48-0.48v-6.26L5.589,6.383c-0.108,0.156-0.228,0.24-0.396,0.24c-0.168,0-0.3-0.084-0.408-0.24L2.111,2.449
		V8.71c0,0.264-0.204,0.468-0.468,0.468c-0.252,0-0.456-0.204-0.456-0.468V1.154z"/>
	<path fill="#FFFFFF" d="M11.303,8.638V1.202c0-0.264,0.216-0.48,0.468-0.48h5.217c0.24,0,0.432,0.192,0.432,0.432
		c0,0.24-0.192,0.432-0.432,0.432H12.25v2.866h4.198c0.24,0,0.432,0.204,0.432,0.432c0,0.24-0.192,0.432-0.432,0.432H12.25v2.938
		h4.797c0.24,0,0.432,0.192,0.432,0.432s-0.192,0.432-0.432,0.432h-5.277C11.519,9.118,11.303,8.902,11.303,8.638z"/>
	<path fill="#FFFFFF" d="M18.744,8.11c-0.108-0.072-0.18-0.204-0.18-0.36c0-0.264,0.204-0.468,0.456-0.468
		c0.12,0,0.228,0.048,0.288,0.108c0.792,0.672,1.583,0.996,2.65,0.996c1.127,0,1.871-0.6,1.871-1.427V6.935
		c0-0.78-0.42-1.224-2.183-1.595c-1.931-0.42-2.818-1.043-2.818-2.423V2.893c0-1.319,1.163-2.291,2.758-2.291
		c1.104,0,1.907,0.276,2.674,0.827c0.096,0.072,0.204,0.204,0.204,0.384c0,0.252-0.204,0.456-0.456,0.456
		c-0.108,0-0.192-0.024-0.276-0.084c-0.708-0.516-1.392-0.731-2.171-0.731c-1.091,0-1.787,0.6-1.787,1.355v0.024
		c0,0.792,0.432,1.235,2.279,1.631c1.871,0.408,2.734,1.091,2.734,2.375v0.024c0,1.439-1.199,2.375-2.866,2.375
		C20.698,9.238,19.679,8.854,18.744,8.11z"/>
	<path fill="#FFFFFF" d="M26.004,8.11c-0.108-0.072-0.18-0.204-0.18-0.36c0-0.264,0.204-0.468,0.456-0.468
		c0.12,0,0.228,0.048,0.288,0.108c0.792,0.672,1.583,0.996,2.65,0.996c1.127,0,1.871-0.6,1.871-1.427V6.935
		c0-0.78-0.42-1.224-2.183-1.595c-1.931-0.42-2.818-1.043-2.818-2.423V2.893c0-1.319,1.163-2.291,2.758-2.291
		c1.104,0,1.907,0.276,2.674,0.827c0.096,0.072,0.204,0.204,0.204,0.384c0,0.252-0.204,0.456-0.456,0.456
		c-0.108,0-0.192-0.024-0.276-0.084c-0.708-0.516-1.392-0.731-2.171-0.731c-1.091,0-1.787,0.6-1.787,1.355v0.024
		c0,0.792,0.432,1.235,2.279,1.631c1.871,0.408,2.734,1.091,2.734,2.375v0.024c0,1.439-1.199,2.375-2.866,2.375
		C27.958,9.238,26.939,8.854,26.004,8.11z"/>
	<path fill="#FFFFFF" d="M33.023,8.494l3.406-7.448c0.12-0.264,0.3-0.419,0.6-0.419h0.048c0.288,0,0.479,0.156,0.587,0.419
		l3.406,7.436c0.036,0.084,0.06,0.168,0.06,0.24c0,0.252-0.204,0.456-0.456,0.456c-0.228,0-0.384-0.156-0.468-0.348l-0.875-1.931
		h-4.605l-0.875,1.955c-0.084,0.204-0.24,0.324-0.456,0.324c-0.24,0-0.432-0.192-0.432-0.432C32.964,8.674,32.976,8.59,33.023,8.494
		z M38.96,6.035l-1.931-4.293l-1.931,4.293H38.96z"/>
	<path fill="#FFFFFF" d="M41.844,4.944V4.92c0-2.303,1.691-4.342,4.21-4.342c1.271,0,2.099,0.336,2.866,0.9
		c0.108,0.084,0.192,0.216,0.192,0.384c0,0.264-0.216,0.479-0.468,0.479c-0.108,0-0.204-0.048-0.3-0.12
		c-0.6-0.456-1.271-0.768-2.327-0.768c-1.859,0-3.19,1.571-3.19,3.442V4.92c0,2.003,1.284,3.49,3.322,3.49
		c0.959,0,1.847-0.372,2.423-0.84V5.484h-2.255c-0.228,0-0.42-0.192-0.42-0.42c0-0.24,0.192-0.432,0.42-0.432h2.699
		c0.251,0,0.468,0.216,0.468,0.479v2.555c0,0.228-0.108,0.432-0.324,0.576c-0.768,0.563-1.799,1.02-3.046,1.02
		C43.475,9.262,41.844,7.343,41.844,4.944z"/>
	<path fill="#FFFFFF" d="M51.324,8.638V1.202c0-0.264,0.216-0.48,0.468-0.48h5.217c0.24,0,0.432,0.192,0.432,0.432
		c0,0.24-0.192,0.432-0.432,0.432h-4.737v2.866h4.198c0.24,0,0.432,0.204,0.432,0.432c0,0.24-0.192,0.432-0.432,0.432h-4.198v2.938
		h4.797c0.24,0,0.432,0.192,0.432,0.432s-0.192,0.432-0.432,0.432h-5.277C51.54,9.118,51.324,8.902,51.324,8.638z"/>
	<path fill="#FFFFFF" d="M58.764,8.11c-0.108-0.072-0.18-0.204-0.18-0.36c0-0.264,0.204-0.468,0.456-0.468
		c0.12,0,0.228,0.048,0.288,0.108c0.792,0.672,1.583,0.996,2.65,0.996c1.127,0,1.871-0.6,1.871-1.427V6.935
		c0-0.78-0.42-1.224-2.183-1.595c-1.931-0.42-2.818-1.043-2.818-2.423V2.893c0-1.319,1.163-2.291,2.758-2.291
		c1.104,0,1.907,0.276,2.674,0.827c0.096,0.072,0.204,0.204,0.204,0.384c0,0.252-0.204,0.456-0.456,0.456
		c-0.108,0-0.192-0.024-0.276-0.084c-0.708-0.516-1.392-0.731-2.171-0.731c-1.091,0-1.787,0.6-1.787,1.355v0.024
		c0,0.792,0.432,1.235,2.279,1.631c1.871,0.408,2.734,1.091,2.734,2.375v0.024c0,1.439-1.199,2.375-2.866,2.375
		C60.718,9.238,59.699,8.854,58.764,8.11z"/>
</g>
</svg>
