<?xml version="1.0" encoding="utf-8"?>
<!-- Generator: Adobe Illustrator 16.0.0, SVG Export Plug-In . SVG Version: 6.00 Build 0)  -->
<!DOCTYPE svg PUBLIC "-//W3C//DTD SVG 1.1//EN" "http://www.w3.org/Graphics/SVG/1.1/DTD/svg11.dtd" [
	<!ENTITY ns_extend "http://ns.adobe.com/Extensibility/1.0/">
	<!ENTITY ns_ai "http://ns.adobe.com/AdobeIllustrator/10.0/">
	<!ENTITY ns_graphs "http://ns.adobe.com/Graphs/1.0/">
	<!ENTITY ns_vars "http://ns.adobe.com/Variables/1.0/">
	<!ENTITY ns_imrep "http://ns.adobe.com/ImageReplacement/1.0/">
	<!ENTITY ns_sfw "http://ns.adobe.com/SaveForWeb/1.0/">
	<!ENTITY ns_custom "http://ns.adobe.com/GenericCustomNamespace/1.0/">
	<!ENTITY ns_adobe_xpath "http://ns.adobe.com/XPath/1.0/">
]>
<svg version="1.1" id="Layer_1" xmlns:x="&ns_extend;" xmlns:i="&ns_ai;" xmlns:graph="&ns_graphs;"
	 xmlns="http://www.w3.org/2000/svg" xmlns:xlink="http://www.w3.org/1999/xlink" x="0px" y="0px" width="87px" height="10.167px"
	 viewBox="-11.985 0 87 10.167" enable-background="new -11.985 0 87 10.167" xml:space="preserve">
<metadata>
	<sfw  xmlns="&ns_sfw;">
		<slices></slices>
		<sliceSourceBounds  y="416.335" x="562.422" bottomLeftOrigin="true" width="63.104" height="8.623"></sliceSourceBounds>
	</sfw>
</metadata>
<g enable-background="new    ">
	<path fill="#FFFFFF" d="M-0.191,8.493l3.406-7.447c0.12-0.264,0.3-0.42,0.6-0.42h0.048c0.288,0,0.479,0.156,0.587,0.42l3.406,7.436
		c0.036,0.084,0.06,0.168,0.06,0.24c0,0.252-0.204,0.455-0.456,0.455c-0.228,0-0.384-0.155-0.468-0.348L6.118,6.898H1.512
		L0.637,8.853c-0.084,0.204-0.24,0.323-0.456,0.323c-0.24,0-0.432-0.191-0.432-0.432C-0.25,8.673-0.239,8.589-0.191,8.493z
		 M5.746,6.035L3.815,1.741L1.885,6.035H5.746z"/>
	<path fill="#FFFFFF" d="M9.733,1.201c0-0.264,0.216-0.479,0.468-0.479h2.446c2.639,0,4.462,1.812,4.462,4.174v0.024
		c0,2.362-1.823,4.197-4.462,4.197h-2.446c-0.252,0-0.468-0.216-0.468-0.479V1.201z M12.647,8.241c2.123,0,3.479-1.438,3.479-3.298
		V4.919c0-1.859-1.355-3.322-3.479-3.322H10.68v6.644H12.647z"/>
	<path fill="#FFFFFF" d="M19.117,1.201c0-0.264,0.216-0.479,0.468-0.479h2.446c2.639,0,4.462,1.812,4.462,4.174v0.024
		c0,2.362-1.823,4.197-4.462,4.197h-2.446c-0.252,0-0.468-0.216-0.468-0.479V1.201z M22.031,8.241c2.123,0,3.478-1.438,3.478-3.298
		V4.919c0-1.859-1.355-3.322-3.478-3.322h-1.967v6.644H22.031z"/>
	<path fill="#FFFFFF" d="M32.101,1.201c0-0.264,0.216-0.479,0.468-0.479h5.193c0.239,0,0.432,0.192,0.432,0.432
		c0,0.24-0.192,0.444-0.432,0.444h-4.713v2.998h4.173c0.24,0,0.432,0.191,0.432,0.432s-0.191,0.432-0.432,0.432h-4.173v3.238
		c0,0.264-0.216,0.479-0.479,0.479c-0.252,0-0.468-0.216-0.468-0.479V1.201z"/>
	<path fill="#FFFFFF" d="M39.841,5.603V1.141c0-0.264,0.216-0.479,0.467-0.479c0.265,0,0.48,0.216,0.48,0.479v4.401
		c0,1.812,0.971,2.831,2.566,2.831c1.547,0,2.531-0.936,2.531-2.771V1.141c0-0.264,0.215-0.479,0.479-0.479
		c0.252,0,0.469,0.216,0.469,0.479v4.39c0,2.446-1.403,3.718-3.502,3.718C41.256,9.249,39.841,7.977,39.841,5.603z"/>
	<path fill="#FFFFFF" d="M49.081,8.637V1.201c0-0.264,0.215-0.479,0.467-0.479h5.217c0.24,0,0.433,0.192,0.433,0.432
		c0,0.24-0.192,0.432-0.433,0.432h-4.736v2.867h4.197c0.24,0,0.432,0.203,0.432,0.432c0,0.239-0.191,0.432-0.432,0.432h-4.197v2.938
		h4.797c0.24,0,0.432,0.191,0.432,0.432s-0.191,0.432-0.432,0.432h-5.277C49.296,9.117,49.081,8.901,49.081,8.637z"/>
	<path fill="#FFFFFF" d="M57.12,1.141c0-0.264,0.217-0.479,0.469-0.479c0.264,0,0.479,0.216,0.479,0.479v7.1h4.354
		c0.24,0,0.433,0.204,0.433,0.444s-0.192,0.432-0.433,0.432h-4.832c-0.252,0-0.469-0.216-0.469-0.479V1.141z"/>
</g>
</svg>
