<?xml version="1.0" encoding="utf-8"?>
<!-- Generator: Adobe Illustrator 16.0.0, SVG Export Plug-In . SVG Version: 6.00 Build 0)  -->
<!DOCTYPE svg PUBLIC "-//W3C//DTD SVG 1.1//EN" "http://www.w3.org/Graphics/SVG/1.1/DTD/svg11.dtd" [
	<!ENTITY ns_extend "http://ns.adobe.com/Extensibility/1.0/">
	<!ENTITY ns_ai "http://ns.adobe.com/AdobeIllustrator/10.0/">
	<!ENTITY ns_graphs "http://ns.adobe.com/Graphs/1.0/">
	<!ENTITY ns_vars "http://ns.adobe.com/Variables/1.0/">
	<!ENTITY ns_imrep "http://ns.adobe.com/ImageReplacement/1.0/">
	<!ENTITY ns_sfw "http://ns.adobe.com/SaveForWeb/1.0/">
	<!ENTITY ns_custom "http://ns.adobe.com/GenericCustomNamespace/1.0/">
	<!ENTITY ns_adobe_xpath "http://ns.adobe.com/XPath/1.0/">
]>
<svg version="1.1" id="Layer_1" xmlns:x="&ns_extend;" xmlns:i="&ns_ai;" xmlns:graph="&ns_graphs;"
	 xmlns="http://www.w3.org/2000/svg" xmlns:xlink="http://www.w3.org/1999/xlink" x="0px" y="0px" width="87px" height="10.167px"
	 viewBox="0 0 87 10.167" enable-background="new 0 0 87 10.167" xml:space="preserve">
<metadata>
	<sfw  xmlns="&ns_sfw;">
		<slices></slices>
		<sliceSourceBounds  y="299.551" x="353.414" width="84.395" height="13.116" bottomLeftOrigin="true"></sliceSourceBounds>
	</sfw>
</metadata>
<g id="Layer_1_1_" display="none">
	
		<text transform="matrix(1 0 0 1 17.2129 9.1167)" display="inline" fill="#1D1D1B" font-family="'GothamRounded-Book'" font-size="12">DRIVING</text>
</g>
<g id="Layer_2" display="none">
	<g display="inline" enable-background="new    ">
		<path fill="#FFFFFF" d="M6.292,1.201c0-0.264,0.216-0.479,0.468-0.479h2.446c2.639,0,4.462,1.812,4.462,4.174V4.92
			c0,2.363-1.823,4.197-4.462,4.197H6.76c-0.252,0-0.468-0.216-0.468-0.479V1.201z M9.207,8.242c2.123,0,3.478-1.439,3.478-3.299
			V4.919c0-1.859-1.355-3.322-3.478-3.322H7.24v6.645H9.207z"/>
		<path fill="#FFFFFF" d="M15.76,1.141c0-0.264,0.216-0.479,0.468-0.479c0.264,0,0.479,0.216,0.479,0.479v7.556
			c0,0.264-0.216,0.479-0.479,0.479c-0.252,0-0.468-0.215-0.468-0.479V1.141z"/>
		<path fill="#FFFFFF" d="M19.168,1.201c0-0.264,0.216-0.479,0.468-0.479h3.142c1.031,0,1.859,0.312,2.387,0.84
			c0.408,0.407,0.647,0.995,0.647,1.655V3.24c0,1.38-0.936,2.183-2.243,2.435l2.087,2.687c0.096,0.108,0.156,0.216,0.156,0.349
			c0,0.252-0.24,0.467-0.479,0.467c-0.192,0-0.336-0.106-0.444-0.25l-2.363-3.07h-2.411v2.842c0,0.264-0.216,0.479-0.479,0.479
			c-0.252,0-0.468-0.215-0.468-0.479V1.201z M22.694,5.003c1.259,0,2.159-0.648,2.159-1.728V3.251c0-1.031-0.792-1.654-2.146-1.654
			h-2.591v3.406H22.694z"/>
		<path fill="#FFFFFF" d="M27.844,8.637V1.201c0-0.264,0.216-0.479,0.468-0.479h5.217c0.24,0,0.432,0.192,0.432,0.432
			c0,0.24-0.192,0.432-0.432,0.432h-4.737v2.867h4.198c0.24,0,0.432,0.203,0.432,0.432c0,0.239-0.192,0.432-0.432,0.432h-4.198
			v2.938h4.797c0.24,0,0.432,0.19,0.432,0.432c0,0.24-0.192,0.432-0.432,0.432h-5.277C28.06,9.117,27.844,8.901,27.844,8.637z"/>
		<path fill="#FFFFFF" d="M35.512,4.943V4.919c0-2.375,1.775-4.342,4.246-4.342c1.355,0,2.219,0.443,2.999,1.091
			c0.096,0.084,0.192,0.216,0.192,0.384c0,0.252-0.228,0.468-0.479,0.468c-0.132,0-0.24-0.06-0.312-0.107
			c-0.648-0.576-1.379-0.96-2.411-0.96c-1.859,0-3.25,1.512-3.25,3.442v0.024c0,1.942,1.403,3.465,3.25,3.465
			c1.043,0,1.775-0.359,2.495-1.02c0.072-0.072,0.18-0.132,0.3-0.132c0.24,0,0.456,0.216,0.456,0.456
			c0,0.145-0.072,0.264-0.156,0.335c-0.828,0.757-1.739,1.235-3.118,1.235C37.299,9.259,35.512,7.354,35.512,4.943z"/>
		<path fill="#FFFFFF" d="M46.959,1.597h-2.436c-0.239,0-0.443-0.192-0.443-0.432s0.204-0.444,0.443-0.444h5.83
			c0.238,0,0.442,0.204,0.442,0.444c0,0.239-0.204,0.432-0.442,0.432h-2.437v7.1c0,0.264-0.215,0.479-0.479,0.479
			c-0.264,0-0.479-0.215-0.479-0.479V1.597z"/>
		<path fill="#FFFFFF" d="M52.6,1.141c0-0.264,0.217-0.479,0.469-0.479c0.265,0,0.479,0.216,0.479,0.479v7.556
			c0,0.264-0.215,0.479-0.479,0.479c-0.252,0-0.469-0.215-0.469-0.479V1.141z"/>
		<path fill="#FFFFFF" d="M55.637,4.943V4.919c0-2.315,1.738-4.342,4.293-4.342S64.2,2.58,64.2,4.894v0.024
			c0,2.314-1.739,4.341-4.294,4.341S55.637,7.257,55.637,4.943z M63.216,4.943V4.919c0-1.907-1.392-3.467-3.312-3.467
			c-1.918,0-3.285,1.535-3.285,3.442v0.024c0,1.906,1.393,3.466,3.311,3.466C61.85,8.384,63.216,6.85,63.216,4.943z"/>
		<path fill="#FFFFFF" d="M66.207,1.153c0-0.252,0.217-0.468,0.469-0.468h0.131c0.217,0,0.348,0.108,0.48,0.276l5.097,6.5V1.129
			c0-0.252,0.204-0.468,0.468-0.468c0.252,0,0.457,0.216,0.457,0.468v7.58c0,0.252-0.182,0.443-0.434,0.443h-0.047
			c-0.204,0-0.348-0.119-0.492-0.287l-5.205-6.657v6.5c0,0.252-0.203,0.467-0.468,0.467c-0.252,0-0.456-0.215-0.456-0.467V1.153z"/>
		<path fill="#FFFFFF" d="M75.389,8.109c-0.109-0.07-0.182-0.203-0.182-0.359c0-0.264,0.205-0.467,0.457-0.467
			c0.119,0,0.227,0.047,0.287,0.107c0.791,0.671,1.583,0.994,2.65,0.994c1.127,0,1.871-0.6,1.871-1.428V6.934
			c0-0.778-0.42-1.224-2.184-1.596c-1.932-0.419-2.818-1.043-2.818-2.422V2.892c0-1.319,1.163-2.291,2.76-2.291
			c1.104,0,1.906,0.276,2.674,0.828C81,1.5,81.107,1.632,81.107,1.813c0,0.252-0.203,0.455-0.455,0.455
			c-0.107,0-0.191-0.023-0.275-0.084c-0.708-0.516-1.393-0.731-2.171-0.731c-1.091,0-1.787,0.6-1.787,1.355v0.024
			c0,0.791,0.433,1.235,2.278,1.631c1.871,0.407,2.734,1.091,2.734,2.375v0.023c0,1.439-1.199,2.375-2.865,2.375
			C77.342,9.237,76.323,8.853,75.389,8.109z"/>
	</g>
</g>
<g id="Layer_3" display="none">
	
		<text transform="matrix(1 0 0 1 12.9766 9.1167)" display="inline" fill="#1D1D1B" font-family="'GothamRounded-Book'" font-size="12">SETTINGS</text>
</g>
<g id="Layer_4" display="none">
	<g display="inline" enable-background="new    ">
		<path fill="#1D1D1B" d="M1.475,8.494l3.406-7.448c0.12-0.264,0.3-0.42,0.6-0.42h0.048c0.288,0,0.479,0.156,0.587,0.42l3.406,7.436
			c0.036,0.084,0.06,0.168,0.06,0.24c0,0.252-0.204,0.455-0.456,0.455c-0.228,0-0.384-0.155-0.468-0.348L7.783,6.898H3.178
			L2.302,8.853c-0.084,0.204-0.24,0.322-0.456,0.322c-0.24,0-0.432-0.19-0.432-0.432C1.415,8.673,1.427,8.589,1.475,8.494z
			 M7.412,6.035L5.48,1.741L3.55,6.035H7.412z"/>
		<path fill="#1D1D1B" d="M11.398,1.201c0-0.264,0.216-0.479,0.468-0.479h2.446c2.639,0,4.462,1.812,4.462,4.174V4.92
			c0,2.363-1.823,4.197-4.462,4.197h-2.446c-0.252,0-0.468-0.216-0.468-0.479V1.201z M14.312,8.242c2.123,0,3.479-1.439,3.479-3.299
			V4.919c0-1.859-1.355-3.322-3.479-3.322h-1.967v6.645H14.312z"/>
		<path fill="#1D1D1B" d="M20.783,1.201c0-0.264,0.216-0.479,0.468-0.479h2.446c2.639,0,4.462,1.812,4.462,4.174V4.92
			c0,2.363-1.823,4.197-4.462,4.197H21.25c-0.252,0-0.468-0.216-0.468-0.479L20.783,1.201L20.783,1.201z M23.697,8.242
			c2.123,0,3.478-1.439,3.478-3.299V4.919c0-1.859-1.355-3.322-3.478-3.322H21.73v6.645H23.697z"/>
		<path fill="#1D1D1B" d="M36.465,8.817l-3.238-7.472c-0.036-0.072-0.048-0.132-0.048-0.216c0-0.24,0.216-0.468,0.48-0.468
			c0.24,0,0.408,0.155,0.492,0.359l2.902,6.956l2.914-6.979c0.084-0.168,0.252-0.336,0.468-0.336c0.264,0,0.468,0.216,0.468,0.455
			c0,0.072-0.012,0.133-0.036,0.192l-3.25,7.508c-0.108,0.24-0.276,0.396-0.552,0.396h-0.048
			C36.741,9.212,36.561,9.057,36.465,8.817z"/>
		<path fill="#1D1D1B" d="M42.694,8.637V1.201c0-0.264,0.216-0.479,0.468-0.479h5.217c0.24,0,0.432,0.192,0.432,0.432
			c0,0.24-0.19,0.432-0.432,0.432h-4.737v2.867h4.198c0.239,0,0.432,0.203,0.432,0.432c0,0.239-0.191,0.432-0.432,0.432h-4.198
			v2.938h4.797c0.24,0,0.433,0.19,0.433,0.432c0,0.24-0.192,0.432-0.433,0.432h-5.276C42.91,9.117,42.694,8.901,42.694,8.637z"/>
		<path fill="#1D1D1B" d="M50.734,1.141c0-0.264,0.216-0.479,0.468-0.479c0.264,0,0.479,0.216,0.479,0.479v3.311h4.846V1.141
			c0-0.264,0.216-0.479,0.479-0.479c0.252,0,0.469,0.216,0.469,0.479v7.556c0,0.264-0.217,0.479-0.469,0.479
			c-0.264,0-0.479-0.215-0.479-0.479V5.338h-4.846v3.358c0,0.265-0.217,0.479-0.479,0.479c-0.252,0-0.468-0.217-0.468-0.479V1.141z"
			/>
		<path fill="#1D1D1B" d="M59.938,1.141c0-0.264,0.217-0.479,0.469-0.479c0.264,0,0.479,0.216,0.479,0.479v7.556
			c0,0.264-0.216,0.479-0.479,0.479c-0.252,0-0.469-0.215-0.469-0.479V1.141z"/>
		<path fill="#1D1D1B" d="M62.975,4.943V4.919c0-2.375,1.774-4.342,4.246-4.342c1.354,0,2.219,0.443,2.998,1.091
			c0.096,0.084,0.191,0.216,0.191,0.384c0,0.252-0.229,0.468-0.479,0.468c-0.133,0-0.24-0.06-0.312-0.107
			c-0.648-0.576-1.38-0.96-2.411-0.96c-1.858,0-3.251,1.512-3.251,3.442v0.024c0,1.942,1.404,3.465,3.251,3.465
			c1.044,0,1.774-0.359,2.495-1.02c0.07-0.072,0.18-0.132,0.299-0.132c0.24,0,0.456,0.216,0.456,0.456
			c0,0.145-0.071,0.264-0.155,0.335c-0.828,0.757-1.74,1.235-3.119,1.235C64.762,9.259,62.975,7.354,62.975,4.943z"/>
		<path fill="#1D1D1B" d="M72.202,1.141c0-0.264,0.216-0.479,0.468-0.479c0.264,0,0.479,0.216,0.479,0.479v7.101h4.354
			c0.24,0,0.433,0.203,0.433,0.443s-0.191,0.432-0.433,0.432H72.67c-0.252,0-0.468-0.216-0.468-0.479V1.141z"/>
		<path fill="#1D1D1B" d="M79.63,8.637V1.201c0-0.264,0.216-0.479,0.468-0.479h5.217c0.24,0,0.433,0.192,0.433,0.432
			c0,0.24-0.19,0.432-0.433,0.432h-4.736v2.867h4.197c0.24,0,0.433,0.203,0.433,0.432c0,0.239-0.192,0.432-0.433,0.432h-4.197v2.938
			h4.798c0.239,0,0.433,0.19,0.433,0.432c0,0.24-0.192,0.432-0.433,0.432H80.1C79.846,9.117,79.63,8.901,79.63,8.637z"/>
	</g>
</g>
<g id="Layer_5" display="none">
	
		<text transform="matrix(1 0 0 1 4.2793 9.1167)" display="inline" fill="#1D1D1B" font-family="'GothamRounded-Book'" font-size="12">FORGOTTEN</text>
</g>
<g id="Layer_5_1_">
	<g enable-background="new    ">
		<path fill="#FFFFFF" d="M2.188,1.201c0-0.264,0.216-0.479,0.468-0.479h5.193c0.24,0,0.432,0.192,0.432,0.432
			c0,0.24-0.192,0.444-0.432,0.444H3.135v2.998h4.174c0.24,0,0.432,0.191,0.432,0.432S7.549,5.458,7.309,5.458H3.135v3.238
			c0,0.264-0.216,0.479-0.479,0.479c-0.252,0-0.468-0.216-0.468-0.479V1.201z"/>
		<path fill="#FFFFFF" d="M9.508,4.943V4.919c0-2.315,1.739-4.342,4.294-4.342c2.554,0,4.27,2.003,4.27,4.317v0.024
			c0,2.314-1.739,4.341-4.293,4.341C11.223,9.26,9.508,7.257,9.508,4.943z M17.088,4.943V4.919c0-1.907-1.391-3.467-3.31-3.467
			s-3.287,1.535-3.287,3.442v0.024c0,1.906,1.392,3.466,3.311,3.466S17.088,6.85,17.088,4.943z"/>
		<path fill="#FFFFFF" d="M20.08,1.201c0-0.264,0.216-0.479,0.468-0.479h3.142c1.031,0,1.859,0.312,2.387,0.84
			c0.408,0.407,0.647,0.995,0.647,1.655V3.24c0,1.38-0.936,2.183-2.243,2.435l2.087,2.687c0.096,0.108,0.156,0.216,0.156,0.348
			c0,0.252-0.24,0.468-0.479,0.468c-0.192,0-0.336-0.107-0.444-0.251l-2.363-3.07h-2.411v2.842c0,0.264-0.216,0.479-0.479,0.479
			c-0.252,0-0.468-0.216-0.468-0.479V1.201z M23.605,5.003c1.259,0,2.159-0.648,2.159-1.728V3.251c0-1.031-0.792-1.654-2.146-1.654
			h-2.591v3.406H23.605z"/>
		<path fill="#FFFFFF" d="M28.384,4.943V4.919c0-2.303,1.691-4.342,4.21-4.342c1.271,0,2.099,0.336,2.866,0.899
			c0.108,0.084,0.192,0.216,0.192,0.384c0,0.264-0.216,0.479-0.468,0.479c-0.108,0-0.204-0.048-0.3-0.12
			c-0.6-0.455-1.271-0.768-2.327-0.768c-1.859,0-3.19,1.571-3.19,3.442v0.024c0,2.003,1.284,3.489,3.322,3.489
			c0.959,0,1.847-0.371,2.423-0.839V5.483h-2.255c-0.228,0-0.42-0.192-0.42-0.42c0-0.24,0.192-0.432,0.42-0.432h2.699
			c0.251,0,0.468,0.216,0.468,0.479v2.555c0,0.228-0.108,0.432-0.324,0.575c-0.768,0.564-1.799,1.02-3.046,1.02
			C30.015,9.26,28.384,7.341,28.384,4.943z"/>
		<path fill="#FFFFFF" d="M37.792,4.943V4.919c0-2.315,1.739-4.342,4.294-4.342c2.554,0,4.27,2.003,4.27,4.317v0.024
			c0,2.314-1.739,4.341-4.294,4.341C39.507,9.26,37.792,7.257,37.792,4.943z M45.372,4.943V4.919c0-1.907-1.392-3.467-3.311-3.467
			s-3.286,1.535-3.286,3.442v0.024c0,1.906,1.392,3.466,3.311,3.466C44.005,8.385,45.372,6.85,45.372,4.943z"/>
		<path fill="#FFFFFF" d="M50.007,1.597h-2.435c-0.24,0-0.444-0.192-0.444-0.432c0-0.24,0.204-0.444,0.444-0.444H53.4
			c0.24,0,0.444,0.204,0.444,0.444c0,0.239-0.204,0.432-0.444,0.432h-2.435v7.1c0,0.264-0.216,0.479-0.479,0.479
			s-0.479-0.216-0.479-0.479V1.597z"/>
		<path fill="#FFFFFF" d="M57.782,1.597h-2.435c-0.24,0-0.443-0.192-0.443-0.432c0-0.24,0.203-0.444,0.443-0.444h5.829
			c0.239,0,0.443,0.204,0.443,0.444c0,0.239-0.204,0.432-0.443,0.432h-2.435v7.1c0,0.264-0.216,0.479-0.48,0.479
			c-0.264,0-0.479-0.216-0.479-0.479V1.597z"/>
		<path fill="#FFFFFF" d="M63.34,8.637V1.201c0-0.264,0.216-0.479,0.468-0.479h5.217c0.24,0,0.432,0.192,0.432,0.432
			c0,0.24-0.191,0.432-0.432,0.432h-4.737v2.867h4.197c0.24,0,0.432,0.203,0.432,0.432c0,0.239-0.191,0.432-0.432,0.432h-4.197
			v2.938h4.797c0.24,0,0.432,0.191,0.432,0.432s-0.191,0.432-0.432,0.432h-5.276C63.556,9.117,63.34,8.901,63.34,8.637z"/>
		<path fill="#FFFFFF" d="M71.38,1.153c0-0.252,0.216-0.468,0.468-0.468h0.132c0.216,0,0.348,0.108,0.479,0.276l5.097,6.5V1.129
			c0-0.252,0.204-0.468,0.468-0.468c0.252,0,0.456,0.216,0.456,0.468v7.579c0,0.252-0.18,0.444-0.432,0.444H78
			c-0.204,0-0.348-0.12-0.492-0.288l-5.205-6.656v6.5c0,0.252-0.204,0.468-0.468,0.468c-0.252,0-0.455-0.216-0.455-0.468V1.153z"/>
		<path fill="#FFFFFF" d="M82.599,6.802c-0.156,0-0.288-0.132-0.312-0.324l-0.133-1.343c-0.023-0.229,0.12-0.396,0.349-0.42
			c1.271-0.096,2.074-0.66,2.074-1.667V3.024c0-0.863-0.671-1.559-1.751-1.559c-0.804,0-1.439,0.348-1.979,0.935
			c-0.084,0.072-0.192,0.133-0.324,0.133c-0.239,0-0.432-0.181-0.432-0.42c0-0.108,0.048-0.229,0.144-0.324
			c0.636-0.695,1.452-1.175,2.615-1.175c1.619,0,2.687,1.007,2.687,2.374v0.024c0,1.499-1.128,2.242-2.495,2.435l-0.084,1.031
			c-0.023,0.192-0.144,0.324-0.312,0.324H82.599z M82.61,7.797c0.324,0,0.576,0.24,0.576,0.563v0.24
			c0,0.324-0.252,0.575-0.576,0.575c-0.323,0-0.575-0.251-0.575-0.575v-0.24C82.035,8.038,82.287,7.797,82.61,7.797z"/>
	</g>
</g>
</svg>
