<?xml version="1.0" encoding="utf-8"?>
<!-- Generator: Adobe Illustrator 16.0.0, SVG Export Plug-In . SVG Version: 6.00 Build 0)  -->
<!DOCTYPE svg PUBLIC "-//W3C//DTD SVG 1.1//EN" "http://www.w3.org/Graphics/SVG/1.1/DTD/svg11.dtd" [
	<!ENTITY ns_extend "http://ns.adobe.com/Extensibility/1.0/">
	<!ENTITY ns_ai "http://ns.adobe.com/AdobeIllustrator/10.0/">
	<!ENTITY ns_graphs "http://ns.adobe.com/Graphs/1.0/">
	<!ENTITY ns_vars "http://ns.adobe.com/Variables/1.0/">
	<!ENTITY ns_imrep "http://ns.adobe.com/ImageReplacement/1.0/">
	<!ENTITY ns_sfw "http://ns.adobe.com/SaveForWeb/1.0/">
	<!ENTITY ns_custom "http://ns.adobe.com/GenericCustomNamespace/1.0/">
	<!ENTITY ns_adobe_xpath "http://ns.adobe.com/XPath/1.0/">
]>
<svg version="1.1" id="Layer_1" xmlns:x="&ns_extend;" xmlns:i="&ns_ai;" xmlns:graph="&ns_graphs;"
	 xmlns="http://www.w3.org/2000/svg" xmlns:xlink="http://www.w3.org/1999/xlink" x="0px" y="0px" width="87px" height="10.167px"
	 viewBox="0 0 87 10.167" enable-background="new 0 0 87 10.167" xml:space="preserve">
<metadata>
	<sfw  xmlns="&ns_sfw;">
		<slices></slices>
		<sliceSourceBounds  bottomLeftOrigin="true" height="13.116" width="85.679" x="552.803" y="413.551"></sliceSourceBounds>
	</sfw>
</metadata>
<g id="Layer_1_1_" display="none">
	
		<text transform="matrix(1 0 0 1 17.2129 9.1167)" display="inline" fill="#1D1D1B" font-family="'GothamRounded-Book'" font-size="12">DRIVING</text>
</g>
<g id="Layer_2" display="none">
	
		<text transform="matrix(1 0 0 1 5.105 9.1167)" display="inline" fill="#1D1D1B" font-family="'GothamRounded-Book'" font-size="12">DIRECTIONS</text>
</g>
<g id="Layer_3" display="none">
	
		<text transform="matrix(1 0 0 1 12.9766 9.1167)" display="inline" fill="#1D1D1B" font-family="'GothamRounded-Book'" font-size="12">SETTINGS</text>
</g>
<g id="Layer_2_1_">
	<g id="Layer_3_1_">
		<g enable-background="new    ">
			<path fill="#FFFFFF" d="M14.164,1.153c0-0.252,0.216-0.468,0.468-0.468h0.132c0.216,0,0.348,0.108,0.479,0.276l5.097,6.5V1.129
				c0-0.252,0.204-0.468,0.468-0.468c0.252,0,0.456,0.216,0.456,0.468v7.579c0,0.252-0.18,0.444-0.432,0.444h-0.048
				c-0.204,0-0.348-0.12-0.492-0.288l-5.205-6.656v6.5c0,0.252-0.204,0.468-0.468,0.468c-0.252,0-0.456-0.216-0.456-0.468V1.153z"/>
			<path fill="#FFFFFF" d="M23.644,8.637V1.201c0-0.264,0.216-0.479,0.468-0.479h5.217c0.24,0,0.432,0.192,0.432,0.432
				c0,0.24-0.192,0.432-0.432,0.432h-4.737v2.867h4.198c0.24,0,0.432,0.203,0.432,0.432c0,0.239-0.192,0.432-0.432,0.432h-4.198
				v2.938h4.797c0.24,0,0.432,0.191,0.432,0.432s-0.192,0.432-0.432,0.432h-5.277C23.86,9.117,23.644,8.901,23.644,8.637z"/>
			<path fill="#FFFFFF" d="M31.18,1.357c-0.024-0.072-0.048-0.144-0.048-0.216c0-0.252,0.228-0.479,0.492-0.479
				c0.24,0,0.42,0.18,0.492,0.396l2.315,6.668l2.194-6.692c0.072-0.216,0.216-0.371,0.468-0.371h0.06
				c0.24,0,0.396,0.155,0.468,0.371l2.195,6.692l2.327-6.692c0.072-0.216,0.228-0.371,0.456-0.371c0.251,0,0.479,0.228,0.479,0.468
				c0,0.071-0.036,0.155-0.06,0.228l-2.687,7.46c-0.084,0.24-0.252,0.408-0.492,0.408h-0.072c-0.24,0-0.408-0.168-0.492-0.408
				l-2.183-6.452l-2.17,6.452c-0.084,0.24-0.252,0.408-0.492,0.408h-0.072c-0.24,0-0.408-0.156-0.492-0.408L31.18,1.357z"/>
			<path fill="#FFFFFF" d="M50.715,1.597h-2.436c-0.24,0-0.443-0.192-0.443-0.432c0-0.24,0.203-0.444,0.443-0.444h5.829
				c0.239,0,0.444,0.204,0.444,0.444c0,0.239-0.205,0.432-0.444,0.432h-2.435v7.1c0,0.264-0.216,0.479-0.48,0.479
				c-0.264,0-0.479-0.216-0.479-0.479V1.597z"/>
			<path fill="#FFFFFF" d="M56.271,1.201c0-0.264,0.216-0.479,0.468-0.479h3.142c1.031,0,1.859,0.312,2.387,0.84
				c0.408,0.407,0.648,0.995,0.648,1.655V3.24c0,1.38-0.936,2.183-2.243,2.435l2.087,2.687c0.096,0.108,0.156,0.216,0.156,0.348
				c0,0.252-0.24,0.468-0.48,0.468c-0.191,0-0.336-0.107-0.443-0.251l-2.363-3.07h-2.41v2.842c0,0.264-0.216,0.479-0.479,0.479
				c-0.252,0-0.468-0.216-0.468-0.479V1.201z M59.797,5.003c1.26,0,2.159-0.648,2.159-1.728V3.251c0-1.031-0.792-1.654-2.146-1.654
				h-2.591v3.406H59.797z"/>
			<path fill="#FFFFFF" d="M65.031,1.141c0-0.264,0.217-0.479,0.469-0.479c0.264,0,0.479,0.216,0.479,0.479v7.556
				c0,0.264-0.215,0.479-0.479,0.479c-0.252,0-0.469-0.216-0.469-0.479V1.141z"/>
			<path fill="#FFFFFF" d="M68.439,1.201c0-0.264,0.216-0.479,0.468-0.479h2.675c1.895,0,3.142,1.008,3.142,2.663v0.023
				c0,1.812-1.511,2.747-3.298,2.747h-2.039v2.542c0,0.264-0.216,0.479-0.479,0.479c-0.252,0-0.468-0.216-0.468-0.479V1.201z
				 M71.461,5.291c1.393,0,2.303-0.743,2.303-1.847V3.419c0-1.199-0.898-1.822-2.254-1.822h-2.123v3.693H71.461z"/>
		</g>
	</g>
</g>
<g id="Layer_4" display="none">
	
		<text transform="matrix(1 0 0 1 0.8032 9.1167)" display="inline" fill="#1D1D1B" font-family="'GothamRounded-Book'" font-size="12">ADD VEHICLE</text>
</g>
<g id="Layer_5" display="none">
	<g display="inline" enable-background="new    ">
		<path fill="#1D1D1B" d="M12.718,1.153c0-0.252,0.216-0.468,0.468-0.468h0.132c0.216,0,0.348,0.108,0.479,0.276l5.097,6.5V1.129
			c0-0.252,0.204-0.468,0.468-0.468c0.252,0,0.456,0.216,0.456,0.468v7.579c0,0.252-0.18,0.444-0.432,0.444h-0.048
			c-0.204,0-0.348-0.12-0.492-0.288l-5.205-6.656v6.5c0,0.252-0.204,0.468-0.468,0.468c-0.252,0-0.456-0.216-0.456-0.468V1.153z"/>
		<path fill="#1D1D1B" d="M22.198,8.637V1.201c0-0.264,0.216-0.479,0.468-0.479h5.217c0.24,0,0.432,0.192,0.432,0.432
			c0,0.24-0.192,0.432-0.432,0.432h-4.737v2.867h4.198c0.24,0,0.432,0.203,0.432,0.432c0,0.239-0.192,0.432-0.432,0.432h-4.198
			v2.938h4.797c0.24,0,0.432,0.191,0.432,0.432s-0.192,0.432-0.432,0.432h-5.277C22.414,9.117,22.198,8.901,22.198,8.637z"/>
		<path fill="#1D1D1B" d="M29.734,1.357c-0.024-0.072-0.048-0.144-0.048-0.216c0-0.252,0.228-0.479,0.492-0.479
			c0.24,0,0.42,0.18,0.492,0.396l2.315,6.668l2.194-6.692c0.072-0.216,0.216-0.371,0.468-0.371h0.06c0.24,0,0.396,0.155,0.468,0.371
			l2.195,6.692l2.327-6.692c0.072-0.216,0.228-0.371,0.456-0.371c0.251,0,0.479,0.228,0.479,0.468c0,0.071-0.036,0.155-0.06,0.228
			l-2.687,7.46c-0.084,0.24-0.252,0.408-0.492,0.408h-0.072c-0.24,0-0.408-0.168-0.492-0.408l-2.183-6.452l-2.17,6.452
			c-0.084,0.24-0.252,0.408-0.492,0.408h-0.072c-0.24,0-0.408-0.156-0.492-0.408L29.734,1.357z"/>
		<path fill="#1D1D1B" d="M49.269,1.597h-2.435c-0.24,0-0.443-0.192-0.443-0.432c0-0.24,0.203-0.444,0.443-0.444h5.828
			c0.24,0,0.444,0.204,0.444,0.444c0,0.239-0.204,0.432-0.444,0.432h-2.434v7.1c0,0.264-0.217,0.479-0.48,0.479
			s-0.479-0.216-0.479-0.479V1.597z"/>
		<path fill="#1D1D1B" d="M54.826,1.201c0-0.264,0.215-0.479,0.467-0.479h3.143c1.031,0,1.859,0.312,2.387,0.84
			c0.408,0.407,0.647,0.995,0.647,1.655V3.24c0,1.38-0.936,2.183-2.243,2.435l2.088,2.687c0.096,0.108,0.155,0.216,0.155,0.348
			c0,0.252-0.239,0.468-0.479,0.468c-0.191,0-0.336-0.107-0.443-0.251l-2.363-3.07h-2.41v2.842c0,0.264-0.217,0.479-0.48,0.479
			c-0.252,0-0.467-0.216-0.467-0.479V1.201z M58.352,5.003c1.26,0,2.158-0.648,2.158-1.728V3.251c0-1.031-0.791-1.654-2.146-1.654
			h-2.59v3.406H58.352z"/>
		<path fill="#1D1D1B" d="M63.586,1.141c0-0.264,0.216-0.479,0.468-0.479c0.264,0,0.479,0.216,0.479,0.479v7.556
			c0,0.264-0.216,0.479-0.479,0.479c-0.252,0-0.468-0.216-0.468-0.479V1.141z"/>
		<path fill="#1D1D1B" d="M66.994,1.201c0-0.264,0.215-0.479,0.467-0.479h2.675c1.896,0,3.142,1.008,3.142,2.663v0.023
			c0,1.812-1.51,2.747-3.297,2.747h-2.039v2.542c0,0.264-0.217,0.479-0.48,0.479c-0.252,0-0.467-0.216-0.467-0.479V1.201z
			 M70.016,5.291c1.392,0,2.303-0.743,2.303-1.847V3.419c0-1.199-0.899-1.822-2.254-1.822h-2.123v3.693H70.016z"/>
	</g>
</g>
</svg>
