<?xml version="1.0" encoding="utf-8"?>
<!-- Generator: Adobe Illustrator 16.0.0, SVG Export Plug-In . SVG Version: 6.00 Build 0)  -->
<!DOCTYPE svg PUBLIC "-//W3C//DTD SVG 1.1//EN" "http://www.w3.org/Graphics/SVG/1.1/DTD/svg11.dtd" [
	<!ENTITY ns_extend "http://ns.adobe.com/Extensibility/1.0/">
	<!ENTITY ns_ai "http://ns.adobe.com/AdobeIllustrator/10.0/">
	<!ENTITY ns_graphs "http://ns.adobe.com/Graphs/1.0/">
	<!ENTITY ns_vars "http://ns.adobe.com/Variables/1.0/">
	<!ENTITY ns_imrep "http://ns.adobe.com/ImageReplacement/1.0/">
	<!ENTITY ns_sfw "http://ns.adobe.com/SaveForWeb/1.0/">
	<!ENTITY ns_custom "http://ns.adobe.com/GenericCustomNamespace/1.0/">
	<!ENTITY ns_adobe_xpath "http://ns.adobe.com/XPath/1.0/">
]>
<svg version="1.1" id="Layer_1" xmlns:x="&ns_extend;" xmlns:i="&ns_ai;" xmlns:graph="&ns_graphs;"
	 xmlns="http://www.w3.org/2000/svg" xmlns:xlink="http://www.w3.org/1999/xlink" x="0px" y="0px" width="490.047px" height="512px"
	 viewBox="0 0 490.047 512" enable-background="new 0 0 490.047 512" xml:space="preserve">
<metadata>
	<sfw  xmlns="&ns_sfw;">
		<slices></slices>
		<sliceSourceBounds  x="154.594" bottomLeftOrigin="true" width="406.44" height="406.436" y="81.896"></sliceSourceBounds>
	</sfw>
</metadata>
<g id="fuel_1">
	<g>
		
			<linearGradient id="SVGID_1_" gradientUnits="userSpaceOnUse" x1="241.314" y1="51.3967" x2="241.3139" y2="457.8323" gradientTransform="matrix(1 0 0 -1 0 510.9995)">
			<stop  offset="0" style="stop-color:#626366"/>
			<stop  offset="0.9888" style="stop-color:#BBBDBF"/>
		</linearGradient>
		<path fill="url(#SVGID_1_)" d="M241.318,53.167c112.234,0,203.216,90.984,203.216,203.216c0,112.235-90.982,203.22-203.216,203.22
			c-112.235,0-203.224-90.984-203.224-203.22C38.094,144.151,129.083,53.167,241.318,53.167z"/>
	</g>
	<g>
		<linearGradient id="SVGID_2_" gradientUnits="userSpaceOnUse" x1="241.3145" y1="59.5461" x2="241.3144" y2="453.2239">
			<stop  offset="0.0112" style="stop-color:#FFFFFF"/>
			<stop  offset="0.2" style="stop-color:#9C9EA1"/>
			<stop  offset="0.4" style="stop-color:#FFFFFF"/>
			<stop  offset="0.6" style="stop-color:#626366"/>
			<stop  offset="0.8" style="stop-color:#FFFFFF"/>
			<stop  offset="1" style="stop-color:#808184"/>
		</linearGradient>
		<path fill="url(#SVGID_2_)" d="M241.318,453.223c-108.542,0-196.843-88.301-196.843-196.84
			c0-108.536,88.301-196.837,196.843-196.837c108.534,0,196.836,88.301,196.836,196.837
			C438.154,364.923,349.852,453.223,241.318,453.223L241.318,453.223z"/>
	</g>
	<g>
		<path fill="#FFFFFF" d="M241.318,441.144c-101.882,0-184.761-82.883-184.761-184.761c0-101.874,82.879-184.758,184.761-184.758
			c101.875,0,184.754,82.884,184.754,184.758C426.072,358.261,343.192,441.144,241.318,441.144L241.318,441.144z"/>
	</g>
	<g>
		<linearGradient id="SVGID_3_" gradientUnits="userSpaceOnUse" x1="241.314" y1="79.3264" x2="241.3139" y2="433.4446">
			<stop  offset="0.0112" style="stop-color:#616465"/>
			<stop  offset="1" style="stop-color:#000000"/>
		</linearGradient>
		<path fill="url(#SVGID_3_)" d="M241.318,433.444c-97.635,0-177.062-79.428-177.062-177.061
			c0-97.628,79.427-177.057,177.062-177.057c97.626,0,177.055,79.429,177.055,177.057
			C418.373,354.016,338.944,433.444,241.318,433.444L241.318,433.444z"/>
	</g>
	<g>
		<linearGradient id="SVGID_4_" gradientUnits="userSpaceOnUse" x1="241.3149" y1="81.6951" x2="241.3149" y2="431.0745">
			<stop  offset="0" style="stop-color:#000000"/>
			<stop  offset="1" style="stop-color:#333333"/>
		</linearGradient>
		<path fill="url(#SVGID_4_)" d="M241.318,431.074c-96.328,0-174.693-78.364-174.693-174.69
			c0-96.324,78.365-174.688,174.693-174.688c96.326,0,174.687,78.364,174.687,174.688
			C416.005,352.71,337.644,431.074,241.318,431.074L241.318,431.074z"/>
	</g>
	<g>
		<linearGradient id="shiny_1_" gradientUnits="userSpaceOnUse" x1="134.7666" y1="97.783" x2="194.6031" y2="437.1329">
			<stop  offset="0.0055" style="stop-color:#D2D3D3"/>
			<stop  offset="0.0096" style="stop-color:#CFCFCE"/>
			<stop  offset="0.0564" style="stop-color:#A5A5A5"/>
			<stop  offset="0.1061" style="stop-color:#838383"/>
			<stop  offset="0.1583" style="stop-color:#666666"/>
			<stop  offset="0.2138" style="stop-color:#505050"/>
			<stop  offset="0.2742" style="stop-color:#404040"/>
			<stop  offset="0.3432" style="stop-color:#373636"/>
			<stop  offset="0.4396" style="stop-color:#333333"/>
		</linearGradient>
		<path id="shiny" fill="url(#shiny_1_)" d="M174.635,256.383c0-68.845,21.653-130.931,56.17-174.364
			c-91.453,5.458-164.181,81.57-164.181,174.365c0,92.797,72.728,168.911,164.181,174.365
			C196.288,387.318,174.635,325.23,174.635,256.383z"/>
	</g>
	<g id="lines">
		<g>
			<g>
				<path fill="#D1D3D4" d="M240.497,137.975c-1.173,0-2.125-0.952-2.125-2.125v-27.457c0-1.173,0.952-2.125,2.125-2.125
					c1.173,0,2.125,0.952,2.125,2.125v27.457C242.622,137.023,241.67,137.975,240.497,137.975L240.497,137.975z"/>
			</g>
			<g>
				<path fill="#D1D3D4" d="M297.598,153.277c-0.361,0-0.726-0.092-1.061-0.285c-1.017-0.586-1.364-1.886-0.776-2.903l13.729-23.782
					c0.586-1.019,1.888-1.364,2.903-0.777c1.017,0.586,1.363,1.885,0.777,2.903l-13.729,23.782
					C299.048,152.896,298.332,153.277,297.598,153.277L297.598,153.277z"/>
			</g>
			<g>
				<path fill="#D1D3D4" d="M339.403,195.081c-0.732,0-1.447-0.381-1.84-1.062c-0.588-1.017-0.24-2.316,0.776-2.903l23.779-13.73
					c1.017-0.587,2.317-0.24,2.902,0.778c0.588,1.017,0.24,2.315-0.776,2.902l-23.778,13.73
					C340.13,194.989,339.766,195.081,339.403,195.081L339.403,195.081z"/>
			</g>
			<g>
				<path fill="#D71921" d="M126.288,252.184h-27.46c-1.173,0-2.125-0.952-2.125-2.125c0-1.173,0.952-2.125,2.125-2.125h27.46
					c1.173,0,2.125,0.953,2.125,2.125C128.412,251.232,127.461,252.184,126.288,252.184L126.288,252.184z"/>
			</g>
			<g>
				<path fill="#D1D3D4" d="M382.163,252.184h-27.461c-1.175,0-2.126-0.952-2.126-2.125c0-1.173,0.951-2.125,2.126-2.125h27.461
					c1.171,0,2.123,0.953,2.123,2.125C384.286,251.232,383.334,252.184,382.163,252.184L382.163,252.184z"/>
			</g>
			<g>
				<path fill="#FFFFFF" d="M141.588,195.081c-0.361,0-0.726-0.092-1.061-0.286l-23.781-13.73c-1.018-0.586-1.365-1.885-0.778-2.902
					c0.586-1.019,1.888-1.366,2.903-0.778l23.781,13.73c1.017,0.587,1.364,1.886,0.778,2.903
					C143.038,194.7,142.322,195.081,141.588,195.081L141.588,195.081z"/>
			</g>
			<g>
				<path fill="#FFFFFF" d="M183.394,153.275c-0.733,0-1.448-0.38-1.841-1.062l-13.732-23.781c-0.586-1.018-0.24-2.317,0.777-2.903
					c1.016-0.587,2.316-0.241,2.903,0.777l13.732,23.781c0.587,1.017,0.24,2.316-0.777,2.903
					C184.121,153.184,183.755,153.275,183.394,153.275L183.394,153.275z"/>
			</g>
		</g>
		<g>
			<g>
				<path fill="#D1D3D4" d="M258.646,122.987c-0.098,0-0.196-0.007-0.297-0.021c-1.161-0.162-1.974-1.236-1.809-2.398l1.416-10.127
					c0.162-1.163,1.247-1.966,2.398-1.81c1.162,0.162,1.973,1.237,1.811,2.399l-1.417,10.127
					C260.601,122.218,259.69,122.987,258.646,122.987L258.646,122.987z"/>
			</g>
			<g>
				<path fill="#D1D3D4" d="M275.369,126.45c-0.188,0-0.378-0.025-0.567-0.078c-1.132-0.312-1.797-1.483-1.481-2.614l2.723-9.853
					c0.312-1.133,1.482-1.793,2.613-1.481c1.133,0.312,1.796,1.483,1.481,2.613l-2.723,9.854
					C277.155,125.833,276.3,126.45,275.369,126.45L275.369,126.45z"/>
			</g>
			<g>
				<path fill="#D1D3D4" d="M291.49,132.063c-0.276,0-0.556-0.054-0.827-0.169c-1.08-0.457-1.586-1.705-1.126-2.785l3.986-9.417
					c0.457-1.08,1.699-1.589,2.784-1.128c1.08,0.456,1.585,1.705,1.128,2.785l-3.987,9.418
					C293.105,131.577,292.319,132.063,291.49,132.063L291.49,132.063z"/>
			</g>
			<g>
				<path fill="#D1D3D4" d="M320.88,149.311c-0.454,0-0.915-0.146-1.303-0.448c-0.926-0.721-1.093-2.056-0.371-2.982l6.279-8.067
					c0.72-0.927,2.053-1.094,2.98-0.373c0.928,0.721,1.094,2.056,0.373,2.981l-6.278,8.067
					C322.141,149.029,321.515,149.311,320.88,149.311L320.88,149.311z"/>
			</g>
			<g>
				<path fill="#D1D3D4" d="M333.646,160.657c-0.545,0-1.095-0.21-1.511-0.633c-0.824-0.834-0.815-2.18,0.021-3.004l7.273-7.184
					c0.835-0.824,2.18-0.818,3.005,0.02c0.823,0.834,0.815,2.18-0.019,3.004l-7.273,7.184
					C334.726,160.454,334.188,160.657,333.646,160.657L333.646,160.657z"/>
			</g>
			<g>
				<path fill="#D1D3D4" d="M344.824,173.564c-0.642,0-1.276-0.291-1.695-0.842c-0.709-0.936-0.524-2.268,0.41-2.977l8.15-6.175
					c0.935-0.708,2.268-0.524,2.978,0.41c0.708,0.937,0.525,2.27-0.41,2.978l-8.149,6.175
					C345.723,173.423,345.271,173.564,344.824,173.564L344.824,173.564z"/>
			</g>
			<g>
				<path fill="#D1D3D4" d="M361.696,203.174c-0.838,0-1.632-0.498-1.968-1.321c-0.444-1.088,0.076-2.327,1.162-2.771l9.467-3.864
					c1.093-0.446,2.329,0.078,2.771,1.164c0.445,1.087-0.078,2.327-1.164,2.771l-9.466,3.864
					C362.235,203.124,361.964,203.174,361.696,203.174L361.696,203.174z"/>
			</g>
			<g>
				<path fill="#D1D3D4" d="M367.101,219.372c-0.94,0-1.802-0.631-2.052-1.584c-0.299-1.136,0.379-2.298,1.513-2.596l9.887-2.599
					c1.135-0.305,2.297,0.378,2.595,1.513c0.299,1.136-0.38,2.298-1.514,2.596l-9.886,2.6
					C367.464,219.35,367.279,219.372,367.101,219.372L367.101,219.372z"/>
			</g>
			<g>
				<path fill="#D1D3D4" d="M370.347,236.136c-1.054,0-1.967-0.783-2.105-1.857c-0.147-1.165,0.677-2.229,1.842-2.377l10.141-1.291
					c1.169-0.134,2.229,0.675,2.377,1.84c0.147,1.165-0.678,2.229-1.84,2.376l-10.143,1.291
					C370.526,236.13,370.437,236.136,370.347,236.136L370.347,236.136z"/>
			</g>
			<g>
				<path fill="#D71921" d="M110.787,235.021c-0.095,0-0.19-0.005-0.287-0.019l-10.132-1.373c-1.163-0.157-1.978-1.229-1.821-2.391
					c0.158-1.163,1.23-1.986,2.391-1.821l10.131,1.373c1.164,0.158,1.978,1.229,1.821,2.391
					C112.747,234.248,111.834,235.021,110.787,235.021L110.787,235.021z"/>
			</g>
			<g>
				<path fill="#D71921" d="M114.179,218.286c-0.184,0-0.373-0.023-0.559-0.075l-9.861-2.68c-1.132-0.307-1.802-1.475-1.493-2.608
					c0.309-1.132,1.472-1.803,2.608-1.493l9.861,2.68c1.132,0.308,1.801,1.475,1.493,2.608
					C115.97,217.664,115.114,218.286,114.179,218.286L114.179,218.286z"/>
			</g>
			<g>
				<path fill="#D71921" d="M119.722,202.135c-0.272,0-0.549-0.054-0.818-0.165l-9.432-3.939c-1.084-0.451-1.594-1.697-1.142-2.78
					c0.452-1.082,1.692-1.595,2.779-1.141l9.433,3.939c1.083,0.45,1.594,1.696,1.141,2.779
					C121.344,201.644,120.554,202.135,119.722,202.135L119.722,202.135z"/>
			</g>
			<g>
				<path fill="#FFFFFF" d="M136.843,172.671c-0.454,0-0.91-0.145-1.296-0.443l-8.092-6.243c-0.929-0.716-1.101-2.051-0.384-2.979
					c0.714-0.93,2.051-1.102,2.979-0.385l8.093,6.242c0.93,0.717,1.101,2.052,0.385,2.98
					C138.109,172.385,137.479,172.671,136.843,172.671L136.843,172.671z"/>
			</g>
			<g>
				<path fill="#FFFFFF" d="M148.133,159.859c-0.544,0-1.089-0.209-1.506-0.625l-7.21-7.244c-0.827-0.833-0.825-2.177,0.007-3.006
					c0.832-0.825,2.175-0.825,3.006,0.007l7.21,7.244c0.828,0.833,0.825,2.179-0.006,3.007
					C149.219,159.653,148.676,159.859,148.133,159.859L148.133,159.859z"/>
			</g>
			<g>
				<path fill="#FFFFFF" d="M160.996,148.625c-0.639,0-1.271-0.288-1.688-0.833l-6.209-8.119c-0.711-0.932-0.535-2.266,0.397-2.979
					c0.929-0.712,2.267-0.536,2.979,0.397l6.208,8.118c0.712,0.932,0.535,2.267-0.397,2.979
					C161.901,148.482,161.448,148.625,160.996,148.625L160.996,148.625z"/>
			</g>
			<g>
				<path fill="#FFFFFF" d="M190.534,131.63c-0.835,0-1.627-0.494-1.966-1.313l-3.904-9.448c-0.448-1.084,0.068-2.328,1.152-2.776
					c1.089-0.447,2.331,0.069,2.777,1.152l3.904,9.448c0.448,1.084-0.068,2.329-1.152,2.777
					C191.08,131.579,190.804,131.63,190.534,131.63L190.534,131.63z"/>
			</g>
			<g>
				<path fill="#FFFFFF" d="M206.707,126.155c-0.94,0-1.797-0.627-2.052-1.576l-2.639-9.877c-0.303-1.134,0.37-2.299,1.503-2.602
					c1.139-0.3,2.3,0.371,2.602,1.504l2.64,9.877c0.303,1.135-0.37,2.3-1.503,2.602C207.073,126.13,206.888,126.155,206.707,126.155
					L206.707,126.155z"/>
			</g>
			<g>
				<path fill="#D1D3D4" d="M223.454,122.833c-1.05,0-1.965-0.779-2.104-1.849l-1.331-10.137c-0.151-1.164,0.667-2.231,1.831-2.383
					c1.166-0.152,2.231,0.666,2.384,1.83l1.329,10.138c0.152,1.163-0.667,2.231-1.83,2.383
					C223.639,122.827,223.546,122.833,223.454,122.833L223.454,122.833z"/>
			</g>
		</g>
	</g>
	<g id="E">
		<polygon id="E_1_" fill="#D71921" points="145.238,251.348 139.981,251.348 139.981,254.736 145.854,254.736 145.854,257.388 
			136.756,257.388 136.756,243.101 145.554,243.101 145.554,245.748 139.981,245.748 139.981,248.718 145.238,248.718 
			145.238,251.348 		"/>
	</g>
	<g id="F">
		<polygon id="F_1_" fill="#D1D3D4" points="335.534,242.841 344.631,242.841 344.631,245.607 338.899,245.607 338.899,249.016 
			344.254,249.016 344.254,251.759 338.899,251.759 338.899,257.757 335.534,257.757 335.534,242.841 		"/>
	</g>
	<g>
		<path fill="#D1D3D4" d="M274.938,381.447c-0.843-2.949-1.665-6.303-1.617-6.747c0-1.818,0.176-10.13,0.224-12.364h2.182
			c0,0-7.005-16.273-15.819-17.242l-1.52,2.466l2.454,2.532c0,0,8.164,8.644,8.164,12.244h0.923
			c-0.051,2.334-0.224,10.454-0.224,12.364c0.047,1.699,0.904,4.582,1.741,7.699c0.84,2.923,1.669,6.2,1.614,6.226
			c-0.052,0.687-0.866,4.173-5.154,4.185c-1.944-0.016-3.007-1.074-3.875-2.474c-0.699-1.174-0.955-2.385-1.031-2.69v-14.869
			c-0.553-5.543-6.784-5.922-6.757-6.109v-22.032c0-2.349-2.411-4.24-5.387-4.24h-26.879c-2.992,0-5.406,1.892-5.406,4.24v48.928
			h-3.169v4.25h44.012v-4.25h-3.171v-23.164c0.41,0.117,0.959,0.299,1.496,0.581c1.118,0.558,1.675,1.196,1.64,1.797l-0.001,15.269
			l0.031,0.17c0.058,0.011,1.142,7.912,8.497,8.216c6.766-0.068,8.771-5.62,8.771-7.806
			C276.619,387.143,275.778,384.585,274.938,381.447z M252.269,370.286c0,0.765-1.907,1.397-4.25,1.397h-21.213
			c-2.35,0-4.265-0.633-4.265-1.397V348.56c0-0.776,1.915-1.391,4.265-1.391h21.213c2.344,0,4.25,0.614,4.25,1.391V370.286z"/>
	</g>
	<g>
		<g>
			<path fill="#414042" d="M261.867,283.731c-10.679,12.085-29.125,13.224-41.211,2.548c-12.083-10.674-13.228-29.124-2.551-41.21
				c10.678-12.083,29.127-13.225,41.21-2.55C271.4,253.196,272.542,271.649,261.867,283.731z"/>
		</g>
		<polygon points="348.893,234.02 339.208,239.97 207.127,291.16 185.7,291.096 202.718,278.569 337.647,235.526 		"/>
		<g>
			<polygon fill="#2B0000" points="195.114,270.489 331.054,230.258 341.644,229.067 342.074,230.373 332.856,235.767 
				199.589,284.217 176.413,283.655 			"/>
		</g>
		<g>
			<polygon fill="#9D0B0F" points="342.437,229.527 332.626,235.271 199.497,283.666 178.078,283.152 195.354,270.99 
				331.165,230.795 			"/>
		</g>
		<g>
			<path fill="#2E2D2F" d="M220.381,286.021l48.666-18.859c0.302-3.191,0.073-6.419-0.667-9.539l-55.469,17.695
				C214.511,279.288,217.004,282.964,220.381,286.021z"/>
		</g>
		<g>
			<polygon fill="#EC1C24" points="178.078,283.152 199.497,283.666 332.626,235.271 342.247,229.632 			"/>
		</g>
	</g>
</g>
</svg>
