<?xml version="1.0" encoding="utf-8"?>
<!-- Generator: Adobe Illustrator 16.0.0, SVG Export Plug-In . SVG Version: 6.00 Build 0)  -->
<!DOCTYPE svg PUBLIC "-//W3C//DTD SVG 1.1//EN" "http://www.w3.org/Graphics/SVG/1.1/DTD/svg11.dtd" [
	<!ENTITY ns_extend "http://ns.adobe.com/Extensibility/1.0/">
	<!ENTITY ns_ai "http://ns.adobe.com/AdobeIllustrator/10.0/">
	<!ENTITY ns_graphs "http://ns.adobe.com/Graphs/1.0/">
	<!ENTITY ns_vars "http://ns.adobe.com/Variables/1.0/">
	<!ENTITY ns_imrep "http://ns.adobe.com/ImageReplacement/1.0/">
	<!ENTITY ns_sfw "http://ns.adobe.com/SaveForWeb/1.0/">
	<!ENTITY ns_custom "http://ns.adobe.com/GenericCustomNamespace/1.0/">
	<!ENTITY ns_adobe_xpath "http://ns.adobe.com/XPath/1.0/">
]>
<svg version="1.1" xmlns:x="&ns_extend;" xmlns:i="&ns_ai;" xmlns:graph="&ns_graphs;"
	 xmlns="http://www.w3.org/2000/svg" xmlns:xlink="http://www.w3.org/1999/xlink" x="0px" y="0px" width="87px" height="10.167px"
	 viewBox="0 0 87 10.167" enable-background="new 0 0 87 10.167" xml:space="preserve">
<metadata>
	<sfw  xmlns="&ns_sfw;">
		<slices></slices>
		<sliceSourceBounds  bottomLeftOrigin="true" height="16383" width="87" x="552" y="-7771"></sliceSourceBounds>
	</sfw>
</metadata>
<g id="Layer_1">
	<g enable-background="new    ">
		<path fill="#FFFFFF" d="M18.4,1.201c0-0.264,0.216-0.479,0.468-0.479h2.446c2.639,0,4.462,1.812,4.462,4.174v0.024
			c0,2.362-1.823,4.197-4.462,4.197h-2.446c-0.252,0-0.468-0.216-0.468-0.479V1.201z M21.314,8.241c2.123,0,3.479-1.438,3.479-3.298
			V4.919c0-1.859-1.355-3.322-3.479-3.322h-1.967v6.644H21.314z"/>
		<path fill="#FFFFFF" d="M27.784,1.201c0-0.264,0.216-0.479,0.468-0.479h3.142c1.031,0,1.859,0.312,2.387,0.84
			c0.408,0.407,0.647,0.995,0.647,1.655V3.24c0,1.38-0.936,2.183-2.243,2.435l2.087,2.687c0.096,0.108,0.156,0.216,0.156,0.348
			c0,0.252-0.24,0.468-0.479,0.468c-0.192,0-0.336-0.107-0.444-0.251l-2.363-3.07h-2.411v2.842c0,0.264-0.216,0.479-0.479,0.479
			c-0.252,0-0.468-0.216-0.468-0.479V1.201z M31.31,5.003c1.259,0,2.159-0.648,2.159-1.728V3.251c0-1.031-0.792-1.654-2.146-1.654
			h-2.591v3.406H31.31z"/>
		<path fill="#FFFFFF" d="M36.544,1.141c0-0.264,0.216-0.479,0.468-0.479c0.264,0,0.479,0.216,0.479,0.479v7.556
			c0,0.264-0.216,0.479-0.479,0.479c-0.252,0-0.468-0.216-0.468-0.479V1.141z"/>
		<path fill="#FFFFFF" d="M42.65,8.817l-3.238-7.472c-0.036-0.072-0.048-0.132-0.048-0.216c0-0.24,0.216-0.468,0.48-0.468
			c0.24,0,0.408,0.155,0.492,0.359l2.902,6.956l2.914-6.979c0.084-0.168,0.252-0.336,0.468-0.336c0.265,0,0.468,0.216,0.468,0.455
			c0,0.072-0.012,0.133-0.035,0.192l-3.251,7.508c-0.108,0.24-0.276,0.396-0.552,0.396h-0.048
			C42.926,9.212,42.747,9.057,42.65,8.817z"/>
		<path fill="#FFFFFF" d="M48.964,1.141c0-0.264,0.216-0.479,0.468-0.479c0.264,0,0.479,0.216,0.479,0.479v7.556
			c0,0.264-0.216,0.479-0.479,0.479c-0.252,0-0.468-0.216-0.468-0.479V1.141z"/>
		<path fill="#FFFFFF" d="M52.371,1.153c0-0.252,0.217-0.468,0.469-0.468h0.131c0.217,0,0.348,0.108,0.48,0.276l5.097,6.5V1.129
			c0-0.252,0.204-0.468,0.468-0.468c0.252,0,0.456,0.216,0.456,0.468v7.579c0,0.252-0.181,0.444-0.433,0.444h-0.047
			c-0.204,0-0.348-0.12-0.492-0.288l-5.205-6.656v6.5c0,0.252-0.204,0.468-0.468,0.468c-0.252,0-0.456-0.216-0.456-0.468V1.153z"/>
		<path fill="#FFFFFF" d="M61.479,4.943V4.919c0-2.303,1.691-4.342,4.21-4.342c1.271,0,2.099,0.336,2.866,0.899
			c0.108,0.084,0.192,0.216,0.192,0.384c0,0.264-0.217,0.479-0.469,0.479c-0.107,0-0.203-0.048-0.299-0.12
			c-0.6-0.455-1.271-0.768-2.327-0.768c-1.858,0-3.19,1.571-3.19,3.442v0.024c0,2.003,1.283,3.489,3.322,3.489
			c0.959,0,1.848-0.371,2.423-0.839V5.483h-2.255c-0.229,0-0.42-0.192-0.42-0.42c0-0.24,0.191-0.432,0.42-0.432h2.699
			c0.251,0,0.467,0.216,0.467,0.479v2.555c0,0.228-0.107,0.432-0.324,0.575c-0.768,0.564-1.799,1.02-3.046,1.02
			C63.111,9.26,61.479,7.341,61.479,4.943z"/>
	</g>
</g>
<g id="Layer_2" display="none">
	<g display="inline" enable-background="new    ">
		<path fill="#FFFFFF" d="M6.292,1.201c0-0.264,0.216-0.479,0.468-0.479h2.446c2.639,0,4.462,1.812,4.462,4.174v0.024
			c0,2.362-1.823,4.197-4.462,4.197H6.76c-0.252,0-0.468-0.216-0.468-0.479V1.201z M9.207,8.241c2.123,0,3.478-1.438,3.478-3.298
			V4.919c0-1.859-1.355-3.322-3.478-3.322H7.24v6.644H9.207z"/>
		<path fill="#FFFFFF" d="M15.76,1.141c0-0.264,0.216-0.479,0.468-0.479c0.264,0,0.479,0.216,0.479,0.479v7.556
			c0,0.264-0.216,0.479-0.479,0.479c-0.252,0-0.468-0.216-0.468-0.479V1.141z"/>
		<path fill="#FFFFFF" d="M19.168,1.201c0-0.264,0.216-0.479,0.468-0.479h3.142c1.031,0,1.859,0.312,2.387,0.84
			c0.408,0.407,0.647,0.995,0.647,1.655V3.24c0,1.38-0.936,2.183-2.243,2.435l2.087,2.687c0.096,0.108,0.156,0.216,0.156,0.348
			c0,0.252-0.24,0.468-0.479,0.468c-0.192,0-0.336-0.107-0.444-0.251l-2.363-3.07h-2.411v2.842c0,0.264-0.216,0.479-0.479,0.479
			c-0.252,0-0.468-0.216-0.468-0.479V1.201z M22.694,5.003c1.259,0,2.159-0.648,2.159-1.728V3.251c0-1.031-0.792-1.654-2.146-1.654
			h-2.591v3.406H22.694z"/>
		<path fill="#FFFFFF" d="M27.844,8.637V1.201c0-0.264,0.216-0.479,0.468-0.479h5.217c0.24,0,0.432,0.192,0.432,0.432
			c0,0.24-0.192,0.432-0.432,0.432h-4.737v2.867h4.198c0.24,0,0.432,0.203,0.432,0.432c0,0.239-0.192,0.432-0.432,0.432h-4.198
			v2.938h4.797c0.24,0,0.432,0.191,0.432,0.432s-0.192,0.432-0.432,0.432h-5.277C28.06,9.117,27.844,8.901,27.844,8.637z"/>
		<path fill="#FFFFFF" d="M35.512,4.943V4.919c0-2.375,1.775-4.342,4.246-4.342c1.355,0,2.219,0.443,2.999,1.091
			c0.096,0.084,0.192,0.216,0.192,0.384c0,0.252-0.228,0.468-0.479,0.468c-0.132,0-0.24-0.06-0.312-0.107
			c-0.648-0.576-1.379-0.96-2.411-0.96c-1.859,0-3.25,1.512-3.25,3.442v0.024c0,1.942,1.403,3.466,3.25,3.466
			c1.043,0,1.775-0.36,2.495-1.02c0.072-0.072,0.18-0.132,0.3-0.132c0.24,0,0.456,0.216,0.456,0.456
			c0,0.144-0.072,0.264-0.156,0.335c-0.828,0.756-1.739,1.235-3.118,1.235C37.299,9.26,35.512,7.354,35.512,4.943z"/>
		<path fill="#FFFFFF" d="M46.959,1.597h-2.435c-0.24,0-0.444-0.192-0.444-0.432c0-0.24,0.204-0.444,0.444-0.444h5.829
			c0.239,0,0.443,0.204,0.443,0.444c0,0.239-0.204,0.432-0.443,0.432h-2.436v7.1c0,0.264-0.215,0.479-0.479,0.479
			c-0.264,0-0.479-0.216-0.479-0.479V1.597z"/>
		<path fill="#FFFFFF" d="M52.6,1.141c0-0.264,0.217-0.479,0.469-0.479c0.264,0,0.479,0.216,0.479,0.479v7.556
			c0,0.264-0.215,0.479-0.479,0.479c-0.252,0-0.469-0.216-0.469-0.479V1.141z"/>
		<path fill="#FFFFFF" d="M55.636,4.943V4.919c0-2.315,1.739-4.342,4.294-4.342s4.27,2.003,4.27,4.317v0.024
			c0,2.314-1.739,4.341-4.294,4.341C57.352,9.26,55.636,7.257,55.636,4.943z M63.216,4.943V4.919c0-1.907-1.392-3.467-3.311-3.467
			s-3.286,1.535-3.286,3.442v0.024c0,1.906,1.392,3.466,3.311,3.466S63.216,6.85,63.216,4.943z"/>
		<path fill="#FFFFFF" d="M66.207,1.153c0-0.252,0.217-0.468,0.469-0.468h0.131c0.217,0,0.348,0.108,0.48,0.276l5.097,6.5V1.129
			c0-0.252,0.204-0.468,0.468-0.468c0.252,0,0.456,0.216,0.456,0.468v7.579c0,0.252-0.181,0.444-0.433,0.444h-0.047
			c-0.204,0-0.348-0.12-0.492-0.288l-5.205-6.656v6.5c0,0.252-0.204,0.468-0.468,0.468c-0.252,0-0.456-0.216-0.456-0.468V1.153z"/>
		<path fill="#FFFFFF" d="M75.388,8.109c-0.108-0.071-0.181-0.203-0.181-0.359c0-0.264,0.205-0.468,0.457-0.468
			c0.119,0,0.227,0.048,0.287,0.108c0.791,0.671,1.583,0.995,2.65,0.995c1.127,0,1.871-0.6,1.871-1.428V6.934
			c0-0.779-0.42-1.224-2.183-1.596c-1.931-0.419-2.818-1.043-2.818-2.422V2.892c0-1.319,1.163-2.291,2.759-2.291
			c1.104,0,1.906,0.276,2.674,0.828C81,1.5,81.108,1.632,81.108,1.813c0,0.252-0.204,0.455-0.456,0.455
			c-0.107,0-0.191-0.023-0.275-0.084c-0.708-0.516-1.392-0.731-2.171-0.731c-1.091,0-1.787,0.6-1.787,1.355v0.024
			c0,0.791,0.432,1.235,2.278,1.631c1.871,0.407,2.734,1.091,2.734,2.375v0.023c0,1.439-1.199,2.375-2.865,2.375
			C77.342,9.237,76.323,8.853,75.388,8.109z"/>
	</g>
</g>
<g id="Layer_3" display="none">
	
		<text transform="matrix(1 0 0 1 12.9766 9.1167)" display="inline" fill="#1D1D1B" font-family="'GothamRounded-Book'" font-size="12">SETTINGS</text>
</g>
<g id="Layer_4" display="none">
	<g display="inline" enable-background="new    ">
		<path fill="#1D1D1B" d="M1.475,8.493l3.406-7.447c0.12-0.264,0.3-0.42,0.6-0.42h0.048c0.288,0,0.479,0.156,0.587,0.42l3.406,7.436
			c0.036,0.084,0.06,0.168,0.06,0.24c0,0.252-0.204,0.455-0.456,0.455c-0.228,0-0.384-0.155-0.468-0.348L7.783,6.898H3.178
			L2.302,8.853c-0.084,0.204-0.24,0.323-0.456,0.323c-0.24,0-0.432-0.191-0.432-0.432C1.415,8.673,1.427,8.589,1.475,8.493z
			 M7.412,6.035L5.48,1.741L3.55,6.035H7.412z"/>
		<path fill="#1D1D1B" d="M11.398,1.201c0-0.264,0.216-0.479,0.468-0.479h2.446c2.639,0,4.462,1.812,4.462,4.174v0.024
			c0,2.362-1.823,4.197-4.462,4.197h-2.446c-0.252,0-0.468-0.216-0.468-0.479V1.201z M14.312,8.241c2.123,0,3.479-1.438,3.479-3.298
			V4.919c0-1.859-1.355-3.322-3.479-3.322h-1.967v6.644H14.312z"/>
		<path fill="#1D1D1B" d="M20.783,1.201c0-0.264,0.216-0.479,0.468-0.479h2.446c2.639,0,4.462,1.812,4.462,4.174v0.024
			c0,2.362-1.823,4.197-4.462,4.197H21.25c-0.252,0-0.468-0.216-0.468-0.479V1.201z M23.697,8.241c2.123,0,3.478-1.438,3.478-3.298
			V4.919c0-1.859-1.355-3.322-3.478-3.322H21.73v6.644H23.697z"/>
		<path fill="#1D1D1B" d="M36.465,8.817l-3.238-7.472c-0.036-0.072-0.048-0.132-0.048-0.216c0-0.24,0.216-0.468,0.48-0.468
			c0.24,0,0.408,0.155,0.492,0.359l2.902,6.956l2.914-6.979c0.084-0.168,0.252-0.336,0.468-0.336c0.264,0,0.468,0.216,0.468,0.455
			c0,0.072-0.012,0.133-0.036,0.192l-3.25,7.508c-0.108,0.24-0.276,0.396-0.552,0.396h-0.048
			C36.741,9.212,36.561,9.057,36.465,8.817z"/>
		<path fill="#1D1D1B" d="M42.694,8.637V1.201c0-0.264,0.216-0.479,0.468-0.479h5.217c0.24,0,0.432,0.192,0.432,0.432
			c0,0.24-0.191,0.432-0.432,0.432h-4.737v2.867h4.198c0.239,0,0.432,0.203,0.432,0.432c0,0.239-0.192,0.432-0.432,0.432h-4.198
			v2.938h4.798c0.239,0,0.432,0.191,0.432,0.432s-0.192,0.432-0.432,0.432h-5.277C42.91,9.117,42.694,8.901,42.694,8.637z"/>
		<path fill="#1D1D1B" d="M50.734,1.141c0-0.264,0.216-0.479,0.468-0.479c0.264,0,0.479,0.216,0.479,0.479v3.311h4.846V1.141
			c0-0.264,0.216-0.479,0.479-0.479c0.252,0,0.468,0.216,0.468,0.479v7.556c0,0.264-0.216,0.479-0.468,0.479
			c-0.264,0-0.479-0.216-0.479-0.479V5.338h-4.846v3.358c0,0.264-0.216,0.479-0.479,0.479c-0.252,0-0.468-0.216-0.468-0.479V1.141z"
			/>
		<path fill="#1D1D1B" d="M59.938,1.141c0-0.264,0.216-0.479,0.468-0.479c0.264,0,0.479,0.216,0.479,0.479v7.556
			c0,0.264-0.216,0.479-0.479,0.479c-0.252,0-0.468-0.216-0.468-0.479V1.141z"/>
		<path fill="#1D1D1B" d="M62.975,4.943V4.919c0-2.375,1.774-4.342,4.245-4.342c1.355,0,2.219,0.443,2.999,1.091
			c0.096,0.084,0.191,0.216,0.191,0.384c0,0.252-0.229,0.468-0.479,0.468c-0.132,0-0.24-0.06-0.312-0.107
			c-0.648-0.576-1.38-0.96-2.411-0.96c-1.858,0-3.251,1.512-3.251,3.442v0.024c0,1.942,1.404,3.466,3.251,3.466
			c1.044,0,1.774-0.36,2.495-1.02c0.071-0.072,0.18-0.132,0.299-0.132c0.24,0,0.456,0.216,0.456,0.456
			c0,0.144-0.071,0.264-0.155,0.335c-0.828,0.756-1.74,1.235-3.119,1.235C64.762,9.26,62.975,7.354,62.975,4.943z"/>
		<path fill="#1D1D1B" d="M72.202,1.141c0-0.264,0.216-0.479,0.468-0.479c0.264,0,0.479,0.216,0.479,0.479v7.1h4.354
			c0.24,0,0.433,0.204,0.433,0.444s-0.192,0.432-0.433,0.432H72.67c-0.252,0-0.468-0.216-0.468-0.479V1.141z"/>
		<path fill="#1D1D1B" d="M79.63,8.637V1.201c0-0.264,0.216-0.479,0.468-0.479h5.217c0.24,0,0.432,0.192,0.432,0.432
			c0,0.24-0.191,0.432-0.432,0.432h-4.737v2.867h4.198c0.239,0,0.432,0.203,0.432,0.432c0,0.239-0.192,0.432-0.432,0.432h-4.198
			v2.938h4.798c0.239,0,0.432,0.191,0.432,0.432s-0.192,0.432-0.432,0.432h-5.277C79.846,9.117,79.63,8.901,79.63,8.637z"/>
	</g>
</g>
<g id="Layer_5" display="none">
	
		<text transform="matrix(1 0 0 1 11.5308 9.1167)" display="inline" fill="#1D1D1B" font-family="'GothamRounded-Book'" font-size="12">ADD FUEL</text>
</g>
</svg>
