<?xml version="1.0" encoding="utf-8"?>
<!-- Generator: Adobe Illustrator 16.0.0, SVG Export Plug-In . SVG Version: 6.00 Build 0)  -->
<!DOCTYPE svg PUBLIC "-//W3C//DTD SVG 1.1//EN" "http://www.w3.org/Graphics/SVG/1.1/DTD/svg11.dtd" [
	<!ENTITY ns_extend "http://ns.adobe.com/Extensibility/1.0/">
	<!ENTITY ns_ai "http://ns.adobe.com/AdobeIllustrator/10.0/">
	<!ENTITY ns_graphs "http://ns.adobe.com/Graphs/1.0/">
	<!ENTITY ns_vars "http://ns.adobe.com/Variables/1.0/">
	<!ENTITY ns_imrep "http://ns.adobe.com/ImageReplacement/1.0/">
	<!ENTITY ns_sfw "http://ns.adobe.com/SaveForWeb/1.0/">
	<!ENTITY ns_custom "http://ns.adobe.com/GenericCustomNamespace/1.0/">
	<!ENTITY ns_adobe_xpath "http://ns.adobe.com/XPath/1.0/">
]>
<svg version="1.1" xmlns:x="&ns_extend;" xmlns:i="&ns_ai;" xmlns:graph="&ns_graphs;"
	 xmlns="http://www.w3.org/2000/svg" xmlns:xlink="http://www.w3.org/1999/xlink" x="0px" y="0px" width="87px" height="10.167px"
	 viewBox="0 0 87 10.167" enable-background="new 0 0 87 10.167" xml:space="preserve">
<metadata>
	<sfw  xmlns="&ns_sfw;">
		<slices></slices>
		<sliceSourceBounds  bottomLeftOrigin="true" height="16383" width="87" x="552" y="-7771"></sliceSourceBounds>
	</sfw>
</metadata>
<g id="Layer_1" display="none">
	
		<text transform="matrix(1 0 0 1 17.2129 9.1167)" display="inline" fill="#1D1D1B" font-family="'GothamRounded-Book'" font-size="12">DRIVING</text>
</g>
<g id="Layer_2" display="none">
	
		<text transform="matrix(1 0 0 1 5.105 9.1167)" display="inline" fill="#1D1D1B" font-family="'GothamRounded-Book'" font-size="12">DIRECTIONS</text>
</g>
<g id="Layer_3" display="none">
	
		<text transform="matrix(1 0 0 1 12.9766 9.1167)" display="inline" fill="#1D1D1B" font-family="'GothamRounded-Book'" font-size="12">SETTINGS</text>
</g>
<g id="Layer_4">
	<g enable-background="new    ">
		<path fill="#FFFFFF" d="M1.475,8.493l3.406-7.447c0.12-0.264,0.3-0.42,0.6-0.42h0.048c0.288,0,0.479,0.156,0.587,0.42l3.406,7.436
			c0.036,0.084,0.06,0.168,0.06,0.24c0,0.252-0.204,0.455-0.456,0.455c-0.228,0-0.384-0.155-0.468-0.348L7.783,6.898H3.178
			L2.302,8.853c-0.084,0.204-0.24,0.323-0.456,0.323c-0.24,0-0.432-0.191-0.432-0.432C1.415,8.673,1.427,8.589,1.475,8.493z
			 M7.412,6.035L5.48,1.741L3.55,6.035H7.412z"/>
		<path fill="#FFFFFF" d="M11.398,1.201c0-0.264,0.216-0.479,0.468-0.479h2.446c2.639,0,4.462,1.812,4.462,4.174v0.024
			c0,2.362-1.823,4.197-4.462,4.197h-2.446c-0.252,0-0.468-0.216-0.468-0.479V1.201z M14.312,8.241c2.123,0,3.479-1.438,3.479-3.298
			V4.919c0-1.859-1.355-3.322-3.479-3.322h-1.967v6.644H14.312z"/>
		<path fill="#FFFFFF" d="M20.783,1.201c0-0.264,0.216-0.479,0.468-0.479h2.446c2.639,0,4.462,1.812,4.462,4.174v0.024
			c0,2.362-1.823,4.197-4.462,4.197H21.25c-0.252,0-0.468-0.216-0.468-0.479V1.201z M23.697,8.241c2.123,0,3.478-1.438,3.478-3.298
			V4.919c0-1.859-1.355-3.322-3.478-3.322H21.73v6.644H23.697z"/>
		<path fill="#FFFFFF" d="M36.465,8.817l-3.238-7.472c-0.036-0.072-0.048-0.132-0.048-0.216c0-0.24,0.216-0.468,0.48-0.468
			c0.24,0,0.408,0.155,0.492,0.359l2.902,6.956l2.914-6.979c0.084-0.168,0.252-0.336,0.468-0.336c0.264,0,0.468,0.216,0.468,0.455
			c0,0.072-0.012,0.133-0.036,0.192l-3.25,7.508c-0.108,0.24-0.276,0.396-0.552,0.396h-0.048
			C36.741,9.212,36.561,9.057,36.465,8.817z"/>
		<path fill="#FFFFFF" d="M42.694,8.637V1.201c0-0.264,0.216-0.479,0.468-0.479h5.217c0.24,0,0.432,0.192,0.432,0.432
			c0,0.24-0.191,0.432-0.432,0.432h-4.737v2.867h4.198c0.239,0,0.432,0.203,0.432,0.432c0,0.239-0.192,0.432-0.432,0.432h-4.198
			v2.938h4.798c0.239,0,0.432,0.191,0.432,0.432s-0.192,0.432-0.432,0.432h-5.277C42.91,9.117,42.694,8.901,42.694,8.637z"/>
		<path fill="#FFFFFF" d="M50.734,1.141c0-0.264,0.216-0.479,0.468-0.479c0.264,0,0.479,0.216,0.479,0.479v3.311h4.846V1.141
			c0-0.264,0.216-0.479,0.479-0.479c0.252,0,0.468,0.216,0.468,0.479v7.556c0,0.264-0.216,0.479-0.468,0.479
			c-0.264,0-0.479-0.216-0.479-0.479V5.338h-4.846v3.358c0,0.264-0.216,0.479-0.479,0.479c-0.252,0-0.468-0.216-0.468-0.479V1.141z"
			/>
		<path fill="#FFFFFF" d="M59.938,1.141c0-0.264,0.216-0.479,0.468-0.479c0.264,0,0.479,0.216,0.479,0.479v7.556
			c0,0.264-0.216,0.479-0.479,0.479c-0.252,0-0.468-0.216-0.468-0.479V1.141z"/>
		<path fill="#FFFFFF" d="M62.975,4.943V4.919c0-2.375,1.774-4.342,4.245-4.342c1.355,0,2.219,0.443,2.999,1.091
			c0.096,0.084,0.191,0.216,0.191,0.384c0,0.252-0.229,0.468-0.479,0.468c-0.132,0-0.24-0.06-0.312-0.107
			c-0.648-0.576-1.38-0.96-2.411-0.96c-1.858,0-3.251,1.512-3.251,3.442v0.024c0,1.942,1.404,3.466,3.251,3.466
			c1.044,0,1.774-0.36,2.495-1.02c0.071-0.072,0.18-0.132,0.299-0.132c0.24,0,0.456,0.216,0.456,0.456
			c0,0.144-0.071,0.264-0.155,0.335c-0.828,0.756-1.74,1.235-3.119,1.235C64.762,9.26,62.975,7.354,62.975,4.943z"/>
		<path fill="#FFFFFF" d="M72.202,1.141c0-0.264,0.216-0.479,0.468-0.479c0.264,0,0.479,0.216,0.479,0.479v7.1h4.354
			c0.24,0,0.433,0.204,0.433,0.444s-0.192,0.432-0.433,0.432H72.67c-0.252,0-0.468-0.216-0.468-0.479V1.141z"/>
		<path fill="#FFFFFF" d="M79.63,8.637V1.201c0-0.264,0.216-0.479,0.468-0.479h5.217c0.24,0,0.432,0.192,0.432,0.432
			c0,0.24-0.191,0.432-0.432,0.432h-4.737v2.867h4.198c0.239,0,0.432,0.203,0.432,0.432c0,0.239-0.192,0.432-0.432,0.432h-4.198
			v2.938h4.798c0.239,0,0.432,0.191,0.432,0.432s-0.192,0.432-0.432,0.432h-5.277C79.846,9.117,79.63,8.901,79.63,8.637z"/>
	</g>
</g>
<g id="Layer_5" display="none">
	
		<text transform="matrix(1 0 0 1 11.5308 9.1167)" display="inline" fill="#1D1D1B" font-family="'GothamRounded-Book'" font-size="12">ADD FUEL</text>
</g>
</svg>
