<?xml version="1.0" encoding="utf-8"?>
<!-- Generator: Adobe Illustrator 16.0.0, SVG Export Plug-In . SVG Version: 6.00 Build 0)  -->
<!DOCTYPE svg PUBLIC "-//W3C//DTD SVG 1.1//EN" "http://www.w3.org/Graphics/SVG/1.1/DTD/svg11.dtd" [
	<!ENTITY ns_extend "http://ns.adobe.com/Extensibility/1.0/">
	<!ENTITY ns_ai "http://ns.adobe.com/AdobeIllustrator/10.0/">
	<!ENTITY ns_graphs "http://ns.adobe.com/Graphs/1.0/">
	<!ENTITY ns_vars "http://ns.adobe.com/Variables/1.0/">
	<!ENTITY ns_imrep "http://ns.adobe.com/ImageReplacement/1.0/">
	<!ENTITY ns_sfw "http://ns.adobe.com/SaveForWeb/1.0/">
	<!ENTITY ns_custom "http://ns.adobe.com/GenericCustomNamespace/1.0/">
	<!ENTITY ns_adobe_xpath "http://ns.adobe.com/XPath/1.0/">
]>
<svg version="1.1" id="Layer_1" xmlns:x="&ns_extend;" xmlns:i="&ns_ai;" xmlns:graph="&ns_graphs;"
	 xmlns="http://www.w3.org/2000/svg" xmlns:xlink="http://www.w3.org/1999/xlink" x="0px" y="0px" width="74.5px" height="10.167px"
	 viewBox="0 0 74.5 10.167" enable-background="new 0 0 74.5 10.167" xml:space="preserve">
<metadata>
	<sfw  xmlns="&ns_sfw;">
		<slices></slices>
		<sliceSourceBounds  x="277.853" y="-254.096" width="71.096" height="8.684" bottomLeftOrigin="true"></sliceSourceBounds>
	</sfw>
</metadata>
<g>
	<path fill="#FFFFFF" d="M4.914,5.819L1.795,1.454C1.735,1.358,1.687,1.25,1.687,1.13c0-0.251,0.228-0.468,0.492-0.468
		c0.204,0,0.336,0.12,0.456,0.288l2.771,3.994L8.2,0.95c0.12-0.168,0.24-0.288,0.444-0.288c0.264,0,0.468,0.216,0.468,0.468
		c0,0.12-0.072,0.252-0.132,0.348L5.873,5.795v2.902c0,0.264-0.216,0.48-0.48,0.48c-0.264,0-0.479-0.216-0.479-0.48V5.819z"/>
	<path fill="#FFFFFF" d="M9.523,4.944V4.92c0-2.314,1.739-4.342,4.294-4.342c2.554,0,4.27,2.003,4.27,4.318V4.92
		c0,2.315-1.739,4.342-4.293,4.342C11.238,9.262,9.523,7.259,9.523,4.944z M17.103,4.944V4.92c0-1.907-1.391-3.466-3.31-3.466
		s-3.287,1.535-3.287,3.442V4.92c0,1.907,1.392,3.466,3.311,3.466S17.103,6.851,17.103,4.944z"/>
	<path fill="#FFFFFF" d="M19.663,5.604V1.142c0-0.264,0.216-0.48,0.467-0.48c0.264,0,0.48,0.216,0.48,0.48v4.401
		c0,1.811,0.972,2.831,2.566,2.831c1.547,0,2.531-0.936,2.531-2.771V1.142c0-0.264,0.216-0.48,0.48-0.48
		c0.251,0,0.467,0.216,0.467,0.48v4.39c0,2.447-1.403,3.718-3.502,3.718C21.078,9.25,19.663,7.979,19.663,5.604z"/>
	<path fill="#FFFFFF" d="M28.603,1.202c0-0.264,0.216-0.48,0.468-0.48h3.142c1.031,0,1.859,0.312,2.387,0.84
		c0.408,0.408,0.647,0.995,0.647,1.655v0.024c0,1.379-0.936,2.183-2.243,2.435l2.087,2.687c0.096,0.108,0.156,0.216,0.156,0.348
		c0,0.252-0.24,0.468-0.479,0.468c-0.192,0-0.336-0.108-0.444-0.252l-2.363-3.07H29.55v2.842c0,0.264-0.216,0.48-0.479,0.48
		c-0.252,0-0.468-0.216-0.468-0.48V1.202z M32.128,5.004c1.259,0,2.159-0.647,2.159-1.727V3.253c0-1.031-0.792-1.655-2.146-1.655
		H29.55v3.406H32.128z"/>
	<path fill="#FFFFFF" d="M42.497,1.598h-2.435c-0.24,0-0.444-0.192-0.444-0.432s0.204-0.444,0.444-0.444h5.829
		c0.24,0,0.444,0.204,0.444,0.444s-0.204,0.432-0.444,0.432h-2.435v7.1c0,0.264-0.216,0.48-0.48,0.48
		c-0.264,0-0.479-0.216-0.479-0.48V1.598z"/>
	<path fill="#FFFFFF" d="M47.754,1.202c0-0.264,0.216-0.48,0.468-0.48h3.142c1.031,0,1.859,0.312,2.387,0.84
		c0.408,0.408,0.647,0.995,0.647,1.655v0.024c0,1.379-0.936,2.183-2.243,2.435l2.087,2.687c0.096,0.108,0.156,0.216,0.156,0.348
		c0,0.252-0.24,0.468-0.479,0.468c-0.192,0-0.336-0.108-0.444-0.252l-2.363-3.07h-2.411v2.842c0,0.264-0.216,0.48-0.479,0.48
		c-0.252,0-0.468-0.216-0.468-0.48V1.202z M51.28,5.004c1.259,0,2.159-0.647,2.159-1.727V3.253c0-1.031-0.792-1.655-2.146-1.655
		h-2.591v3.406H51.28z"/>
	<path fill="#FFFFFF" d="M56.214,1.142c0-0.264,0.216-0.48,0.468-0.48c0.264,0,0.479,0.216,0.479,0.48v7.556
		c0,0.264-0.216,0.48-0.479,0.48c-0.252,0-0.468-0.216-0.468-0.48V1.142z"/>
	<path fill="#FFFFFF" d="M59.322,1.202c0-0.264,0.216-0.48,0.468-0.48h2.674c1.895,0,3.142,1.007,3.142,2.663v0.024
		c0,1.811-1.511,2.747-3.298,2.747H60.27v2.542c0,0.264-0.216,0.48-0.479,0.48c-0.252,0-0.468-0.216-0.468-0.48V1.202z
		 M62.344,5.292c1.392,0,2.303-0.744,2.303-1.847V3.421c0-1.199-0.899-1.823-2.254-1.823H60.27v3.694H62.344z"/>
	<path fill="#FFFFFF" d="M66.738,8.11c-0.108-0.072-0.18-0.204-0.18-0.36c0-0.264,0.204-0.468,0.456-0.468
		c0.12,0,0.228,0.048,0.288,0.108c0.792,0.672,1.583,0.996,2.65,0.996c1.127,0,1.871-0.6,1.871-1.427V6.935
		c0-0.78-0.42-1.224-2.183-1.595c-1.931-0.42-2.818-1.043-2.818-2.423V2.893c0-1.319,1.163-2.291,2.758-2.291
		c1.104,0,1.907,0.276,2.674,0.827c0.096,0.072,0.204,0.204,0.204,0.384c0,0.252-0.204,0.456-0.456,0.456
		c-0.108,0-0.192-0.024-0.276-0.084c-0.708-0.516-1.392-0.731-2.171-0.731c-1.091,0-1.787,0.6-1.787,1.355v0.024
		c0,0.792,0.432,1.235,2.279,1.631c1.871,0.408,2.734,1.091,2.734,2.375v0.024c0,1.439-1.199,2.375-2.866,2.375
		C68.693,9.238,67.674,8.854,66.738,8.11z"/>
</g>
</svg>
